<?xml version="1.0" encoding="UTF-8"?>
<svg xmlns="http://www.w3.org/2000/svg" viewBox="0 0 820 576" width="820" height="576" shape-rendering="geometricPrecision" font-family="Times, 'Liberation Serif', serif"><rect x="0" y="0" width="820" height="576" fill="white"/><svg x="20" y="20" width="780" height="260" viewBox="0 0 780 260" preserveAspectRatio="xMidYMid meet"><rect x="0" y="0" width="780" height="260" fill="white"/><rect x="12" y="12" width="756" height="236" fill="none" stroke="black" stroke-width="0.8"/><text x="405" y="42" font-size="14" font-family="Times, &apos;Liberation Serif&apos;, serif" text-anchor="middle" letter-spacing="0.05em" fill="black">FIRST-ORDER LOWPASS</text><g opacity="0.7"><line x1="90" y1="80" x2="90" y2="180" stroke="black" stroke-width="0.4" stroke-dasharray="2 3"/><line x1="195" y1="80" x2="195" y2="180" stroke="black" stroke-width="0.4" stroke-dasharray="2 3"/><line x1="300" y1="80" x2="300" y2="180" stroke="black" stroke-width="0.4" stroke-dasharray="2 3"/><line x1="405" y1="80" x2="405" y2="180" stroke="black" stroke-width="0.4" stroke-dasharray="2 3"/><line x1="510" y1="80" x2="510" y2="180" stroke="black" stroke-width="0.4" stroke-dasharray="2 3"/><line x1="615" y1="80" x2="615" y2="180" stroke="black" stroke-width="0.4" stroke-dasharray="2 3"/><line x1="720" y1="80" x2="720" y2="180" stroke="black" stroke-width="0.4" stroke-dasharray="2 3"/><line x1="90" y1="173.103" x2="720" y2="173.103" stroke="black" stroke-width="0.4" stroke-dasharray="2 3"/><line x1="90" y1="144.368" x2="720" y2="144.368" stroke="black" stroke-width="0.4" stroke-dasharray="2 3"/><line x1="90" y1="115.632" x2="720" y2="115.632" stroke="black" stroke-width="0.4" stroke-dasharray="2 3"/><line x1="90" y1="86.897" x2="720" y2="86.897" stroke="black" stroke-width="0.4" stroke-dasharray="2 3"/></g><defs><clipPath id="bland-clip-plot"><rect x="90" y="80" width="630" height="100"/></clipPath></defs><g clip-path="url(#bland-clip-plot)"><polyline points="90,86.897 100.5,86.897 111,86.897 121.5,86.897 132,86.897 142.5,86.897 153,86.897 163.5,86.897 174,86.897 184.5,86.897 195,86.897 205.5,86.898 216,86.898 226.5,86.899 237,86.9 247.5,86.903 258,86.906 268.5,86.912 279,86.921 289.5,86.936 300,86.959 310.5,86.995 321,87.051 331.5,87.14 342,87.278 352.5,87.491 363,87.815 373.5,88.295 384,88.988 394.5,89.949 405,91.222 415.5,92.822 426,94.735 436.5,96.916 447,99.309 457.5,101.859 468,104.52 478.5,107.255 489,110.04 499.5,112.857 510,115.694 520.5,118.545 531,121.404 541.5,124.269 552,127.136 562.5,130.006 573,132.877 583.5,135.75 594,138.622 604.5,141.495 615,144.368 625.5,147.242 636,150.115 646.5,152.989 657,155.862 667.5,158.736 678,161.609 688.5,164.483 699,167.356 709.5,170.23 720,173.103" fill="none" stroke="black" stroke-width="1.2" stroke-linecap="round" stroke-linejoin="round"/></g><rect x="90" y="80" width="630" height="100" fill="none" stroke="black" stroke-width="1"/><line x1="90" y1="180" x2="90" y2="176" stroke="black" stroke-width="1"/><text x="90" y="193" font-size="9" font-family="Times, &apos;Liberation Serif&apos;, serif" text-anchor="middle" fill="black">0.01</text><line x1="195" y1="180" x2="195" y2="176" stroke="black" stroke-width="1"/><text x="195" y="193" font-size="9" font-family="Times, &apos;Liberation Serif&apos;, serif" text-anchor="middle" fill="black">0.1</text><line x1="300" y1="180" x2="300" y2="176" stroke="black" stroke-width="1"/><text x="300" y="193" font-size="9" font-family="Times, &apos;Liberation Serif&apos;, serif" text-anchor="middle" fill="black">1</text><line x1="405" y1="180" x2="405" y2="176" stroke="black" stroke-width="1"/><text x="405" y="193" font-size="9" font-family="Times, &apos;Liberation Serif&apos;, serif" text-anchor="middle" fill="black">10</text><line x1="510" y1="180" x2="510" y2="176" stroke="black" stroke-width="1"/><text x="510" y="193" font-size="9" font-family="Times, &apos;Liberation Serif&apos;, serif" text-anchor="middle" fill="black">100</text><line x1="615" y1="180" x2="615" y2="176" stroke="black" stroke-width="1"/><text x="615" y="193" font-size="9" font-family="Times, &apos;Liberation Serif&apos;, serif" text-anchor="middle" fill="black">1000</text><line x1="720" y1="180" x2="720" y2="176" stroke="black" stroke-width="1"/><text x="720" y="193" font-size="9" font-family="Times, &apos;Liberation Serif&apos;, serif" text-anchor="middle" fill="black">10000</text><line x1="90" y1="173.103" x2="94" y2="173.103" stroke="black" stroke-width="1"/><text x="86" y="175.603" font-size="9" font-family="Times, &apos;Liberation Serif&apos;, serif" text-anchor="end" fill="black">-60</text><line x1="90" y1="144.368" x2="94" y2="144.368" stroke="black" stroke-width="1"/><text x="86" y="146.868" font-size="9" font-family="Times, &apos;Liberation Serif&apos;, serif" text-anchor="end" fill="black">-40</text><line x1="90" y1="115.632" x2="94" y2="115.632" stroke="black" stroke-width="1"/><text x="86" y="118.132" font-size="9" font-family="Times, &apos;Liberation Serif&apos;, serif" text-anchor="end" fill="black">-20</text><line x1="90" y1="86.897" x2="94" y2="86.897" stroke="black" stroke-width="1"/><text x="86" y="89.397" font-size="9" font-family="Times, &apos;Liberation Serif&apos;, serif" text-anchor="end" fill="black">0</text><text x="405" y="215" font-size="11" font-family="Times, &apos;Liberation Serif&apos;, serif" text-anchor="middle" fill="black" font-style="italic">ω [rad/s]</text><text x="46" y="130" font-size="11" font-family="Times, &apos;Liberation Serif&apos;, serif" text-anchor="middle" fill="black" font-style="italic" transform="rotate(-90 46 130)">|H| [dB]</text></svg><svg x="20" y="296" width="780" height="260" viewBox="0 0 780 260" preserveAspectRatio="xMidYMid meet"><rect x="0" y="0" width="780" height="260" fill="white"/><rect x="12" y="12" width="756" height="236" fill="none" stroke="black" stroke-width="0.8"/><g opacity="0.7"><line x1="90" y1="80" x2="90" y2="180" stroke="black" stroke-width="0.4" stroke-dasharray="2 3"/><line x1="195" y1="80" x2="195" y2="180" stroke="black" stroke-width="0.4" stroke-dasharray="2 3"/><line x1="300" y1="80" x2="300" y2="180" stroke="black" stroke-width="0.4" stroke-dasharray="2 3"/><line x1="405" y1="80" x2="405" y2="180" stroke="black" stroke-width="0.4" stroke-dasharray="2 3"/><line x1="510" y1="80" x2="510" y2="180" stroke="black" stroke-width="0.4" stroke-dasharray="2 3"/><line x1="615" y1="80" x2="615" y2="180" stroke="black" stroke-width="0.4" stroke-dasharray="2 3"/><line x1="720" y1="80" x2="720" y2="180" stroke="black" stroke-width="0.4" stroke-dasharray="2 3"/><line x1="90" y1="163.568" x2="720" y2="163.568" stroke="black" stroke-width="0.4" stroke-dasharray="2 3"/><line x1="90" y1="144.386" x2="720" y2="144.386" stroke="black" stroke-width="0.4" stroke-dasharray="2 3"/><line x1="90" y1="125.205" x2="720" y2="125.205" stroke="black" stroke-width="0.4" stroke-dasharray="2 3"/><line x1="90" y1="106.023" x2="720" y2="106.023" stroke="black" stroke-width="0.4" stroke-dasharray="2 3"/><line x1="90" y1="86.842" x2="720" y2="86.842" stroke="black" stroke-width="0.4" stroke-dasharray="2 3"/></g><defs><clipPath id="bland-clip-plot"><rect x="90" y="80" width="630" height="100"/></clipPath></defs><g clip-path="url(#bland-clip-plot)"><polyline points="90,86.897 100.5,86.911 111,86.929 121.5,86.951 132,86.98 142.5,87.015 153,87.06 163.5,87.117 174,87.188 184.5,87.278 195,87.391 205.5,87.533 216,87.712 226.5,87.938 237,88.222 247.5,88.579 258,89.028 268.5,89.593 279,90.304 289.5,91.197 300,92.318 310.5,93.723 321,95.479 331.5,97.664 342,100.365 352.5,103.672 363,107.661 373.5,112.372 384,117.772 394.5,123.729 405,130 415.5,136.271 426,142.228 436.5,147.628 447,152.339 457.5,156.328 468,159.635 478.5,162.336 489,164.521 499.5,166.277 510,167.682 520.5,168.803 531,169.696 541.5,170.407 552,170.972 562.5,171.421 573,171.778 583.5,172.062 594,172.288 604.5,172.467 615,172.609 625.5,172.722 636,172.812 646.5,172.883 657,172.94 667.5,172.985 678,173.02 688.5,173.049 699,173.071 709.5,173.089 720,173.103" fill="none" stroke="black" stroke-width="1.2" stroke-linecap="round" stroke-linejoin="round"/></g><rect x="90" y="80" width="630" height="100" fill="none" stroke="black" stroke-width="1"/><line x1="90" y1="180" x2="90" y2="176" stroke="black" stroke-width="1"/><text x="90" y="193" font-size="9" font-family="Times, &apos;Liberation Serif&apos;, serif" text-anchor="middle" fill="black">0.01</text><line x1="195" y1="180" x2="195" y2="176" stroke="black" stroke-width="1"/><text x="195" y="193" font-size="9" font-family="Times, &apos;Liberation Serif&apos;, serif" text-anchor="middle" fill="black">0.1</text><line x1="300" y1="180" x2="300" y2="176" stroke="black" stroke-width="1"/><text x="300" y="193" font-size="9" font-family="Times, &apos;Liberation Serif&apos;, serif" text-anchor="middle" fill="black">1</text><line x1="405" y1="180" x2="405" y2="176" stroke="black" stroke-width="1"/><text x="405" y="193" font-size="9" font-family="Times, &apos;Liberation Serif&apos;, serif" text-anchor="middle" fill="black">10</text><line x1="510" y1="180" x2="510" y2="176" stroke="black" stroke-width="1"/><text x="510" y="193" font-size="9" font-family="Times, &apos;Liberation Serif&apos;, serif" text-anchor="middle" fill="black">100</text><line x1="615" y1="180" x2="615" y2="176" stroke="black" stroke-width="1"/><text x="615" y="193" font-size="9" font-family="Times, &apos;Liberation Serif&apos;, serif" text-anchor="middle" fill="black">1000</text><line x1="720" y1="180" x2="720" y2="176" stroke="black" stroke-width="1"/><text x="720" y="193" font-size="9" font-family="Times, &apos;Liberation Serif&apos;, serif" text-anchor="middle" fill="black">10000</text><line x1="90" y1="163.568" x2="94" y2="163.568" stroke="black" stroke-width="1"/><text x="86" y="166.068" font-size="9" font-family="Times, &apos;Liberation Serif&apos;, serif" text-anchor="end" fill="black">-80</text><line x1="90" y1="144.386" x2="94" y2="144.386" stroke="black" stroke-width="1"/><text x="86" y="146.886" font-size="9" font-family="Times, &apos;Liberation Serif&apos;, serif" text-anchor="end" fill="black">-60</text><line x1="90" y1="125.205" x2="94" y2="125.205" stroke="black" stroke-width="1"/><text x="86" y="127.705" font-size="9" font-family="Times, &apos;Liberation Serif&apos;, serif" text-anchor="end" fill="black">-40</text><line x1="90" y1="106.023" x2="94" y2="106.023" stroke="black" stroke-width="1"/><text x="86" y="108.523" font-size="9" font-family="Times, &apos;Liberation Serif&apos;, serif" text-anchor="end" fill="black">-20</text><line x1="90" y1="86.842" x2="94" y2="86.842" stroke="black" stroke-width="1"/><text x="86" y="89.342" font-size="9" font-family="Times, &apos;Liberation Serif&apos;, serif" text-anchor="end" fill="black">0</text><text x="405" y="215" font-size="11" font-family="Times, &apos;Liberation Serif&apos;, serif" text-anchor="middle" fill="black" font-style="italic">ω [rad/s]</text><text x="46" y="130" font-size="11" font-family="Times, &apos;Liberation Serif&apos;, serif" text-anchor="middle" fill="black" font-style="italic" transform="rotate(-90 46 130)">∠H [°]</text></svg></svg>