<?xml version="1.0" encoding="UTF-8"?>
<svg xmlns="http://www.w3.org/2000/svg" viewBox="0 0 720 440" width="720" height="440" shape-rendering="geometricPrecision" font-family="Times, 'Liberation Serif', serif"><rect x="0" y="0" width="720" height="440" fill="white"/><rect x="12" y="12" width="696" height="416" fill="none" stroke="black" stroke-width="0.8"/><text x="375" y="42" font-size="14" font-family="Times, &apos;Liberation Serif&apos;, serif" text-anchor="middle" letter-spacing="0.05em" fill="black">DAMPED OSCILLATION</text><g opacity="0.7"><line x1="90" y1="80" x2="90" y2="360" stroke="black" stroke-width="0.4" stroke-dasharray="2 3"/><line x1="204" y1="80" x2="204" y2="360" stroke="black" stroke-width="0.4" stroke-dasharray="2 3"/><line x1="318" y1="80" x2="318" y2="360" stroke="black" stroke-width="0.4" stroke-dasharray="2 3"/><line x1="432" y1="80" x2="432" y2="360" stroke="black" stroke-width="0.4" stroke-dasharray="2 3"/><line x1="546" y1="80" x2="546" y2="360" stroke="black" stroke-width="0.4" stroke-dasharray="2 3"/><line x1="660" y1="80" x2="660" y2="360" stroke="black" stroke-width="0.4" stroke-dasharray="2 3"/><line x1="90" y1="347.273" x2="660" y2="347.273" stroke="black" stroke-width="0.4" stroke-dasharray="2 3"/><line x1="90" y1="283.636" x2="660" y2="283.636" stroke="black" stroke-width="0.4" stroke-dasharray="2 3"/><line x1="90" y1="220" x2="660" y2="220" stroke="black" stroke-width="0.4" stroke-dasharray="2 3"/><line x1="90" y1="156.364" x2="660" y2="156.364" stroke="black" stroke-width="0.4" stroke-dasharray="2 3"/><line x1="90" y1="92.727" x2="660" y2="92.727" stroke="black" stroke-width="0.4" stroke-dasharray="2 3"/></g><defs><clipPath id="bland-clip-plot"><rect x="90" y="80" width="570" height="280"/></clipPath></defs><g clip-path="url(#bland-clip-plot)"><polyline points="90,92.727 95.7,96.49 101.4,101.348 107.1,107.197 112.8,113.93 118.5,121.432 124.2,129.589 129.9,138.284 135.6,147.402 141.3,156.826 147,166.445 152.7,176.15 158.4,185.835 164.1,195.401 169.8,204.756 175.5,213.812 181.2,222.491 186.9,230.721 192.6,238.438 198.3,245.588 204,252.124 209.7,258.009 215.4,263.214 221.1,267.717 226.8,271.506 232.5,274.577 238.2,276.934 243.9,278.585 249.6,279.55 255.3,279.851 261,279.518 266.7,278.584 272.4,277.09 278.1,275.077 283.8,272.592 289.5,269.684 295.2,266.403 300.9,262.802 306.6,258.933 312.3,254.849 318,250.604 323.7,246.249 329.4,241.835 335.1,237.41 340.8,233.02 346.5,228.71 352.2,224.52 357.9,220.487 363.6,216.646 369.3,213.027 375,209.656 380.7,206.558 386.4,203.749 392.1,201.246 397.8,199.059 403.5,197.195 409.2,195.659 414.9,194.449 420.6,193.563 426.3,192.994 432,192.733 437.7,192.766 443.4,193.08 449.1,193.657 454.8,194.479 460.5,195.525 466.2,196.774 471.9,198.202 477.6,199.786 483.3,201.502 489,203.326 494.7,205.234 500.4,207.201 506.1,209.206 511.8,211.224 517.5,213.234 523.2,215.217 528.9,217.152 534.6,219.023 540.3,220.812 546,222.506 551.7,224.091 557.4,225.557 563.1,226.893 568.8,228.093 574.5,229.151 580.2,230.062 585.9,230.825 591.6,231.438 597.3,231.903 603,232.222 608.7,232.399 614.4,232.439 620.1,232.348 625.8,232.134 631.5,231.805 637.2,231.369 642.9,230.837 648.6,230.219 654.3,229.525 660,228.766" fill="none" stroke="black" stroke-width="1.2" stroke-linecap="round" stroke-linejoin="round"/><polyline points="90,92.727 95.7,95.87 101.4,98.934 107.1,101.924 112.8,104.839 118.5,107.682 124.2,110.455 129.9,113.16 135.6,115.798 141.3,118.371 147,120.88 152.7,123.327 158.4,125.714 164.1,128.042 169.8,130.312 175.5,132.527 181.2,134.687 186.9,136.793 192.6,138.847 198.3,140.851 204,142.805 209.7,144.711 215.4,146.57 221.1,148.383 226.8,150.151 232.5,151.876 238.2,153.558 243.9,155.198 249.6,156.798 255.3,158.359 261,159.881 266.7,161.365 272.4,162.813 278.1,164.225 283.8,165.602 289.5,166.945 295.2,168.255 300.9,169.532 306.6,170.778 312.3,171.994 318,173.179 323.7,174.335 329.4,175.462 335.1,176.562 340.8,177.635 346.5,178.681 352.2,179.701 357.9,180.696 363.6,181.666 369.3,182.613 375,183.536 380.7,184.436 386.4,185.314 392.1,186.171 397.8,187.006 403.5,187.82 409.2,188.615 414.9,189.39 420.6,190.146 426.3,190.883 432,191.602 437.7,192.303 443.4,192.987 449.1,193.654 454.8,194.304 460.5,194.939 466.2,195.557 471.9,196.161 477.6,196.749 483.3,197.323 489,197.883 494.7,198.429 500.4,198.962 506.1,199.481 511.8,199.988 517.5,200.482 523.2,200.964 528.9,201.434 534.6,201.892 540.3,202.339 546,202.776 551.7,203.201 557.4,203.616 563.1,204.02 568.8,204.415 574.5,204.799 580.2,205.175 585.9,205.541 591.6,205.898 597.3,206.246 603,206.586 608.7,206.917 614.4,207.24 620.1,207.555 625.8,207.862 631.5,208.162 637.2,208.454 642.9,208.739 648.6,209.017 654.3,209.288 660,209.553" fill="none" stroke="black" stroke-width="1.2" stroke-linecap="round" stroke-linejoin="round" stroke-dasharray="6 3"/><polyline points="90,347.273 95.7,344.13 101.4,341.066 107.1,338.076 112.8,335.161 118.5,332.318 124.2,329.545 129.9,326.84 135.6,324.202 141.3,321.629 147,319.12 152.7,316.673 158.4,314.286 164.1,311.958 169.8,309.688 175.5,307.473 181.2,305.313 186.9,303.207 192.6,301.153 198.3,299.149 204,297.195 209.7,295.289 215.4,293.43 221.1,291.617 226.8,289.849 232.5,288.124 238.2,286.442 243.9,284.802 249.6,283.202 255.3,281.641 261,280.119 266.7,278.635 272.4,277.187 278.1,275.775 283.8,274.398 289.5,273.055 295.2,271.745 300.9,270.468 306.6,269.222 312.3,268.006 318,266.821 323.7,265.665 329.4,264.538 335.1,263.438 340.8,262.365 346.5,261.319 352.2,260.299 357.9,259.304 363.6,258.334 369.3,257.387 375,256.464 380.7,255.564 386.4,254.686 392.1,253.829 397.8,252.994 403.5,252.18 409.2,251.385 414.9,250.61 420.6,249.854 426.3,249.117 432,248.398 437.7,247.697 443.4,247.013 449.1,246.346 454.8,245.696 460.5,245.061 466.2,244.443 471.9,243.839 477.6,243.251 483.3,242.677 489,242.117 494.7,241.571 500.4,241.038 506.1,240.519 511.8,240.012 517.5,239.518 523.2,239.036 528.9,238.566 534.6,238.108 540.3,237.661 546,237.224 551.7,236.799 557.4,236.384 563.1,235.98 568.8,235.585 574.5,235.201 580.2,234.825 585.9,234.459 591.6,234.102 597.3,233.754 603,233.414 608.7,233.083 614.4,232.76 620.1,232.445 625.8,232.138 631.5,231.838 637.2,231.546 642.9,231.261 648.6,230.983 654.3,230.712 660,230.447" fill="none" stroke="black" stroke-width="1.2" stroke-linecap="round" stroke-linejoin="round" stroke-dasharray="6 3"/><line x1="90" y1="220" x2="660" y2="220" stroke="black" stroke-width="1" stroke-dasharray="1 3"/></g><rect x="90" y="80" width="570" height="280" fill="none" stroke="black" stroke-width="1"/><line x1="90" y1="360" x2="90" y2="356" stroke="black" stroke-width="1"/><text x="90" y="373" font-size="9" font-family="Times, &apos;Liberation Serif&apos;, serif" text-anchor="middle" fill="black">0</text><line x1="204" y1="360" x2="204" y2="356" stroke="black" stroke-width="1"/><text x="204" y="373" font-size="9" font-family="Times, &apos;Liberation Serif&apos;, serif" text-anchor="middle" fill="black">2</text><line x1="318" y1="360" x2="318" y2="356" stroke="black" stroke-width="1"/><text x="318" y="373" font-size="9" font-family="Times, &apos;Liberation Serif&apos;, serif" text-anchor="middle" fill="black">4</text><line x1="432" y1="360" x2="432" y2="356" stroke="black" stroke-width="1"/><text x="432" y="373" font-size="9" font-family="Times, &apos;Liberation Serif&apos;, serif" text-anchor="middle" fill="black">6</text><line x1="546" y1="360" x2="546" y2="356" stroke="black" stroke-width="1"/><text x="546" y="373" font-size="9" font-family="Times, &apos;Liberation Serif&apos;, serif" text-anchor="middle" fill="black">8</text><line x1="660" y1="360" x2="660" y2="356" stroke="black" stroke-width="1"/><text x="660" y="373" font-size="9" font-family="Times, &apos;Liberation Serif&apos;, serif" text-anchor="middle" fill="black">10</text><line x1="90" y1="347.273" x2="94" y2="347.273" stroke="black" stroke-width="1"/><text x="86" y="349.773" font-size="9" font-family="Times, &apos;Liberation Serif&apos;, serif" text-anchor="end" fill="black">-1</text><line x1="90" y1="283.636" x2="94" y2="283.636" stroke="black" stroke-width="1"/><text x="86" y="286.136" font-size="9" font-family="Times, &apos;Liberation Serif&apos;, serif" text-anchor="end" fill="black">-0.5</text><line x1="90" y1="220" x2="94" y2="220" stroke="black" stroke-width="1"/><text x="86" y="222.5" font-size="9" font-family="Times, &apos;Liberation Serif&apos;, serif" text-anchor="end" fill="black">0</text><line x1="90" y1="156.364" x2="94" y2="156.364" stroke="black" stroke-width="1"/><text x="86" y="158.864" font-size="9" font-family="Times, &apos;Liberation Serif&apos;, serif" text-anchor="end" fill="black">0.5</text><line x1="90" y1="92.727" x2="94" y2="92.727" stroke="black" stroke-width="1"/><text x="86" y="95.227" font-size="9" font-family="Times, &apos;Liberation Serif&apos;, serif" text-anchor="end" fill="black">1</text><text x="375" y="395" font-size="11" font-family="Times, &apos;Liberation Serif&apos;, serif" text-anchor="middle" fill="black" font-style="italic">t [s]</text><text x="46" y="220" font-size="11" font-family="Times, &apos;Liberation Serif&apos;, serif" text-anchor="middle" fill="black" font-style="italic" transform="rotate(-90 46 220)">x(t)</text><rect x="524" y="88" width="128" height="44" fill="white" stroke="black" stroke-width="0.8"/><line x1="532" y1="102" x2="560" y2="102" stroke="black" stroke-width="1.2"/><text x="568" y="107" font-size="10" font-family="Times, &apos;Liberation Serif&apos;, serif" fill="black">signal</text><line x1="532" y1="118" x2="560" y2="118" stroke="black" stroke-width="1.2" stroke-dasharray="6 3"/><text x="568" y="123" font-size="10" font-family="Times, &apos;Liberation Serif&apos;, serif" fill="black">envelope</text></svg>