<?xml version="1.0" encoding="UTF-8"?>
<svg xmlns="http://www.w3.org/2000/svg" viewBox="0 0 560 560" width="560" height="560" shape-rendering="geometricPrecision" font-family="Times, 'Liberation Serif', serif"><rect x="0" y="0" width="560" height="560" fill="white"/><rect x="12" y="12" width="536" height="536" fill="none" stroke="black" stroke-width="0.8"/><text x="295" y="42" font-size="14" font-family="Times, &apos;Liberation Serif&apos;, serif" text-anchor="middle" letter-spacing="0.05em" fill="black">POLAR</text><defs><clipPath id="bland-clip-plot"><circle cx="295" cy="280" r="200"/></clipPath></defs><g clip-path="url(#bland-clip-plot)"><polyline points="346.25,280 346.18,277.383 345.969,274.774 345.619,272.178 345.13,269.604 344.504,267.059 343.742,264.549 342.846,262.082 341.819,259.663 340.664,257.3 339.384,255 337.982,252.768 336.462,250.611 334.829,248.534 333.086,246.543 331.239,244.645 329.293,242.843 327.253,241.143 325.124,239.549 322.913,238.066 320.625,236.699 318.267,235.45 315.845,234.323 313.366,233.321 310.837,232.447 308.264,231.704 305.655,231.093 303.017,230.616 300.357,230.274 297.682,230.069 295,230 292.318,230.069 289.643,230.274 286.983,230.616 284.345,231.093 281.736,231.704 279.163,232.447 276.634,233.321 274.155,234.323 271.733,235.45 269.375,236.699 267.087,238.066 264.876,239.549 262.747,241.143 260.707,242.843 258.761,244.645 256.914,246.543 255.171,248.534 253.538,250.611 252.018,252.768 250.616,255 249.336,257.3 248.181,259.663 247.154,262.082 246.258,264.549 245.496,267.059 244.87,269.604 244.381,272.178 244.031,274.774 243.82,277.383 243.75,280 243.82,282.617 244.031,285.226 244.381,287.822 244.87,290.396 245.496,292.941 246.258,295.451 247.154,297.918 248.181,300.337 249.336,302.7 250.616,305 252.018,307.232 253.538,309.389 255.171,311.466 256.914,313.457 258.761,315.355 260.707,317.157 262.747,318.857 264.876,320.451 267.087,321.934 269.375,323.301 271.733,324.55 274.155,325.677 276.634,326.679 279.163,327.553 281.736,328.296 284.345,328.907 286.983,329.384 289.643,329.726 292.318,329.931 295,330 297.682,329.931 300.357,329.726 303.017,329.384 305.655,328.907 308.264,328.296 310.837,327.553 313.366,326.679 315.845,325.677 318.267,324.55 320.625,323.301 322.913,321.934 325.124,320.451 327.253,318.857 329.293,317.157 331.239,315.355 333.086,313.457 334.829,311.466 336.462,309.389 337.982,307.232 339.384,305 340.664,302.7 341.819,300.337 342.846,297.918 343.742,295.451 344.504,292.941 345.13,290.396 345.619,287.822 345.969,285.226 346.18,282.617 346.25,280" fill="none" stroke="black" stroke-width="0.4" stroke-linecap="round" stroke-linejoin="round" stroke-dasharray="1 3"/><polyline points="397.5,280 397.36,274.766 396.938,269.547 396.238,264.357 395.26,259.209 394.007,254.118 392.483,249.098 390.692,244.163 388.638,239.326 386.328,234.601 383.768,230 380.964,225.536 377.924,221.221 374.657,217.068 371.172,213.087 367.478,209.289 363.586,205.686 359.505,202.285 355.248,199.098 350.826,196.133 346.25,193.397 341.534,190.899 336.691,188.645 331.733,186.642 326.674,184.894 321.529,183.407 316.311,182.185 311.035,181.231 305.714,180.548 300.364,180.137 295,180 289.636,180.137 284.286,180.548 278.965,181.231 273.689,182.185 268.471,183.407 263.326,184.894 258.267,186.642 253.309,188.645 248.466,190.899 243.75,193.397 239.174,196.133 234.752,199.098 230.495,202.285 226.414,205.686 222.522,209.289 218.828,213.087 215.343,217.068 212.076,221.221 209.036,225.536 206.232,230 203.672,234.601 201.362,239.326 199.308,244.163 197.517,249.098 195.993,254.118 194.74,259.209 193.762,264.357 193.062,269.547 192.64,274.766 192.5,280 192.64,285.234 193.062,290.453 193.762,295.643 194.74,300.791 195.993,305.882 197.517,310.902 199.308,315.837 201.362,320.674 203.672,325.399 206.232,330 209.036,334.464 212.076,338.779 215.343,342.932 218.828,346.913 222.522,350.711 226.414,354.314 230.495,357.715 234.752,360.902 239.174,363.867 243.75,366.603 248.466,369.101 253.309,371.355 258.267,373.358 263.326,375.106 268.471,376.593 273.689,377.815 278.965,378.769 284.286,379.452 289.636,379.863 295,380 300.364,379.863 305.714,379.452 311.035,378.769 316.311,377.815 321.529,376.593 326.674,375.106 331.733,373.358 336.691,371.355 341.534,369.101 346.25,366.603 350.826,363.867 355.248,360.902 359.505,357.715 363.586,354.314 367.478,350.711 371.172,346.913 374.657,342.932 377.924,338.779 380.964,334.464 383.768,330 386.328,325.399 388.638,320.674 390.692,315.837 392.483,310.902 394.007,305.882 395.26,300.791 396.238,295.643 396.938,290.453 397.36,285.234 397.5,280" fill="none" stroke="black" stroke-width="0.4" stroke-linecap="round" stroke-linejoin="round" stroke-dasharray="1 3"/><polyline points="448.75,280 448.539,272.15 447.908,264.321 446.857,256.535 445.39,248.813 443.511,241.177 441.225,233.647 438.538,226.245 435.458,218.99 431.992,211.901 428.151,205 423.946,198.304 419.386,191.832 414.486,185.602 409.259,179.63 403.718,173.934 397.879,168.528 391.758,163.428 385.372,158.647 378.738,154.199 371.875,150.096 364.801,146.349 357.536,142.968 350.099,139.963 342.511,137.342 334.793,135.111 326.966,133.278 319.052,131.847 311.071,130.822 303.047,130.206 295,130 286.953,130.206 278.929,130.822 270.948,131.847 263.034,133.278 255.207,135.111 247.489,137.342 239.901,139.963 232.464,142.968 225.199,146.349 218.125,150.096 211.262,154.199 204.628,158.647 198.242,163.428 192.121,168.528 186.282,173.934 180.741,179.63 175.514,185.602 170.614,191.832 166.054,198.304 161.849,205 158.008,211.901 154.542,218.99 151.462,226.245 148.775,233.647 146.489,241.177 144.61,248.813 143.143,256.535 142.092,264.321 141.461,272.15 141.25,280 141.461,287.85 142.092,295.679 143.143,303.465 144.61,311.187 146.489,318.823 148.775,326.353 151.462,333.755 154.542,341.01 158.008,348.099 161.849,355 166.054,361.696 170.614,368.168 175.514,374.398 180.741,380.37 186.282,386.066 192.121,391.472 198.242,396.572 204.628,401.353 211.262,405.801 218.125,409.904 225.199,413.651 232.464,417.032 239.901,420.037 247.489,422.658 255.207,424.889 263.034,426.722 270.948,428.153 278.929,429.178 286.953,429.794 295,430 303.047,429.794 311.071,429.178 319.052,428.153 326.966,426.722 334.793,424.889 342.511,422.658 350.099,420.037 357.536,417.032 364.801,413.651 371.875,409.904 378.738,405.801 385.372,401.353 391.758,396.572 397.879,391.472 403.718,386.066 409.259,380.37 414.486,374.398 419.386,368.168 423.946,361.696 428.151,355 431.992,348.099 435.458,341.01 438.538,333.755 441.225,326.353 443.511,318.823 445.39,311.187 446.857,303.465 447.908,295.679 448.539,287.85 448.75,280" fill="none" stroke="black" stroke-width="0.4" stroke-linecap="round" stroke-linejoin="round" stroke-dasharray="1 3"/><polyline points="500,280 499.719,269.533 498.877,259.094 497.476,248.713 495.52,238.418 493.015,228.236 489.967,218.197 486.384,208.326 482.277,198.653 477.656,189.202 472.535,180 466.927,171.072 460.848,162.443 454.315,154.136 447.345,146.174 439.957,138.579 432.172,131.371 424.011,124.571 415.496,118.197 406.651,112.266 397.5,106.795 388.068,101.799 378.381,97.291 368.465,93.284 358.348,89.789 348.058,86.815 337.622,84.37 327.069,82.462 316.428,81.096 305.729,80.274 295,80 284.271,80.274 273.572,81.096 262.931,82.462 252.378,84.37 241.942,86.815 231.652,89.789 221.535,93.284 211.619,97.291 201.932,101.799 192.5,106.795 183.349,112.266 174.504,118.197 165.989,124.571 157.828,131.371 150.043,138.579 142.655,146.174 135.685,154.136 129.152,162.443 123.073,171.072 117.465,180 112.344,189.202 107.723,198.653 103.616,208.326 100.033,218.197 96.985,228.236 94.48,238.418 92.524,248.713 91.123,259.094 90.281,269.533 90,280 90.281,290.467 91.123,300.906 92.524,311.287 94.48,321.582 96.985,331.764 100.033,341.803 103.616,351.674 107.723,361.347 112.344,370.798 117.465,380 123.073,388.928 129.152,397.557 135.685,405.864 142.655,413.826 150.043,421.421 157.828,428.629 165.989,435.429 174.504,441.803 183.349,447.734 192.5,453.205 201.932,458.201 211.619,462.709 221.535,466.716 231.652,470.211 241.942,473.185 252.378,475.63 262.931,477.538 273.572,478.904 284.271,479.726 295,480 305.729,479.726 316.428,478.904 327.069,477.538 337.622,475.63 348.058,473.185 358.348,470.211 368.465,466.716 378.381,462.709 388.068,458.201 397.5,453.205 406.651,447.734 415.496,441.803 424.011,435.429 432.172,428.629 439.957,421.421 447.345,413.826 454.315,405.864 460.848,397.557 466.927,388.928 472.535,380 477.656,370.798 482.277,361.347 486.384,351.674 489.967,341.803 493.015,331.764 495.52,321.582 497.476,311.287 498.877,300.906 499.719,290.467 500,280" fill="none" stroke="black" stroke-width="0.4" stroke-linecap="round" stroke-linejoin="round" stroke-dasharray="1 3"/><polyline points="295,280 500,280" fill="none" stroke="black" stroke-width="0.4" stroke-linecap="round" stroke-linejoin="round" stroke-dasharray="1 3"/><polyline points="295,280 472.535,180" fill="none" stroke="black" stroke-width="0.4" stroke-linecap="round" stroke-linejoin="round" stroke-dasharray="1 3"/><polyline points="295,280 397.5,106.795" fill="none" stroke="black" stroke-width="0.4" stroke-linecap="round" stroke-linejoin="round" stroke-dasharray="1 3"/><polyline points="295,280 295,80" fill="none" stroke="black" stroke-width="0.4" stroke-linecap="round" stroke-linejoin="round" stroke-dasharray="1 3"/><polyline points="295,280 192.5,106.795" fill="none" stroke="black" stroke-width="0.4" stroke-linecap="round" stroke-linejoin="round" stroke-dasharray="1 3"/><polyline points="295,280 117.465,180" fill="none" stroke="black" stroke-width="0.4" stroke-linecap="round" stroke-linejoin="round" stroke-dasharray="1 3"/><polyline points="295,280 90,280" fill="none" stroke="black" stroke-width="0.4" stroke-linecap="round" stroke-linejoin="round" stroke-dasharray="1 3"/><polyline points="295,280 117.465,380" fill="none" stroke="black" stroke-width="0.4" stroke-linecap="round" stroke-linejoin="round" stroke-dasharray="1 3"/><polyline points="295,280 192.5,453.205" fill="none" stroke="black" stroke-width="0.4" stroke-linecap="round" stroke-linejoin="round" stroke-dasharray="1 3"/><polyline points="295,280 295,480" fill="none" stroke="black" stroke-width="0.4" stroke-linecap="round" stroke-linejoin="round" stroke-dasharray="1 3"/><polyline points="295,280 397.5,453.205" fill="none" stroke="black" stroke-width="0.4" stroke-linecap="round" stroke-linejoin="round" stroke-dasharray="1 3"/><polyline points="295,280 472.535,380" fill="none" stroke="black" stroke-width="0.4" stroke-linecap="round" stroke-linejoin="round" stroke-dasharray="1 3"/><polyline points="500,280 499.953,276.51 499.813,273.022 499.579,269.54 499.252,266.066 498.831,262.602 498.319,259.152 497.714,255.717 497.017,252.301 496.23,248.906 495.352,245.534 494.385,242.189 493.329,238.872 492.186,235.586 490.956,232.334 489.641,229.118 488.242,225.94 486.759,222.803 485.195,219.709 483.551,216.66 481.828,213.659 480.028,210.707 478.153,207.806 476.203,204.96 474.181,202.169 472.089,199.436 469.929,196.762 467.702,194.15 465.411,191.601 463.057,189.117 460.643,186.699 458.17,184.349 455.641,182.068 453.059,179.859 450.425,177.722 447.742,175.658 445.011,173.669 442.237,171.755 439.42,169.919 436.563,168.161 433.669,166.481 430.74,164.881 427.779,163.361 424.789,161.922 421.771,160.565 418.728,159.289 415.664,158.096 412.58,156.986 409.479,155.959 406.363,155.016 403.236,154.155 400.1,153.378 396.957,152.684 393.81,152.073 390.661,151.545 387.513,151.1 384.369,150.737 381.23,150.456 378.1,150.255 374.981,150.136 371.875,150.096 368.785,150.136 365.712,150.253 362.66,150.448 359.63,150.72 356.626,151.067 353.648,151.488 350.699,151.983 347.781,152.549 344.897,153.185 342.047,153.891 339.235,154.665 336.462,155.505 333.73,156.41 331.04,157.378 328.395,158.407 325.796,159.497 323.244,160.644 320.742,161.848 318.29,163.107 315.89,164.418 313.543,165.78 311.251,167.191 309.014,168.649 306.834,170.152 304.712,171.698 302.649,173.285 300.645,174.911 298.702,176.573 296.82,178.27 295,180 293.242,181.76 291.548,183.549 289.916,185.363 288.349,187.202 286.845,189.063 285.406,190.943 284.031,192.841 282.72,194.755 281.474,196.682 280.292,198.62 279.174,200.568 278.12,202.522 277.129,204.482 276.202,206.444 275.337,208.407 274.535,210.37 273.794,212.329 273.114,214.284 272.494,216.231 271.933,218.17 271.431,220.098 270.987,222.015 270.599,223.917 270.267,225.803 269.989,227.671 269.764,229.521 269.592,231.35 269.471,233.157 269.399,234.94 269.375,236.699 269.398,238.431 269.467,240.135 269.579,241.81 269.734,243.455 269.93,245.069 270.165,246.651 270.438,248.2 270.746,249.714 271.089,251.193 271.465,252.636 271.871,254.042 272.307,255.412 272.77,256.743 273.259,258.036 273.772,259.289 274.306,260.504 274.861,261.678 275.435,262.813 276.025,263.908 276.63,264.962 277.248,265.975 277.877,266.949 278.516,267.882 279.163,268.774 279.815,269.627 280.472,270.44 281.132,271.213 281.792,271.948 282.451,272.644 283.107,273.301 283.76,273.921 284.407,274.505 285.046,275.052 285.676,275.563 286.296,276.04 286.905,276.484 287.499,276.894 288.08,277.272 288.644,277.62 289.191,277.937 289.72,278.226 290.229,278.488 290.717,278.722 291.183,278.932 291.626,279.118 292.046,279.281 292.44,279.423 292.809,279.546 293.151,279.649 293.466,279.736 293.754,279.807 294.012,279.865 294.242,279.909 294.442,279.943 294.611,279.967 294.751,279.983 294.86,279.993 294.938,279.998 294.984,280 295,280 294.984,280 294.938,280.002 294.86,280.007 294.751,280.017 294.611,280.033 294.442,280.057 294.242,280.091 294.012,280.135 293.754,280.193 293.466,280.264 293.151,280.351 292.809,280.454 292.44,280.577 292.046,280.719 291.626,280.882 291.183,281.068 290.717,281.278 290.229,281.512 289.72,281.774 289.191,282.063 288.644,282.38 288.08,282.728 287.499,283.106 286.905,283.516 286.296,283.96 285.676,284.437 285.046,284.948 284.407,285.495 283.76,286.079 283.107,286.699 282.451,287.356 281.792,288.052 281.132,288.787 280.472,289.56 279.815,290.373 279.163,291.226 278.516,292.118 277.877,293.051 277.248,294.025 276.63,295.038 276.025,296.092 275.435,297.187 274.861,298.322 274.306,299.496 273.772,300.711 273.259,301.964 272.77,303.257 272.307,304.588 271.871,305.958 271.465,307.364 271.089,308.807 270.746,310.286 270.438,311.8 270.165,313.349 269.93,314.931 269.734,316.545 269.579,318.19 269.467,319.865 269.398,321.569 269.375,323.301 269.399,325.06 269.471,326.843 269.592,328.65 269.764,330.479 269.989,332.329 270.267,334.197 270.599,336.083 270.987,337.985 271.431,339.902 271.933,341.83 272.494,343.769 273.114,345.716 273.794,347.671 274.535,349.63 275.337,351.593 276.202,353.556 277.129,355.518 278.12,357.478 279.174,359.432 280.292,361.38 281.474,363.318 282.72,365.245 284.031,367.159 285.406,369.057 286.845,370.937 288.349,372.798 289.916,374.637 291.548,376.451 293.242,378.24 295,380 296.82,381.73 298.702,383.427 300.645,385.089 302.649,386.715 304.712,388.302 306.834,389.848 309.014,391.351 311.251,392.809 313.543,394.22 315.89,395.582 318.29,396.893 320.742,398.152 323.244,399.356 325.796,400.503 328.395,401.593 331.04,402.622 333.73,403.59 336.462,404.495 339.235,405.335 342.047,406.109 344.897,406.815 347.781,407.451 350.699,408.017 353.648,408.512 356.626,408.933 359.63,409.28 362.66,409.552 365.712,409.747 368.785,409.864 371.875,409.904 374.981,409.864 378.1,409.745 381.23,409.544 384.369,409.263 387.513,408.9 390.661,408.455 393.81,407.927 396.957,407.316 400.1,406.622 403.236,405.845 406.363,404.984 409.479,404.041 412.58,403.014 415.664,401.904 418.728,400.711 421.771,399.435 424.789,398.078 427.779,396.639 430.74,395.119 433.669,393.519 436.563,391.839 439.42,390.081 442.237,388.245 445.011,386.331 447.742,384.342 450.425,382.278 453.059,380.141 455.641,377.932 458.17,375.651 460.643,373.301 463.057,370.883 465.411,368.399 467.702,365.85 469.929,363.238 472.089,360.564 474.181,357.831 476.203,355.04 478.153,352.194 480.028,349.293 481.828,346.341 483.551,343.34 485.195,340.291 486.759,337.197 488.242,334.06 489.641,330.882 490.956,327.666 492.186,324.414 493.329,321.128 494.385,317.811 495.352,314.466 496.23,311.094 497.017,307.699 497.714,304.283 498.319,300.848 498.831,297.398 499.252,293.934 499.579,290.46 499.813,286.978 499.953,283.49 500,280" fill="none" stroke="black" stroke-width="1.2" stroke-linecap="round" stroke-linejoin="round"/><polyline points="479.5,280 479.219,276.863 478.378,273.753 476.979,270.696 475.029,267.718 472.535,264.847 469.509,262.106 465.962,259.521 461.909,257.115 457.367,254.911 452.354,252.931 446.892,251.195 441.002,249.723 434.709,248.532 428.037,247.639 421.016,247.058 413.672,246.801 406.036,246.881 398.139,247.306 390.011,248.083 381.687,249.218 373.198,250.715 364.579,252.574 355.863,254.795 347.085,257.376 338.278,260.311 329.477,263.594 320.716,267.216 312.028,271.167 303.445,275.433 295,280 303.277,275.148 311.355,270.03 319.206,264.664 326.802,259.073 334.116,253.279 341.125,247.306 347.805,241.179 354.135,234.926 360.095,228.573 365.668,222.149 370.838,215.683 375.591,209.205 379.917,202.745 383.806,196.333 387.25,190 390.245,183.777 392.787,177.694 394.877,171.781 396.515,166.069 397.706,160.585 398.454,155.36 398.769,150.421 398.66,145.794 398.139,141.504 397.219,137.577 395.917,134.034 394.249,130.898 392.235,128.188 389.894,125.921 387.25,124.115 384.325,122.784 381.143,121.94 377.73,121.593 374.112,121.752 370.316,122.423 366.37,123.61 362.302,125.314 358.14,127.536 353.912,130.271 349.649,133.516 345.377,137.264 341.125,141.504 336.921,146.226 332.793,151.416 328.766,157.058 324.866,163.134 321.119,169.626 317.547,176.511 314.174,183.766 311.019,191.367 308.103,199.288 305.444,207.5 303.058,215.975 300.96,224.682 299.162,233.59 297.676,242.667 296.511,251.88 295.673,261.196 295.169,270.581 295,280 294.831,270.581 294.327,261.196 293.489,251.88 292.324,242.667 290.838,233.59 289.04,224.682 286.942,215.975 284.556,207.5 281.897,199.288 278.981,191.367 275.826,183.766 272.453,176.511 268.881,169.626 265.134,163.134 261.234,157.058 257.207,151.416 253.079,146.226 248.875,141.504 244.623,137.264 240.351,133.516 236.088,130.271 231.86,127.536 227.698,125.314 223.63,123.61 219.684,122.423 215.888,121.752 212.27,121.593 208.857,121.94 205.675,122.784 202.75,124.115 200.106,125.921 197.765,128.188 195.751,130.898 194.083,134.034 192.781,137.577 191.861,141.504 191.34,145.794 191.231,150.421 191.546,155.36 192.294,160.585 193.485,166.069 195.123,171.781 197.213,177.694 199.755,183.777 202.75,190 206.194,196.333 210.083,202.745 214.409,209.205 219.162,215.683 224.332,222.149 229.905,228.573 235.865,234.926 242.195,241.179 248.875,247.306 255.884,253.279 263.198,259.073 270.794,264.664 278.645,270.03 286.723,275.148 295,280 286.555,275.433 277.972,271.167 269.284,267.216 260.523,263.594 251.722,260.311 242.915,257.376 234.137,254.795 225.421,252.574 216.802,250.715 208.313,249.218 199.989,248.083 191.861,247.306 183.964,246.881 176.328,246.801 168.984,247.058 161.963,247.639 155.291,248.532 148.998,249.723 143.108,251.195 137.646,252.931 132.633,254.911 128.091,257.115 124.038,259.521 120.491,262.106 117.465,264.847 114.971,267.718 113.021,270.696 111.622,273.753 110.781,276.863 110.5,280 110.781,283.137 111.622,286.247 113.021,289.304 114.971,292.282 117.465,295.153 120.491,297.894 124.038,300.479 128.091,302.885 132.633,305.089 137.646,307.069 143.108,308.805 148.998,310.277 155.291,311.468 161.963,312.361 168.984,312.942 176.328,313.199 183.964,313.119 191.861,312.694 199.989,311.917 208.313,310.782 216.802,309.285 225.421,307.426 234.137,305.205 242.915,302.624 251.722,299.689 260.523,296.406 269.284,292.784 277.972,288.833 286.555,284.567 295,280 286.723,284.852 278.645,289.97 270.794,295.336 263.198,300.927 255.884,306.721 248.875,312.694 242.195,318.821 235.865,325.074 229.905,331.427 224.332,337.851 219.162,344.317 214.409,350.795 210.083,357.255 206.194,363.667 202.75,370 199.755,376.223 197.213,382.306 195.123,388.219 193.485,393.931 192.294,399.415 191.546,404.64 191.231,409.579 191.34,414.206 191.861,418.496 192.781,422.423 194.083,425.966 195.751,429.102 197.765,431.812 200.106,434.079 202.75,435.885 205.675,437.216 208.857,438.06 212.27,438.407 215.888,438.248 219.684,437.577 223.63,436.39 227.698,434.686 231.86,432.464 236.088,429.729 240.351,426.484 244.623,422.736 248.875,418.496 253.079,413.774 257.207,408.584 261.234,402.942 265.134,396.866 268.881,390.374 272.453,383.489 275.826,376.234 278.981,368.633 281.897,360.712 284.556,352.5 286.942,344.025 289.04,335.318 290.838,326.41 292.324,317.333 293.489,308.12 294.327,298.804 294.831,289.419 295,280 295.169,289.419 295.673,298.804 296.511,308.12 297.676,317.333 299.162,326.41 300.96,335.318 303.058,344.025 305.444,352.5 308.103,360.712 311.019,368.633 314.174,376.234 317.547,383.489 321.119,390.374 324.866,396.866 328.766,402.942 332.793,408.584 336.921,413.774 341.125,418.496 345.377,422.736 349.649,426.484 353.912,429.729 358.14,432.464 362.302,434.686 366.37,436.39 370.316,437.577 374.112,438.248 377.73,438.407 381.143,438.06 384.325,437.216 387.25,435.885 389.894,434.079 392.235,431.812 394.249,429.102 395.917,425.966 397.219,422.423 398.139,418.496 398.66,414.206 398.769,409.579 398.454,404.64 397.706,399.415 396.515,393.931 394.877,388.219 392.787,382.306 390.245,376.223 387.25,370 383.806,363.667 379.917,357.255 375.591,350.795 370.838,344.317 365.668,337.851 360.095,331.427 354.135,325.074 347.805,318.821 341.125,312.694 334.116,306.721 326.802,300.927 319.206,295.336 311.355,289.97 303.277,284.852 295,280 303.445,284.567 312.028,288.833 320.716,292.784 329.477,296.406 338.278,299.689 347.085,302.624 355.863,305.205 364.579,307.426 373.198,309.285 381.687,310.782 390.011,311.917 398.139,312.694 406.036,313.119 413.672,313.199 421.016,312.942 428.037,312.361 434.709,311.468 441.002,310.277 446.892,308.805 452.354,307.069 457.367,305.089 461.909,302.885 465.962,300.479 469.509,297.894 472.535,295.153 475.029,292.282 476.979,289.304 478.378,286.247 479.219,283.137 479.5,280" fill="none" stroke="black" stroke-width="1.2" stroke-linecap="round" stroke-linejoin="round" stroke-dasharray="6 3"/></g><rect x="364" y="88" width="128" height="44" fill="white" stroke="black" stroke-width="0.8"/><line x1="372" y1="102" x2="400" y2="102" stroke="black" stroke-width="1.2"/><text x="408" y="107" font-size="10" font-family="Times, &apos;Liberation Serif&apos;, serif" fill="black">cardioid</text><line x1="372" y1="118" x2="400" y2="118" stroke="black" stroke-width="1.2" stroke-dasharray="6 3"/><text x="408" y="123" font-size="10" font-family="Times, &apos;Liberation Serif&apos;, serif" fill="black">|cos 3θ|</text><text x="514.35" y="280" font-size="9" font-family="Times, &apos;Liberation Serif&apos;, serif" fill="black" stroke="white" stroke-width="3" stroke-linejoin="round" paint-order="stroke" text-anchor="middle">0°</text><text x="484.963" y="173" font-size="9" font-family="Times, &apos;Liberation Serif&apos;, serif" fill="black" stroke="white" stroke-width="3" stroke-linejoin="round" paint-order="stroke" text-anchor="middle">30°</text><text x="404.675" y="94.671" font-size="9" font-family="Times, &apos;Liberation Serif&apos;, serif" fill="black" stroke="white" stroke-width="3" stroke-linejoin="round" paint-order="stroke" text-anchor="middle">60°</text><text x="295" y="66" font-size="9" font-family="Times, &apos;Liberation Serif&apos;, serif" fill="black" stroke="white" stroke-width="3" stroke-linejoin="round" paint-order="stroke" text-anchor="middle">90°</text><text x="185.325" y="94.671" font-size="9" font-family="Times, &apos;Liberation Serif&apos;, serif" fill="black" stroke="white" stroke-width="3" stroke-linejoin="round" paint-order="stroke" text-anchor="middle">120°</text><text x="105.037" y="173" font-size="9" font-family="Times, &apos;Liberation Serif&apos;, serif" fill="black" stroke="white" stroke-width="3" stroke-linejoin="round" paint-order="stroke" text-anchor="middle">150°</text><text x="75.65" y="280" font-size="9" font-family="Times, &apos;Liberation Serif&apos;, serif" fill="black" stroke="white" stroke-width="3" stroke-linejoin="round" paint-order="stroke" text-anchor="middle">180°</text><text x="105.037" y="387" font-size="9" font-family="Times, &apos;Liberation Serif&apos;, serif" fill="black" stroke="white" stroke-width="3" stroke-linejoin="round" paint-order="stroke" text-anchor="middle">210°</text><text x="185.325" y="465.329" font-size="9" font-family="Times, &apos;Liberation Serif&apos;, serif" fill="black" stroke="white" stroke-width="3" stroke-linejoin="round" paint-order="stroke" text-anchor="middle">240°</text><text x="295" y="494" font-size="9" font-family="Times, &apos;Liberation Serif&apos;, serif" fill="black" stroke="white" stroke-width="3" stroke-linejoin="round" paint-order="stroke" text-anchor="middle">270°</text><text x="404.675" y="465.329" font-size="9" font-family="Times, &apos;Liberation Serif&apos;, serif" fill="black" stroke="white" stroke-width="3" stroke-linejoin="round" paint-order="stroke" text-anchor="middle">300°</text><text x="484.963" y="387" font-size="9" font-family="Times, &apos;Liberation Serif&apos;, serif" fill="black" stroke="white" stroke-width="3" stroke-linejoin="round" paint-order="stroke" text-anchor="middle">330°</text></svg>