<?xml version="1.0" encoding="UTF-8"?>
<svg xmlns="http://www.w3.org/2000/svg" viewBox="0 0 794 559" width="794" height="559" shape-rendering="geometricPrecision" font-family="Times, 'Liberation Serif', serif"><rect x="0" y="0" width="794" height="559" fill="white"/><rect x="12" y="12" width="770" height="535" fill="none" stroke="black" stroke-width="0.8"/><text x="412" y="42" font-size="14" font-family="Times, &apos;Liberation Serif&apos;, serif" text-anchor="middle" letter-spacing="0.05em" fill="black">FIGURE 1 — DAMPED RESPONSE</text><g opacity="0.7"><line x1="90" y1="80" x2="90" y2="401" stroke="black" stroke-width="0.4" stroke-dasharray="2 3"/><line x1="218.8" y1="80" x2="218.8" y2="401" stroke="black" stroke-width="0.4" stroke-dasharray="2 3"/><line x1="347.6" y1="80" x2="347.6" y2="401" stroke="black" stroke-width="0.4" stroke-dasharray="2 3"/><line x1="476.4" y1="80" x2="476.4" y2="401" stroke="black" stroke-width="0.4" stroke-dasharray="2 3"/><line x1="605.2" y1="80" x2="605.2" y2="401" stroke="black" stroke-width="0.4" stroke-dasharray="2 3"/><line x1="734" y1="80" x2="734" y2="401" stroke="black" stroke-width="0.4" stroke-dasharray="2 3"/><line x1="90" y1="386.409" x2="734" y2="386.409" stroke="black" stroke-width="0.4" stroke-dasharray="2 3"/><line x1="90" y1="313.455" x2="734" y2="313.455" stroke="black" stroke-width="0.4" stroke-dasharray="2 3"/><line x1="90" y1="240.5" x2="734" y2="240.5" stroke="black" stroke-width="0.4" stroke-dasharray="2 3"/><line x1="90" y1="167.545" x2="734" y2="167.545" stroke="black" stroke-width="0.4" stroke-dasharray="2 3"/><line x1="90" y1="94.591" x2="734" y2="94.591" stroke="black" stroke-width="0.4" stroke-dasharray="2 3"/></g><defs><clipPath id="bland-clip-plot"><rect x="90" y="80" width="644" height="321"/></clipPath></defs><g clip-path="url(#bland-clip-plot)"><polyline points="90,94.591 96.44,98.904 102.88,104.474 109.32,111.18 115.76,118.898 122.2,127.499 128.64,136.85 135.08,146.819 141.52,157.271 147.96,168.076 154.4,179.103 160.84,190.229 167.28,201.332 173.72,212.299 180.16,223.024 186.6,233.406 193.04,243.356 199.48,252.791 205.92,261.638 212.36,269.835 218.8,277.328 225.24,284.075 231.68,290.041 238.12,295.204 244.56,299.548 251,303.069 257.44,305.77 263.88,307.664 270.32,308.77 276.76,309.115 283.2,308.733 289.64,307.663 296.08,305.949 302.52,303.642 308.96,300.793 315.4,297.459 321.84,293.698 328.28,289.569 334.72,285.134 341.16,280.452 347.6,275.586 354.04,270.593 360.48,265.532 366.92,260.459 373.36,255.427 379.8,250.485 386.24,245.681 392.68,241.058 399.12,236.655 405.56,232.506 412,228.642 418.44,225.089 424.88,221.869 431.32,219 437.76,216.492 444.2,214.356 450.64,212.595 457.08,211.208 463.52,210.192 469.96,209.54 476.4,209.24 482.84,209.278 489.28,209.638 495.72,210.3 502.16,211.242 508.6,212.441 515.04,213.873 521.48,215.51 527.92,217.326 534.36,219.294 540.8,221.385 547.24,223.572 553.68,225.827 560.12,228.125 566.56,230.439 573,232.744 579.44,235.017 585.88,237.235 592.32,239.38 598.76,241.431 605.2,243.373 611.64,245.19 618.08,246.871 624.52,248.403 630.96,249.778 637.4,250.991 643.84,252.036 650.28,252.91 656.72,253.613 663.16,254.146 669.6,254.512 676.04,254.715 682.48,254.761 688.92,254.657 695.36,254.411 701.8,254.033 708.24,253.534 714.68,252.924 721.12,252.215 727.56,251.419 734,250.55" fill="none" stroke="black" stroke-width="1.2" stroke-linecap="round" stroke-linejoin="round"/><polyline points="90,94.591 96.44,98.193 102.88,101.707 109.32,105.134 115.76,108.476 122.2,111.736 128.64,114.915 135.08,118.016 141.52,121.04 147.96,123.989 154.4,126.866 160.84,129.672 167.28,132.408 173.72,135.077 180.16,137.68 186.6,140.218 193.04,142.694 199.48,145.109 205.92,147.464 212.36,149.761 218.8,152.002 225.24,154.187 231.68,156.318 238.12,158.396 244.56,160.423 251,162.4 257.44,164.329 263.88,166.209 270.32,168.044 276.76,169.833 283.2,171.577 289.64,173.279 296.08,174.939 302.52,176.558 308.96,178.136 315.4,179.676 321.84,181.178 328.28,182.642 334.72,184.071 341.16,185.464 347.6,186.823 354.04,188.148 360.48,189.441 366.92,190.702 373.36,191.931 379.8,193.13 386.24,194.3 392.68,195.441 399.12,196.553 405.56,197.638 412,198.696 418.44,199.728 424.88,200.735 431.32,201.717 437.76,202.674 444.2,203.608 450.64,204.519 457.08,205.408 463.52,206.274 469.96,207.119 476.4,207.943 482.84,208.747 489.28,209.531 495.72,210.296 502.16,211.041 508.6,211.769 515.04,212.478 521.48,213.17 527.92,213.845 534.36,214.503 540.8,215.145 547.24,215.771 553.68,216.381 560.12,216.977 566.56,217.558 573,218.124 579.44,218.677 585.88,219.215 592.32,219.741 598.76,220.253 605.2,220.753 611.64,221.241 618.08,221.716 624.52,222.18 630.96,222.632 637.4,223.074 643.84,223.504 650.28,223.924 656.72,224.333 663.16,224.732 669.6,225.121 676.04,225.501 682.48,225.871 688.92,226.233 695.36,226.585 701.8,226.928 708.24,227.263 714.68,227.59 721.12,227.909 727.56,228.22 734,228.523" fill="none" stroke="black" stroke-width="1.2" stroke-linecap="round" stroke-linejoin="round" stroke-dasharray="6 3"/><polyline points="90,386.409 96.44,382.807 102.88,379.293 109.32,375.866 115.76,372.524 122.2,369.264 128.64,366.085 135.08,362.984 141.52,359.96 147.96,357.011 154.4,354.134 160.84,351.328 167.28,348.592 173.72,345.923 180.16,343.32 186.6,340.782 193.04,338.306 199.48,335.891 205.92,333.536 212.36,331.239 218.8,328.998 225.24,326.813 231.68,324.682 238.12,322.604 244.56,320.577 251,318.6 257.44,316.671 263.88,314.791 270.32,312.956 276.76,311.167 283.2,309.423 289.64,307.721 296.08,306.061 302.52,304.442 308.96,302.864 315.4,301.324 321.84,299.822 328.28,298.358 334.72,296.929 341.16,295.536 347.6,294.177 354.04,292.852 360.48,291.559 366.92,290.298 373.36,289.069 379.8,287.87 386.24,286.7 392.68,285.559 399.12,284.447 405.56,283.362 412,282.304 418.44,281.272 424.88,280.265 431.32,279.283 437.76,278.326 444.2,277.392 450.64,276.481 457.08,275.592 463.52,274.726 469.96,273.881 476.4,273.057 482.84,272.253 489.28,271.469 495.72,270.704 502.16,269.959 508.6,269.231 515.04,268.522 521.48,267.83 527.92,267.155 534.36,266.497 540.8,265.855 547.24,265.229 553.68,264.619 560.12,264.023 566.56,263.442 573,262.876 579.44,262.323 585.88,261.785 592.32,261.259 598.76,260.747 605.2,260.247 611.64,259.759 618.08,259.284 624.52,258.82 630.96,258.368 637.4,257.926 643.84,257.496 650.28,257.076 656.72,256.667 663.16,256.268 669.6,255.879 676.04,255.499 682.48,255.129 688.92,254.767 695.36,254.415 701.8,254.072 708.24,253.737 714.68,253.41 721.12,253.091 727.56,252.78 734,252.477" fill="none" stroke="black" stroke-width="1.2" stroke-linecap="round" stroke-linejoin="round" stroke-dasharray="6 3"/><line x1="90" y1="240.5" x2="734" y2="240.5" stroke="black" stroke-width="1" stroke-dasharray="1 3"/></g><rect x="90" y="80" width="644" height="321" fill="none" stroke="black" stroke-width="1"/><line x1="90" y1="401" x2="90" y2="397" stroke="black" stroke-width="1"/><text x="90" y="414" font-size="9" font-family="Times, &apos;Liberation Serif&apos;, serif" text-anchor="middle" fill="black">0</text><line x1="218.8" y1="401" x2="218.8" y2="397" stroke="black" stroke-width="1"/><text x="218.8" y="414" font-size="9" font-family="Times, &apos;Liberation Serif&apos;, serif" text-anchor="middle" fill="black">2</text><line x1="347.6" y1="401" x2="347.6" y2="397" stroke="black" stroke-width="1"/><text x="347.6" y="414" font-size="9" font-family="Times, &apos;Liberation Serif&apos;, serif" text-anchor="middle" fill="black">4</text><line x1="476.4" y1="401" x2="476.4" y2="397" stroke="black" stroke-width="1"/><text x="476.4" y="414" font-size="9" font-family="Times, &apos;Liberation Serif&apos;, serif" text-anchor="middle" fill="black">6</text><line x1="605.2" y1="401" x2="605.2" y2="397" stroke="black" stroke-width="1"/><text x="605.2" y="414" font-size="9" font-family="Times, &apos;Liberation Serif&apos;, serif" text-anchor="middle" fill="black">8</text><line x1="734" y1="401" x2="734" y2="397" stroke="black" stroke-width="1"/><text x="734" y="414" font-size="9" font-family="Times, &apos;Liberation Serif&apos;, serif" text-anchor="middle" fill="black">10</text><line x1="90" y1="386.409" x2="94" y2="386.409" stroke="black" stroke-width="1"/><text x="86" y="388.909" font-size="9" font-family="Times, &apos;Liberation Serif&apos;, serif" text-anchor="end" fill="black">-1</text><line x1="90" y1="313.455" x2="94" y2="313.455" stroke="black" stroke-width="1"/><text x="86" y="315.955" font-size="9" font-family="Times, &apos;Liberation Serif&apos;, serif" text-anchor="end" fill="black">-0.5</text><line x1="90" y1="240.5" x2="94" y2="240.5" stroke="black" stroke-width="1"/><text x="86" y="243" font-size="9" font-family="Times, &apos;Liberation Serif&apos;, serif" text-anchor="end" fill="black">0</text><line x1="90" y1="167.545" x2="94" y2="167.545" stroke="black" stroke-width="1"/><text x="86" y="170.045" font-size="9" font-family="Times, &apos;Liberation Serif&apos;, serif" text-anchor="end" fill="black">0.5</text><line x1="90" y1="94.591" x2="94" y2="94.591" stroke="black" stroke-width="1"/><text x="86" y="97.091" font-size="9" font-family="Times, &apos;Liberation Serif&apos;, serif" text-anchor="end" fill="black">1</text><text x="412" y="430" font-size="11" font-family="Times, &apos;Liberation Serif&apos;, serif" text-anchor="middle" fill="black" font-style="italic">time [s]</text><text x="46" y="240.5" font-size="11" font-family="Times, &apos;Liberation Serif&apos;, serif" text-anchor="middle" fill="black" font-style="italic" transform="rotate(-90 46 240.5)">amplitude</text><rect x="598" y="88" width="128" height="44" fill="white" stroke="black" stroke-width="0.8"/><line x1="606" y1="102" x2="634" y2="102" stroke="black" stroke-width="1.2"/><text x="642" y="107" font-size="10" font-family="Times, &apos;Liberation Serif&apos;, serif" fill="black">signal</text><line x1="606" y1="118" x2="634" y2="118" stroke="black" stroke-width="1.2" stroke-dasharray="6 3"/><text x="642" y="123" font-size="10" font-family="Times, &apos;Liberation Serif&apos;, serif" fill="black">envelope</text><rect x="394" y="449" width="380" height="90" fill="white" stroke="black" stroke-width="1.2"/><line x1="394" y1="480.5" x2="774" y2="480.5" stroke="black" stroke-width="0.8"/><line x1="394" y1="512" x2="774" y2="512" stroke="black" stroke-width="0.8"/><line x1="644.8" y1="449" x2="644.8" y2="539" stroke="black" stroke-width="0.8"/><line x1="519.4" y1="512" x2="519.4" y2="539" stroke="black" stroke-width="0.8"/><line x1="715.86" y1="512" x2="715.86" y2="539" stroke="black" stroke-width="0.8"/><text x="400" y="459" font-size="8" font-family="Times, &apos;Liberation Serif&apos;, serif" fill="black">PROJECT</text><text x="400" y="471" font-size="10" font-family="Times, &apos;Liberation Serif&apos;, serif" fill="black">Project BLAND</text><text x="650.8" y="459" font-size="8" font-family="Times, &apos;Liberation Serif&apos;, serif" fill="black">DRAWN</text><text x="650.8" y="471" font-size="10" font-family="Times, &apos;Liberation Serif&apos;, serif" fill="black">JM</text><text x="400" y="490.5" font-size="8" font-family="Times, &apos;Liberation Serif&apos;, serif" fill="black">TITLE</text><text x="400" y="502.5" font-weight="bold" font-size="10" font-family="Times, &apos;Liberation Serif&apos;, serif" fill="black">Damped oscillation</text><text x="650.8" y="490.5" font-size="8" font-family="Times, &apos;Liberation Serif&apos;, serif" fill="black">CHECKED</text><text x="650.8" y="502.5" font-size="10" font-family="Times, &apos;Liberation Serif&apos;, serif" fill="black">RK</text><text x="400" y="522" font-size="8" font-family="Times, &apos;Liberation Serif&apos;, serif" fill="black">DATE</text><text x="400" y="534" font-size="10" font-family="Times, &apos;Liberation Serif&apos;, serif" fill="black">2026-04-22</text><text x="525.4" y="522" font-size="8" font-family="Times, &apos;Liberation Serif&apos;, serif" fill="black">SCALE</text><text x="525.4" y="534" font-size="10" font-family="Times, &apos;Liberation Serif&apos;, serif" fill="black">1:1</text><text x="650.8" y="522" font-size="8" font-family="Times, &apos;Liberation Serif&apos;, serif" fill="black">SHEET</text><text x="650.8" y="534" font-size="10" font-family="Times, &apos;Liberation Serif&apos;, serif" fill="black">1 of 1</text><text x="721.86" y="522" font-size="8" font-family="Times, &apos;Liberation Serif&apos;, serif" fill="black">REV</text><text x="721.86" y="534" font-weight="bold" font-size="10" font-family="Times, &apos;Liberation Serif&apos;, serif" fill="black">A</text></svg>