<?xml version="1.0" encoding="UTF-8"?>
<svg xmlns="http://www.w3.org/2000/svg" viewBox="0 0 560 560" width="560" height="560" shape-rendering="geometricPrecision" font-family="Times, 'Liberation Serif', serif"><rect x="0" y="0" width="560" height="560" fill="white"/><rect x="12" y="12" width="536" height="536" fill="none" stroke="black" stroke-width="0.8"/><text x="295" y="42" font-size="14" font-family="Times, &apos;Liberation Serif&apos;, serif" text-anchor="middle" letter-spacing="0.05em" fill="black">Q-Q NORMAL</text><g opacity="0.7"><line x1="192.642" y1="80" x2="192.642" y2="480" stroke="black" stroke-width="0.4" stroke-dasharray="2 3"/><line x1="310.464" y1="80" x2="310.464" y2="480" stroke="black" stroke-width="0.4" stroke-dasharray="2 3"/><line x1="428.287" y1="80" x2="428.287" y2="480" stroke="black" stroke-width="0.4" stroke-dasharray="2 3"/><line x1="90" y1="472.589" x2="500" y2="472.589" stroke="black" stroke-width="0.4" stroke-dasharray="2 3"/><line x1="90" y1="369.531" x2="500" y2="369.531" stroke="black" stroke-width="0.4" stroke-dasharray="2 3"/><line x1="90" y1="266.474" x2="500" y2="266.474" stroke="black" stroke-width="0.4" stroke-dasharray="2 3"/><line x1="90" y1="163.416" x2="500" y2="163.416" stroke="black" stroke-width="0.4" stroke-dasharray="2 3"/></g><defs><clipPath id="bland-clip-plot"><rect x="90" y="80" width="410" height="400"/></clipPath></defs><g clip-path="url(#bland-clip-plot)"><circle cx="145.098" cy="452.414" r="4" fill="none" stroke="black" stroke-width="1"/><circle cx="167.17" cy="415.53" r="4" fill="none" stroke="black" stroke-width="1"/><circle cx="178.42" cy="411.465" r="4" fill="none" stroke="black" stroke-width="1"/><circle cx="186.258" cy="397.719" r="4" fill="none" stroke="black" stroke-width="1"/><circle cx="192.367" cy="394.053" r="4" fill="none" stroke="black" stroke-width="1"/><circle cx="197.421" cy="391.8" r="4" fill="none" stroke="black" stroke-width="1"/><circle cx="201.758" cy="384.769" r="4" fill="none" stroke="black" stroke-width="1"/><circle cx="205.575" cy="379.755" r="4" fill="none" stroke="black" stroke-width="1"/><circle cx="208.996" cy="371.661" r="4" fill="none" stroke="black" stroke-width="1"/><circle cx="212.106" cy="368.948" r="4" fill="none" stroke="black" stroke-width="1"/><circle cx="214.964" cy="364.967" r="4" fill="none" stroke="black" stroke-width="1"/><circle cx="217.613" cy="363.828" r="4" fill="none" stroke="black" stroke-width="1"/><circle cx="220.087" cy="362.647" r="4" fill="none" stroke="black" stroke-width="1"/><circle cx="222.411" cy="357.993" r="4" fill="none" stroke="black" stroke-width="1"/><circle cx="224.606" cy="357.156" r="4" fill="none" stroke="black" stroke-width="1"/><circle cx="226.687" cy="354.736" r="4" fill="none" stroke="black" stroke-width="1"/><circle cx="228.669" cy="351.783" r="4" fill="none" stroke="black" stroke-width="1"/><circle cx="230.562" cy="345.713" r="4" fill="none" stroke="black" stroke-width="1"/><circle cx="232.376" cy="345.71" r="4" fill="none" stroke="black" stroke-width="1"/><circle cx="234.119" cy="344.699" r="4" fill="none" stroke="black" stroke-width="1"/><circle cx="235.798" cy="339.272" r="4" fill="none" stroke="black" stroke-width="1"/><circle cx="237.418" cy="336.257" r="4" fill="none" stroke="black" stroke-width="1"/><circle cx="238.985" cy="335.604" r="4" fill="none" stroke="black" stroke-width="1"/><circle cx="240.503" cy="335.261" r="4" fill="none" stroke="black" stroke-width="1"/><circle cx="241.975" cy="333.947" r="4" fill="none" stroke="black" stroke-width="1"/><circle cx="243.406" cy="333.394" r="4" fill="none" stroke="black" stroke-width="1"/><circle cx="244.799" cy="333.178" r="4" fill="none" stroke="black" stroke-width="1"/><circle cx="246.155" cy="332.305" r="4" fill="none" stroke="black" stroke-width="1"/><circle cx="247.479" cy="330.455" r="4" fill="none" stroke="black" stroke-width="1"/><circle cx="248.771" cy="328.882" r="4" fill="none" stroke="black" stroke-width="1"/><circle cx="250.035" cy="328.059" r="4" fill="none" stroke="black" stroke-width="1"/><circle cx="251.271" cy="327.996" r="4" fill="none" stroke="black" stroke-width="1"/><circle cx="252.482" cy="327.931" r="4" fill="none" stroke="black" stroke-width="1"/><circle cx="253.668" cy="327.159" r="4" fill="none" stroke="black" stroke-width="1"/><circle cx="254.832" cy="326.817" r="4" fill="none" stroke="black" stroke-width="1"/><circle cx="255.975" cy="325.714" r="4" fill="none" stroke="black" stroke-width="1"/><circle cx="257.098" cy="325.429" r="4" fill="none" stroke="black" stroke-width="1"/><circle cx="258.201" cy="325.23" r="4" fill="none" stroke="black" stroke-width="1"/><circle cx="259.287" cy="325.02" r="4" fill="none" stroke="black" stroke-width="1"/><circle cx="260.355" cy="325.008" r="4" fill="none" stroke="black" stroke-width="1"/><circle cx="261.407" cy="324.619" r="4" fill="none" stroke="black" stroke-width="1"/><circle cx="262.444" cy="322.182" r="4" fill="none" stroke="black" stroke-width="1"/><circle cx="263.466" cy="321.976" r="4" fill="none" stroke="black" stroke-width="1"/><circle cx="264.474" cy="321.78" r="4" fill="none" stroke="black" stroke-width="1"/><circle cx="265.469" cy="320.903" r="4" fill="none" stroke="black" stroke-width="1"/><circle cx="266.451" cy="314.727" r="4" fill="none" stroke="black" stroke-width="1"/><circle cx="267.421" cy="314.389" r="4" fill="none" stroke="black" stroke-width="1"/><circle cx="268.38" cy="314.252" r="4" fill="none" stroke="black" stroke-width="1"/><circle cx="269.328" cy="313.053" r="4" fill="none" stroke="black" stroke-width="1"/><circle cx="270.265" cy="308.19" r="4" fill="none" stroke="black" stroke-width="1"/><circle cx="271.191" cy="308.049" r="4" fill="none" stroke="black" stroke-width="1"/><circle cx="272.109" cy="307.959" r="4" fill="none" stroke="black" stroke-width="1"/><circle cx="273.017" cy="306.444" r="4" fill="none" stroke="black" stroke-width="1"/><circle cx="273.916" cy="304.807" r="4" fill="none" stroke="black" stroke-width="1"/><circle cx="274.807" cy="304.119" r="4" fill="none" stroke="black" stroke-width="1"/><circle cx="275.69" cy="302.872" r="4" fill="none" stroke="black" stroke-width="1"/><circle cx="276.565" cy="301.646" r="4" fill="none" stroke="black" stroke-width="1"/><circle cx="277.433" cy="301.238" r="4" fill="none" stroke="black" stroke-width="1"/><circle cx="278.293" cy="298.507" r="4" fill="none" stroke="black" stroke-width="1"/><circle cx="279.147" cy="297.495" r="4" fill="none" stroke="black" stroke-width="1"/><circle cx="279.994" cy="297.228" r="4" fill="none" stroke="black" stroke-width="1"/><circle cx="280.835" cy="296.458" r="4" fill="none" stroke="black" stroke-width="1"/><circle cx="281.67" cy="296.039" r="4" fill="none" stroke="black" stroke-width="1"/><circle cx="282.499" cy="295.859" r="4" fill="none" stroke="black" stroke-width="1"/><circle cx="283.323" cy="295.829" r="4" fill="none" stroke="black" stroke-width="1"/><circle cx="284.141" cy="295.274" r="4" fill="none" stroke="black" stroke-width="1"/><circle cx="284.955" cy="294.699" r="4" fill="none" stroke="black" stroke-width="1"/><circle cx="285.763" cy="293.834" r="4" fill="none" stroke="black" stroke-width="1"/><circle cx="286.567" cy="292.957" r="4" fill="none" stroke="black" stroke-width="1"/><circle cx="287.366" cy="292.55" r="4" fill="none" stroke="black" stroke-width="1"/><circle cx="288.162" cy="291.635" r="4" fill="none" stroke="black" stroke-width="1"/><circle cx="288.953" cy="291.252" r="4" fill="none" stroke="black" stroke-width="1"/><circle cx="289.74" cy="290.794" r="4" fill="none" stroke="black" stroke-width="1"/><circle cx="290.524" cy="290.632" r="4" fill="none" stroke="black" stroke-width="1"/><circle cx="291.304" cy="290.553" r="4" fill="none" stroke="black" stroke-width="1"/><circle cx="292.081" cy="290.325" r="4" fill="none" stroke="black" stroke-width="1"/><circle cx="292.854" cy="290.282" r="4" fill="none" stroke="black" stroke-width="1"/><circle cx="293.625" cy="289.358" r="4" fill="none" stroke="black" stroke-width="1"/><circle cx="294.393" cy="289.228" r="4" fill="none" stroke="black" stroke-width="1"/><circle cx="295.158" cy="289.092" r="4" fill="none" stroke="black" stroke-width="1"/><circle cx="295.92" cy="288.995" r="4" fill="none" stroke="black" stroke-width="1"/><circle cx="296.68" cy="288.356" r="4" fill="none" stroke="black" stroke-width="1"/><circle cx="297.438" cy="287.606" r="4" fill="none" stroke="black" stroke-width="1"/><circle cx="298.194" cy="285.751" r="4" fill="none" stroke="black" stroke-width="1"/><circle cx="298.947" cy="285.195" r="4" fill="none" stroke="black" stroke-width="1"/><circle cx="299.699" cy="285.145" r="4" fill="none" stroke="black" stroke-width="1"/><circle cx="300.449" cy="282.281" r="4" fill="none" stroke="black" stroke-width="1"/><circle cx="301.197" cy="281.95" r="4" fill="none" stroke="black" stroke-width="1"/><circle cx="301.944" cy="281.654" r="4" fill="none" stroke="black" stroke-width="1"/><circle cx="302.689" cy="280.771" r="4" fill="none" stroke="black" stroke-width="1"/><circle cx="303.433" cy="279.15" r="4" fill="none" stroke="black" stroke-width="1"/><circle cx="304.177" cy="278.662" r="4" fill="none" stroke="black" stroke-width="1"/><circle cx="304.919" cy="278.533" r="4" fill="none" stroke="black" stroke-width="1"/><circle cx="305.66" cy="278.501" r="4" fill="none" stroke="black" stroke-width="1"/><circle cx="306.4" cy="277.645" r="4" fill="none" stroke="black" stroke-width="1"/><circle cx="307.14" cy="277.53" r="4" fill="none" stroke="black" stroke-width="1"/><circle cx="307.879" cy="277.503" r="4" fill="none" stroke="black" stroke-width="1"/><circle cx="308.618" cy="277.465" r="4" fill="none" stroke="black" stroke-width="1"/><circle cx="309.357" cy="276.463" r="4" fill="none" stroke="black" stroke-width="1"/><circle cx="310.095" cy="275.643" r="4" fill="none" stroke="black" stroke-width="1"/><circle cx="310.834" cy="275.474" r="4" fill="none" stroke="black" stroke-width="1"/><circle cx="311.572" cy="274.601" r="4" fill="none" stroke="black" stroke-width="1"/><circle cx="312.311" cy="273.004" r="4" fill="none" stroke="black" stroke-width="1"/><circle cx="313.049" cy="271.75" r="4" fill="none" stroke="black" stroke-width="1"/><circle cx="313.789" cy="270.749" r="4" fill="none" stroke="black" stroke-width="1"/><circle cx="314.528" cy="269.23" r="4" fill="none" stroke="black" stroke-width="1"/><circle cx="315.269" cy="268.721" r="4" fill="none" stroke="black" stroke-width="1"/><circle cx="316.01" cy="265.931" r="4" fill="none" stroke="black" stroke-width="1"/><circle cx="316.752" cy="265.286" r="4" fill="none" stroke="black" stroke-width="1"/><circle cx="317.495" cy="264.966" r="4" fill="none" stroke="black" stroke-width="1"/><circle cx="318.239" cy="263.911" r="4" fill="none" stroke="black" stroke-width="1"/><circle cx="318.985" cy="263.13" r="4" fill="none" stroke="black" stroke-width="1"/><circle cx="319.732" cy="262.936" r="4" fill="none" stroke="black" stroke-width="1"/><circle cx="320.48" cy="261.654" r="4" fill="none" stroke="black" stroke-width="1"/><circle cx="321.23" cy="261.433" r="4" fill="none" stroke="black" stroke-width="1"/><circle cx="321.982" cy="261.065" r="4" fill="none" stroke="black" stroke-width="1"/><circle cx="322.735" cy="260.956" r="4" fill="none" stroke="black" stroke-width="1"/><circle cx="323.491" cy="260.856" r="4" fill="none" stroke="black" stroke-width="1"/><circle cx="324.248" cy="260.312" r="4" fill="none" stroke="black" stroke-width="1"/><circle cx="325.008" cy="259.422" r="4" fill="none" stroke="black" stroke-width="1"/><circle cx="325.771" cy="259.199" r="4" fill="none" stroke="black" stroke-width="1"/><circle cx="326.536" cy="258.708" r="4" fill="none" stroke="black" stroke-width="1"/><circle cx="327.304" cy="258.407" r="4" fill="none" stroke="black" stroke-width="1"/><circle cx="328.074" cy="258.017" r="4" fill="none" stroke="black" stroke-width="1"/><circle cx="328.848" cy="257.407" r="4" fill="none" stroke="black" stroke-width="1"/><circle cx="329.625" cy="256.056" r="4" fill="none" stroke="black" stroke-width="1"/><circle cx="330.405" cy="255.288" r="4" fill="none" stroke="black" stroke-width="1"/><circle cx="331.188" cy="253.33" r="4" fill="none" stroke="black" stroke-width="1"/><circle cx="331.976" cy="252.265" r="4" fill="none" stroke="black" stroke-width="1"/><circle cx="332.767" cy="251.9" r="4" fill="none" stroke="black" stroke-width="1"/><circle cx="333.562" cy="251.784" r="4" fill="none" stroke="black" stroke-width="1"/><circle cx="334.362" cy="251.371" r="4" fill="none" stroke="black" stroke-width="1"/><circle cx="335.166" cy="250.048" r="4" fill="none" stroke="black" stroke-width="1"/><circle cx="335.974" cy="250.045" r="4" fill="none" stroke="black" stroke-width="1"/><circle cx="336.788" cy="249.685" r="4" fill="none" stroke="black" stroke-width="1"/><circle cx="337.606" cy="249.318" r="4" fill="none" stroke="black" stroke-width="1"/><circle cx="338.43" cy="248.864" r="4" fill="none" stroke="black" stroke-width="1"/><circle cx="339.259" cy="248.549" r="4" fill="none" stroke="black" stroke-width="1"/><circle cx="340.094" cy="248.092" r="4" fill="none" stroke="black" stroke-width="1"/><circle cx="340.935" cy="247.141" r="4" fill="none" stroke="black" stroke-width="1"/><circle cx="341.782" cy="246.306" r="4" fill="none" stroke="black" stroke-width="1"/><circle cx="342.636" cy="246.025" r="4" fill="none" stroke="black" stroke-width="1"/><circle cx="343.496" cy="245.979" r="4" fill="none" stroke="black" stroke-width="1"/><circle cx="344.364" cy="245.079" r="4" fill="none" stroke="black" stroke-width="1"/><circle cx="345.239" cy="245.043" r="4" fill="none" stroke="black" stroke-width="1"/><circle cx="346.122" cy="243.826" r="4" fill="none" stroke="black" stroke-width="1"/><circle cx="347.012" cy="243.325" r="4" fill="none" stroke="black" stroke-width="1"/><circle cx="347.912" cy="242.609" r="4" fill="none" stroke="black" stroke-width="1"/><circle cx="348.82" cy="240.851" r="4" fill="none" stroke="black" stroke-width="1"/><circle cx="349.737" cy="240.654" r="4" fill="none" stroke="black" stroke-width="1"/><circle cx="350.664" cy="239.174" r="4" fill="none" stroke="black" stroke-width="1"/><circle cx="351.601" cy="237.816" r="4" fill="none" stroke="black" stroke-width="1"/><circle cx="352.549" cy="237.261" r="4" fill="none" stroke="black" stroke-width="1"/><circle cx="353.507" cy="235.498" r="4" fill="none" stroke="black" stroke-width="1"/><circle cx="354.477" cy="235.319" r="4" fill="none" stroke="black" stroke-width="1"/><circle cx="355.46" cy="235.106" r="4" fill="none" stroke="black" stroke-width="1"/><circle cx="356.454" cy="234.199" r="4" fill="none" stroke="black" stroke-width="1"/><circle cx="357.462" cy="233.164" r="4" fill="none" stroke="black" stroke-width="1"/><circle cx="358.485" cy="232.644" r="4" fill="none" stroke="black" stroke-width="1"/><circle cx="359.521" cy="227.37" r="4" fill="none" stroke="black" stroke-width="1"/><circle cx="360.573" cy="225.687" r="4" fill="none" stroke="black" stroke-width="1"/><circle cx="361.642" cy="225.164" r="4" fill="none" stroke="black" stroke-width="1"/><circle cx="362.727" cy="224.575" r="4" fill="none" stroke="black" stroke-width="1"/><circle cx="363.831" cy="223.473" r="4" fill="none" stroke="black" stroke-width="1"/><circle cx="364.954" cy="223.358" r="4" fill="none" stroke="black" stroke-width="1"/><circle cx="366.096" cy="218.916" r="4" fill="none" stroke="black" stroke-width="1"/><circle cx="367.26" cy="218.436" r="4" fill="none" stroke="black" stroke-width="1"/><circle cx="368.447" cy="218.407" r="4" fill="none" stroke="black" stroke-width="1"/><circle cx="369.658" cy="218.254" r="4" fill="none" stroke="black" stroke-width="1"/><circle cx="370.894" cy="217.818" r="4" fill="none" stroke="black" stroke-width="1"/><circle cx="372.157" cy="217.119" r="4" fill="none" stroke="black" stroke-width="1"/><circle cx="373.45" cy="216.808" r="4" fill="none" stroke="black" stroke-width="1"/><circle cx="374.773" cy="216.653" r="4" fill="none" stroke="black" stroke-width="1"/><circle cx="376.13" cy="213.854" r="4" fill="none" stroke="black" stroke-width="1"/><circle cx="377.522" cy="213.239" r="4" fill="none" stroke="black" stroke-width="1"/><circle cx="378.954" cy="212.561" r="4" fill="none" stroke="black" stroke-width="1"/><circle cx="380.426" cy="212.238" r="4" fill="none" stroke="black" stroke-width="1"/><circle cx="381.944" cy="209.883" r="4" fill="none" stroke="black" stroke-width="1"/><circle cx="383.511" cy="208.299" r="4" fill="none" stroke="black" stroke-width="1"/><circle cx="385.131" cy="207.683" r="4" fill="none" stroke="black" stroke-width="1"/><circle cx="386.809" cy="204.96" r="4" fill="none" stroke="black" stroke-width="1"/><circle cx="388.552" cy="204.546" r="4" fill="none" stroke="black" stroke-width="1"/><circle cx="390.367" cy="203.547" r="4" fill="none" stroke="black" stroke-width="1"/><circle cx="392.26" cy="202.359" r="4" fill="none" stroke="black" stroke-width="1"/><circle cx="394.242" cy="202.028" r="4" fill="none" stroke="black" stroke-width="1"/><circle cx="396.323" cy="201.126" r="4" fill="none" stroke="black" stroke-width="1"/><circle cx="398.518" cy="197.621" r="4" fill="none" stroke="black" stroke-width="1"/><circle cx="400.841" cy="190.97" r="4" fill="none" stroke="black" stroke-width="1"/><circle cx="403.315" cy="190.609" r="4" fill="none" stroke="black" stroke-width="1"/><circle cx="405.965" cy="184.497" r="4" fill="none" stroke="black" stroke-width="1"/><circle cx="408.822" cy="181.818" r="4" fill="none" stroke="black" stroke-width="1"/><circle cx="411.932" cy="180.223" r="4" fill="none" stroke="black" stroke-width="1"/><circle cx="415.354" cy="178.523" r="4" fill="none" stroke="black" stroke-width="1"/><circle cx="419.171" cy="175.408" r="4" fill="none" stroke="black" stroke-width="1"/><circle cx="423.508" cy="173.26" r="4" fill="none" stroke="black" stroke-width="1"/><circle cx="428.561" cy="171.942" r="4" fill="none" stroke="black" stroke-width="1"/><circle cx="434.671" cy="171.359" r="4" fill="none" stroke="black" stroke-width="1"/><circle cx="442.508" cy="153.362" r="4" fill="none" stroke="black" stroke-width="1"/><circle cx="453.759" cy="147.971" r="4" fill="none" stroke="black" stroke-width="1"/><circle cx="475.831" cy="107.586" r="4" fill="none" stroke="black" stroke-width="1"/><polyline points="97.885,452.414 492.115,107.586" fill="none" stroke="black" stroke-width="1.2" stroke-linecap="round" stroke-linejoin="round" stroke-dasharray="6 3"/></g><rect x="90" y="80" width="410" height="400" fill="none" stroke="black" stroke-width="1"/><line x1="192.642" y1="480" x2="192.642" y2="476" stroke="black" stroke-width="1"/><text x="192.642" y="493" font-size="9" font-family="Times, &apos;Liberation Serif&apos;, serif" text-anchor="middle" fill="black">-2</text><line x1="310.464" y1="480" x2="310.464" y2="476" stroke="black" stroke-width="1"/><text x="310.464" y="493" font-size="9" font-family="Times, &apos;Liberation Serif&apos;, serif" text-anchor="middle" fill="black">0</text><line x1="428.287" y1="480" x2="428.287" y2="476" stroke="black" stroke-width="1"/><text x="428.287" y="493" font-size="9" font-family="Times, &apos;Liberation Serif&apos;, serif" text-anchor="middle" fill="black">2</text><line x1="90" y1="472.589" x2="94" y2="472.589" stroke="black" stroke-width="1"/><text x="86" y="475.089" font-size="9" font-family="Times, &apos;Liberation Serif&apos;, serif" text-anchor="end" fill="black">-4</text><line x1="90" y1="369.531" x2="94" y2="369.531" stroke="black" stroke-width="1"/><text x="86" y="372.031" font-size="9" font-family="Times, &apos;Liberation Serif&apos;, serif" text-anchor="end" fill="black">-2</text><line x1="90" y1="266.474" x2="94" y2="266.474" stroke="black" stroke-width="1"/><text x="86" y="268.974" font-size="9" font-family="Times, &apos;Liberation Serif&apos;, serif" text-anchor="end" fill="black">0</text><line x1="90" y1="163.416" x2="94" y2="163.416" stroke="black" stroke-width="1"/><text x="86" y="165.916" font-size="9" font-family="Times, &apos;Liberation Serif&apos;, serif" text-anchor="end" fill="black">2</text><text x="295" y="515" font-size="11" font-family="Times, &apos;Liberation Serif&apos;, serif" text-anchor="middle" fill="black" font-style="italic">theoretical quantile</text><text x="46" y="280" font-size="11" font-family="Times, &apos;Liberation Serif&apos;, serif" text-anchor="middle" fill="black" font-style="italic" transform="rotate(-90 46 280)">sample quantile</text><rect x="98" y="88" width="128" height="28" fill="white" stroke="black" stroke-width="0.8"/><circle cx="120" cy="102" r="4" fill="none" stroke="black" stroke-width="1"/><text x="142" y="107" font-size="10" font-family="Times, &apos;Liberation Serif&apos;, serif" fill="black">n=200</text></svg>