<?xml version="1.0" encoding="UTF-8"?>
<svg xmlns="http://www.w3.org/2000/svg" viewBox="0 0 680 560" width="680" height="560" shape-rendering="geometricPrecision" font-family="Times, 'Liberation Serif', serif"><rect x="0" y="0" width="680" height="560" fill="white"/><rect x="12" y="12" width="656" height="536" fill="none" stroke="black" stroke-width="0.8"/><defs><pattern id="bland-pattern-dots_sparse" patternUnits="userSpaceOnUse" width="10" height="10"><circle cx="5" cy="5" r="1.2" fill="black"/></pattern></defs><text x="355" y="42" font-size="14" font-family="Times, &apos;Liberation Serif&apos;, serif" text-anchor="middle" letter-spacing="0.05em" fill="black">APOLLO LANDING SITES</text><defs><clipPath id="bland-clip-plot"><rect x="90" y="80" width="530" height="400"/></clipPath></defs><g clip-path="url(#bland-clip-plot)"><polyline points="65.909,510.769 65.909,502.947 65.909,495.124 65.909,487.301 65.909,479.478 65.909,471.656 65.909,463.833 65.909,456.01 65.909,448.188 65.909,440.365 65.909,432.542 65.909,424.72 65.909,416.897 65.909,409.074 65.909,401.252 65.909,393.429 65.909,385.606 65.909,377.784 65.909,369.961 65.909,362.138 65.909,354.316 65.909,346.493 65.909,338.67 65.909,330.847 65.909,323.025 65.909,315.202 65.909,307.379 65.909,299.557 65.909,291.734 65.909,283.911 65.909,276.089 65.909,268.266 65.909,260.443 65.909,252.621 65.909,244.798 65.909,236.975 65.909,229.153 65.909,221.33 65.909,213.507 65.909,205.684 65.909,197.862 65.909,190.039 65.909,182.216 65.909,174.394 65.909,166.571 65.909,158.748 65.909,150.926 65.909,143.103 65.909,135.28 65.909,127.458 65.909,119.635 65.909,111.812 65.909,103.99 65.909,96.167 65.909,88.344 65.909,80.522 65.909,72.699 65.909,64.876 65.909,57.053 65.909,49.231" fill="none" stroke="black" stroke-width="0.5" stroke-linecap="round" stroke-linejoin="round" stroke-dasharray="1 3"/><polyline points="138.182,510.769 138.182,502.947 138.182,495.124 138.182,487.301 138.182,479.478 138.182,471.656 138.182,463.833 138.182,456.01 138.182,448.188 138.182,440.365 138.182,432.542 138.182,424.72 138.182,416.897 138.182,409.074 138.182,401.252 138.182,393.429 138.182,385.606 138.182,377.784 138.182,369.961 138.182,362.138 138.182,354.316 138.182,346.493 138.182,338.67 138.182,330.847 138.182,323.025 138.182,315.202 138.182,307.379 138.182,299.557 138.182,291.734 138.182,283.911 138.182,276.089 138.182,268.266 138.182,260.443 138.182,252.621 138.182,244.798 138.182,236.975 138.182,229.153 138.182,221.33 138.182,213.507 138.182,205.684 138.182,197.862 138.182,190.039 138.182,182.216 138.182,174.394 138.182,166.571 138.182,158.748 138.182,150.926 138.182,143.103 138.182,135.28 138.182,127.458 138.182,119.635 138.182,111.812 138.182,103.99 138.182,96.167 138.182,88.344 138.182,80.522 138.182,72.699 138.182,64.876 138.182,57.053 138.182,49.231" fill="none" stroke="black" stroke-width="0.5" stroke-linecap="round" stroke-linejoin="round" stroke-dasharray="1 3"/><polyline points="210.455,510.769 210.455,502.947 210.455,495.124 210.455,487.301 210.455,479.478 210.455,471.656 210.455,463.833 210.455,456.01 210.455,448.188 210.455,440.365 210.455,432.542 210.455,424.72 210.455,416.897 210.455,409.074 210.455,401.252 210.455,393.429 210.455,385.606 210.455,377.784 210.455,369.961 210.455,362.138 210.455,354.316 210.455,346.493 210.455,338.67 210.455,330.847 210.455,323.025 210.455,315.202 210.455,307.379 210.455,299.557 210.455,291.734 210.455,283.911 210.455,276.089 210.455,268.266 210.455,260.443 210.455,252.621 210.455,244.798 210.455,236.975 210.455,229.153 210.455,221.33 210.455,213.507 210.455,205.684 210.455,197.862 210.455,190.039 210.455,182.216 210.455,174.394 210.455,166.571 210.455,158.748 210.455,150.926 210.455,143.103 210.455,135.28 210.455,127.458 210.455,119.635 210.455,111.812 210.455,103.99 210.455,96.167 210.455,88.344 210.455,80.522 210.455,72.699 210.455,64.876 210.455,57.053 210.455,49.231" fill="none" stroke="black" stroke-width="0.5" stroke-linecap="round" stroke-linejoin="round" stroke-dasharray="1 3"/><polyline points="282.727,510.769 282.727,502.947 282.727,495.124 282.727,487.301 282.727,479.478 282.727,471.656 282.727,463.833 282.727,456.01 282.727,448.188 282.727,440.365 282.727,432.542 282.727,424.72 282.727,416.897 282.727,409.074 282.727,401.252 282.727,393.429 282.727,385.606 282.727,377.784 282.727,369.961 282.727,362.138 282.727,354.316 282.727,346.493 282.727,338.67 282.727,330.847 282.727,323.025 282.727,315.202 282.727,307.379 282.727,299.557 282.727,291.734 282.727,283.911 282.727,276.089 282.727,268.266 282.727,260.443 282.727,252.621 282.727,244.798 282.727,236.975 282.727,229.153 282.727,221.33 282.727,213.507 282.727,205.684 282.727,197.862 282.727,190.039 282.727,182.216 282.727,174.394 282.727,166.571 282.727,158.748 282.727,150.926 282.727,143.103 282.727,135.28 282.727,127.458 282.727,119.635 282.727,111.812 282.727,103.99 282.727,96.167 282.727,88.344 282.727,80.522 282.727,72.699 282.727,64.876 282.727,57.053 282.727,49.231" fill="none" stroke="black" stroke-width="0.5" stroke-linecap="round" stroke-linejoin="round" stroke-dasharray="1 3"/><polyline points="355,510.769 355,502.947 355,495.124 355,487.301 355,479.478 355,471.656 355,463.833 355,456.01 355,448.188 355,440.365 355,432.542 355,424.72 355,416.897 355,409.074 355,401.252 355,393.429 355,385.606 355,377.784 355,369.961 355,362.138 355,354.316 355,346.493 355,338.67 355,330.847 355,323.025 355,315.202 355,307.379 355,299.557 355,291.734 355,283.911 355,276.089 355,268.266 355,260.443 355,252.621 355,244.798 355,236.975 355,229.153 355,221.33 355,213.507 355,205.684 355,197.862 355,190.039 355,182.216 355,174.394 355,166.571 355,158.748 355,150.926 355,143.103 355,135.28 355,127.458 355,119.635 355,111.812 355,103.99 355,96.167 355,88.344 355,80.522 355,72.699 355,64.876 355,57.053 355,49.231" fill="none" stroke="black" stroke-width="0.5" stroke-linecap="round" stroke-linejoin="round" stroke-dasharray="1 3"/><polyline points="427.273,510.769 427.273,502.947 427.273,495.124 427.273,487.301 427.273,479.478 427.273,471.656 427.273,463.833 427.273,456.01 427.273,448.188 427.273,440.365 427.273,432.542 427.273,424.72 427.273,416.897 427.273,409.074 427.273,401.252 427.273,393.429 427.273,385.606 427.273,377.784 427.273,369.961 427.273,362.138 427.273,354.316 427.273,346.493 427.273,338.67 427.273,330.847 427.273,323.025 427.273,315.202 427.273,307.379 427.273,299.557 427.273,291.734 427.273,283.911 427.273,276.089 427.273,268.266 427.273,260.443 427.273,252.621 427.273,244.798 427.273,236.975 427.273,229.153 427.273,221.33 427.273,213.507 427.273,205.684 427.273,197.862 427.273,190.039 427.273,182.216 427.273,174.394 427.273,166.571 427.273,158.748 427.273,150.926 427.273,143.103 427.273,135.28 427.273,127.458 427.273,119.635 427.273,111.812 427.273,103.99 427.273,96.167 427.273,88.344 427.273,80.522 427.273,72.699 427.273,64.876 427.273,57.053 427.273,49.231" fill="none" stroke="black" stroke-width="0.5" stroke-linecap="round" stroke-linejoin="round" stroke-dasharray="1 3"/><polyline points="499.545,510.769 499.545,502.947 499.545,495.124 499.545,487.301 499.545,479.478 499.545,471.656 499.545,463.833 499.545,456.01 499.545,448.188 499.545,440.365 499.545,432.542 499.545,424.72 499.545,416.897 499.545,409.074 499.545,401.252 499.545,393.429 499.545,385.606 499.545,377.784 499.545,369.961 499.545,362.138 499.545,354.316 499.545,346.493 499.545,338.67 499.545,330.847 499.545,323.025 499.545,315.202 499.545,307.379 499.545,299.557 499.545,291.734 499.545,283.911 499.545,276.089 499.545,268.266 499.545,260.443 499.545,252.621 499.545,244.798 499.545,236.975 499.545,229.153 499.545,221.33 499.545,213.507 499.545,205.684 499.545,197.862 499.545,190.039 499.545,182.216 499.545,174.394 499.545,166.571 499.545,158.748 499.545,150.926 499.545,143.103 499.545,135.28 499.545,127.458 499.545,119.635 499.545,111.812 499.545,103.99 499.545,96.167 499.545,88.344 499.545,80.522 499.545,72.699 499.545,64.876 499.545,57.053 499.545,49.231" fill="none" stroke="black" stroke-width="0.5" stroke-linecap="round" stroke-linejoin="round" stroke-dasharray="1 3"/><polyline points="571.818,510.769 571.818,502.947 571.818,495.124 571.818,487.301 571.818,479.478 571.818,471.656 571.818,463.833 571.818,456.01 571.818,448.188 571.818,440.365 571.818,432.542 571.818,424.72 571.818,416.897 571.818,409.074 571.818,401.252 571.818,393.429 571.818,385.606 571.818,377.784 571.818,369.961 571.818,362.138 571.818,354.316 571.818,346.493 571.818,338.67 571.818,330.847 571.818,323.025 571.818,315.202 571.818,307.379 571.818,299.557 571.818,291.734 571.818,283.911 571.818,276.089 571.818,268.266 571.818,260.443 571.818,252.621 571.818,244.798 571.818,236.975 571.818,229.153 571.818,221.33 571.818,213.507 571.818,205.684 571.818,197.862 571.818,190.039 571.818,182.216 571.818,174.394 571.818,166.571 571.818,158.748 571.818,150.926 571.818,143.103 571.818,135.28 571.818,127.458 571.818,119.635 571.818,111.812 571.818,103.99 571.818,96.167 571.818,88.344 571.818,80.522 571.818,72.699 571.818,64.876 571.818,57.053 571.818,49.231" fill="none" stroke="black" stroke-width="0.5" stroke-linecap="round" stroke-linejoin="round" stroke-dasharray="1 3"/><polyline points="644.091,510.769 644.091,502.947 644.091,495.124 644.091,487.301 644.091,479.478 644.091,471.656 644.091,463.833 644.091,456.01 644.091,448.188 644.091,440.365 644.091,432.542 644.091,424.72 644.091,416.897 644.091,409.074 644.091,401.252 644.091,393.429 644.091,385.606 644.091,377.784 644.091,369.961 644.091,362.138 644.091,354.316 644.091,346.493 644.091,338.67 644.091,330.847 644.091,323.025 644.091,315.202 644.091,307.379 644.091,299.557 644.091,291.734 644.091,283.911 644.091,276.089 644.091,268.266 644.091,260.443 644.091,252.621 644.091,244.798 644.091,236.975 644.091,229.153 644.091,221.33 644.091,213.507 644.091,205.684 644.091,197.862 644.091,190.039 644.091,182.216 644.091,174.394 644.091,166.571 644.091,158.748 644.091,150.926 644.091,143.103 644.091,135.28 644.091,127.458 644.091,119.635 644.091,111.812 644.091,103.99 644.091,96.167 644.091,88.344 644.091,80.522 644.091,72.699 644.091,64.876 644.091,57.053 644.091,49.231" fill="none" stroke="black" stroke-width="0.5" stroke-linecap="round" stroke-linejoin="round" stroke-dasharray="1 3"/><polyline points="65.909,510.769 75.709,510.769 85.508,510.769 95.308,510.769 105.108,510.769 114.908,510.769 124.707,510.769 134.507,510.769 144.307,510.769 154.106,510.769 163.906,510.769 173.706,510.769 183.505,510.769 193.305,510.769 203.105,510.769 212.904,510.769 222.704,510.769 232.504,510.769 242.304,510.769 252.103,510.769 261.903,510.769 271.703,510.769 281.502,510.769 291.302,510.769 301.102,510.769 310.901,510.769 320.701,510.769 330.501,510.769 340.3,510.769 350.1,510.769 359.9,510.769 369.7,510.769 379.499,510.769 389.299,510.769 399.099,510.769 408.898,510.769 418.698,510.769 428.498,510.769 438.297,510.769 448.097,510.769 457.897,510.769 467.696,510.769 477.496,510.769 487.296,510.769 497.096,510.769 506.895,510.769 516.695,510.769 526.495,510.769 536.294,510.769 546.094,510.769 555.894,510.769 565.693,510.769 575.493,510.769 585.293,510.769 595.092,510.769 604.892,510.769 614.692,510.769 624.492,510.769 634.291,510.769 644.091,510.769" fill="none" stroke="black" stroke-width="0.5" stroke-linecap="round" stroke-linejoin="round" stroke-dasharray="1 3"/><polyline points="65.909,418.462 75.709,418.462 85.508,418.462 95.308,418.462 105.108,418.462 114.908,418.462 124.707,418.462 134.507,418.462 144.307,418.462 154.106,418.462 163.906,418.462 173.706,418.462 183.505,418.462 193.305,418.462 203.105,418.462 212.904,418.462 222.704,418.462 232.504,418.462 242.304,418.462 252.103,418.462 261.903,418.462 271.703,418.462 281.502,418.462 291.302,418.462 301.102,418.462 310.901,418.462 320.701,418.462 330.501,418.462 340.3,418.462 350.1,418.462 359.9,418.462 369.7,418.462 379.499,418.462 389.299,418.462 399.099,418.462 408.898,418.462 418.698,418.462 428.498,418.462 438.297,418.462 448.097,418.462 457.897,418.462 467.696,418.462 477.496,418.462 487.296,418.462 497.096,418.462 506.895,418.462 516.695,418.462 526.495,418.462 536.294,418.462 546.094,418.462 555.894,418.462 565.693,418.462 575.493,418.462 585.293,418.462 595.092,418.462 604.892,418.462 614.692,418.462 624.492,418.462 634.291,418.462 644.091,418.462" fill="none" stroke="black" stroke-width="0.5" stroke-linecap="round" stroke-linejoin="round" stroke-dasharray="1 3"/><polyline points="65.909,326.154 75.709,326.154 85.508,326.154 95.308,326.154 105.108,326.154 114.908,326.154 124.707,326.154 134.507,326.154 144.307,326.154 154.106,326.154 163.906,326.154 173.706,326.154 183.505,326.154 193.305,326.154 203.105,326.154 212.904,326.154 222.704,326.154 232.504,326.154 242.304,326.154 252.103,326.154 261.903,326.154 271.703,326.154 281.502,326.154 291.302,326.154 301.102,326.154 310.901,326.154 320.701,326.154 330.501,326.154 340.3,326.154 350.1,326.154 359.9,326.154 369.7,326.154 379.499,326.154 389.299,326.154 399.099,326.154 408.898,326.154 418.698,326.154 428.498,326.154 438.297,326.154 448.097,326.154 457.897,326.154 467.696,326.154 477.496,326.154 487.296,326.154 497.096,326.154 506.895,326.154 516.695,326.154 526.495,326.154 536.294,326.154 546.094,326.154 555.894,326.154 565.693,326.154 575.493,326.154 585.293,326.154 595.092,326.154 604.892,326.154 614.692,326.154 624.492,326.154 634.291,326.154 644.091,326.154" fill="none" stroke="black" stroke-width="0.5" stroke-linecap="round" stroke-linejoin="round" stroke-dasharray="1 3"/><polyline points="65.909,233.846 75.709,233.846 85.508,233.846 95.308,233.846 105.108,233.846 114.908,233.846 124.707,233.846 134.507,233.846 144.307,233.846 154.106,233.846 163.906,233.846 173.706,233.846 183.505,233.846 193.305,233.846 203.105,233.846 212.904,233.846 222.704,233.846 232.504,233.846 242.304,233.846 252.103,233.846 261.903,233.846 271.703,233.846 281.502,233.846 291.302,233.846 301.102,233.846 310.901,233.846 320.701,233.846 330.501,233.846 340.3,233.846 350.1,233.846 359.9,233.846 369.7,233.846 379.499,233.846 389.299,233.846 399.099,233.846 408.898,233.846 418.698,233.846 428.498,233.846 438.297,233.846 448.097,233.846 457.897,233.846 467.696,233.846 477.496,233.846 487.296,233.846 497.096,233.846 506.895,233.846 516.695,233.846 526.495,233.846 536.294,233.846 546.094,233.846 555.894,233.846 565.693,233.846 575.493,233.846 585.293,233.846 595.092,233.846 604.892,233.846 614.692,233.846 624.492,233.846 634.291,233.846 644.091,233.846" fill="none" stroke="black" stroke-width="0.5" stroke-linecap="round" stroke-linejoin="round" stroke-dasharray="1 3"/><polyline points="65.909,141.538 75.709,141.538 85.508,141.538 95.308,141.538 105.108,141.538 114.908,141.538 124.707,141.538 134.507,141.538 144.307,141.538 154.106,141.538 163.906,141.538 173.706,141.538 183.505,141.538 193.305,141.538 203.105,141.538 212.904,141.538 222.704,141.538 232.504,141.538 242.304,141.538 252.103,141.538 261.903,141.538 271.703,141.538 281.502,141.538 291.302,141.538 301.102,141.538 310.901,141.538 320.701,141.538 330.501,141.538 340.3,141.538 350.1,141.538 359.9,141.538 369.7,141.538 379.499,141.538 389.299,141.538 399.099,141.538 408.898,141.538 418.698,141.538 428.498,141.538 438.297,141.538 448.097,141.538 457.897,141.538 467.696,141.538 477.496,141.538 487.296,141.538 497.096,141.538 506.895,141.538 516.695,141.538 526.495,141.538 536.294,141.538 546.094,141.538 555.894,141.538 565.693,141.538 575.493,141.538 585.293,141.538 595.092,141.538 604.892,141.538 614.692,141.538 624.492,141.538 634.291,141.538 644.091,141.538" fill="none" stroke="black" stroke-width="0.5" stroke-linecap="round" stroke-linejoin="round" stroke-dasharray="1 3"/><polyline points="65.909,49.231 75.709,49.231 85.508,49.231 95.308,49.231 105.108,49.231 114.908,49.231 124.707,49.231 134.507,49.231 144.307,49.231 154.106,49.231 163.906,49.231 173.706,49.231 183.505,49.231 193.305,49.231 203.105,49.231 212.904,49.231 222.704,49.231 232.504,49.231 242.304,49.231 252.103,49.231 261.903,49.231 271.703,49.231 281.502,49.231 291.302,49.231 301.102,49.231 310.901,49.231 320.701,49.231 330.501,49.231 340.3,49.231 350.1,49.231 359.9,49.231 369.7,49.231 379.499,49.231 389.299,49.231 399.099,49.231 408.898,49.231 418.698,49.231 428.498,49.231 438.297,49.231 448.097,49.231 457.897,49.231 467.696,49.231 477.496,49.231 487.296,49.231 497.096,49.231 506.895,49.231 516.695,49.231 526.495,49.231 536.294,49.231 546.094,49.231 555.894,49.231 565.693,49.231 575.493,49.231 585.293,49.231 595.092,49.231 604.892,49.231 614.692,49.231 624.492,49.231 634.291,49.231 644.091,49.231" fill="none" stroke="black" stroke-width="0.5" stroke-linecap="round" stroke-linejoin="round" stroke-dasharray="1 3"/><polygon points="210.455,153.846 224.909,129.231 249,98.462 282.727,73.846 326.091,70.769 355,86.154 379.091,104.615 386.318,129.231 369.455,163.077 335.727,181.538 297.182,193.846 258.636,187.692 224.909,172.308 210.455,153.846" fill="url(#bland-pattern-dots_sparse)" stroke="black" stroke-width="0.8" stroke-linejoin="round"/><polygon points="388.727,221.538 403.182,196.923 427.273,166.154 451.364,132.308 480.273,123.077 499.545,138.462 499.545,166.154 489.909,200 470.636,221.538 441.727,233.846 412.818,230.769 388.727,221.538" fill="url(#bland-pattern-dots_sparse)" stroke="black" stroke-width="0.8" stroke-linejoin="round"/><polygon points="461,246.154 456.182,221.538 465.818,206.154 485.091,200 509.182,212.308 528.455,236.923 542.909,264.615 547.727,298.462 535.682,326.154 509.182,335.385 480.273,329.231 461,310.769 456.182,276.923 461,246.154" fill="url(#bland-pattern-dots_sparse)" stroke="black" stroke-width="0.8" stroke-linejoin="round"/><polygon points="598.318,218.462 607.955,190.769 627.227,175.385 656.136,184.615 673,212.308 675.409,246.154 658.545,267.692 629.636,270.769 605.545,258.462 595.909,240 598.318,218.462" fill="url(#bland-pattern-dots_sparse)" stroke="black" stroke-width="0.8" stroke-linejoin="round"/><polygon points="557.364,320 567,344.615 579.045,372.308 595.909,396.923 624.818,403.077 634.455,378.462 634.455,347.692 617.591,326.154 586.273,313.846 557.364,320" fill="url(#bland-pattern-dots_sparse)" stroke="black" stroke-width="0.8" stroke-linejoin="round"/><polygon points="504.364,381.538 516.409,400 535.682,412.308 547.727,430.769 545.318,455.385 523.636,464.615 499.545,452.308 492.318,421.538 499.545,393.846 504.364,381.538" fill="url(#bland-pattern-dots_sparse)" stroke="black" stroke-width="0.8" stroke-linejoin="round"/><polygon points="249,412.308 268.273,433.846 297.182,443.077 323.682,449.231 335.727,470.769 316.455,486.154 287.545,489.231 258.636,480 236.955,458.462 239.364,430.769 249,412.308" fill="url(#bland-pattern-dots_sparse)" stroke="black" stroke-width="0.8" stroke-linejoin="round"/><polygon points="191.182,443.077 200.818,464.615 191.182,492.308 164.682,504.615 143,489.231 140.591,461.538 157.455,440 179.136,433.846 191.182,443.077" fill="url(#bland-pattern-dots_sparse)" stroke="black" stroke-width="0.8" stroke-linejoin="round"/><polygon points="90,-6.154 162.273,-30.769 258.636,-49.231 355,-43.077 441.727,-27.692 523.636,-21.538 547.727,-6.154 509.182,9.231 427.273,3.077 355,-6.154 234.545,6.154 138.182,18.462 90,-6.154" fill="url(#bland-pattern-dots_sparse)" stroke="black" stroke-width="0.8" stroke-linejoin="round"/><polygon points="-54.545,49.231 17.727,27.692 90,67.692 138.182,98.462 162.273,153.846 171.909,221.538 152.636,301.538 123.727,356.923 90,418.462 46.636,461.538 -6.364,461.538 -30.455,400 -40.091,326.154 -44.909,240 -44.909,141.538 -54.545,49.231" fill="url(#bland-pattern-dots_sparse)" stroke="black" stroke-width="0.8" stroke-linejoin="round"/><polygon points="234.545,369.231 249,381.538 261.045,396.923 256.227,412.308 236.955,409.231 224.909,390.769 234.545,369.231" fill="url(#bland-pattern-dots_sparse)" stroke="black" stroke-width="0.8" stroke-linejoin="round"/><polygon points="357.409,224.615 376.682,230.769 391.136,249.231 381.5,270.769 359.818,267.692 347.773,249.231 357.409,224.615" fill="url(#bland-pattern-dots_sparse)" stroke="black" stroke-width="0.8" stroke-linejoin="round"/><polygon points="752.5,301.538 769.364,292.308 788.636,313.846 795.864,344.615 779,366.154 754.909,353.846 747.682,326.154 752.5,301.538" fill="url(#bland-pattern-dots_sparse)" stroke="black" stroke-width="0.8" stroke-linejoin="round"/><line x1="461.083" y1="315.031" x2="475.083" y2="329.031" stroke="black" stroke-width="1"/><line x1="461.083" y1="329.031" x2="475.083" y2="315.031" stroke="black" stroke-width="1"/><line x1="235.158" y1="337.677" x2="249.158" y2="351.677" stroke="black" stroke-width="1"/><line x1="235.158" y1="351.677" x2="249.158" y2="337.677" stroke="black" stroke-width="1"/><line x1="263.826" y1="341.615" x2="277.826" y2="355.615" stroke="black" stroke-width="1"/><line x1="263.826" y1="355.615" x2="277.826" y2="341.615" stroke="black" stroke-width="1"/><line x1="365.49" y1="158.354" x2="379.49" y2="172.354" stroke="black" stroke-width="1"/><line x1="365.49" y1="172.354" x2="379.49" y2="158.354" stroke="black" stroke-width="1"/><line x1="422.682" y1="374.354" x2="436.682" y2="388.354" stroke="black" stroke-width="1"/><line x1="422.682" y1="388.354" x2="436.682" y2="374.354" stroke="black" stroke-width="1"/><line x1="496.255" y1="194.908" x2="510.255" y2="208.908" stroke="black" stroke-width="1"/><line x1="496.255" y1="208.908" x2="510.255" y2="194.908" stroke="black" stroke-width="1"/></g><rect x="90" y="80" width="530" height="400" fill="none" stroke="black" stroke-width="1"/><line x1="162.273" y1="480" x2="162.273" y2="476" stroke="black" stroke-width="1"/><text x="162.273" y="493" font-size="9" font-family="Times, &apos;Liberation Serif&apos;, serif" text-anchor="middle" fill="black">40°W</text><line x1="258.636" y1="480" x2="258.636" y2="476" stroke="black" stroke-width="1"/><text x="258.636" y="493" font-size="9" font-family="Times, &apos;Liberation Serif&apos;, serif" text-anchor="middle" fill="black">20°W</text><line x1="355" y1="480" x2="355" y2="476" stroke="black" stroke-width="1"/><text x="355" y="493" font-size="9" font-family="Times, &apos;Liberation Serif&apos;, serif" text-anchor="middle" fill="black">0°</text><line x1="451.364" y1="480" x2="451.364" y2="476" stroke="black" stroke-width="1"/><text x="451.364" y="493" font-size="9" font-family="Times, &apos;Liberation Serif&apos;, serif" text-anchor="middle" fill="black">20°E</text><line x1="547.727" y1="480" x2="547.727" y2="476" stroke="black" stroke-width="1"/><text x="547.727" y="493" font-size="9" font-family="Times, &apos;Liberation Serif&apos;, serif" text-anchor="middle" fill="black">40°E</text><line x1="90" y1="418.462" x2="94" y2="418.462" stroke="black" stroke-width="1"/><text x="86" y="420.962" font-size="9" font-family="Times, &apos;Liberation Serif&apos;, serif" text-anchor="end" fill="black">15°S</text><line x1="90" y1="326.154" x2="94" y2="326.154" stroke="black" stroke-width="1"/><text x="86" y="328.654" font-size="9" font-family="Times, &apos;Liberation Serif&apos;, serif" text-anchor="end" fill="black">0°</text><line x1="90" y1="233.846" x2="94" y2="233.846" stroke="black" stroke-width="1"/><text x="86" y="236.346" font-size="9" font-family="Times, &apos;Liberation Serif&apos;, serif" text-anchor="end" fill="black">15°N</text><line x1="90" y1="141.538" x2="94" y2="141.538" stroke="black" stroke-width="1"/><text x="86" y="144.038" font-size="9" font-family="Times, &apos;Liberation Serif&apos;, serif" text-anchor="end" fill="black">30°N</text><rect x="484" y="444" width="128" height="28" fill="white" stroke="black" stroke-width="0.8"/><line x1="502" y1="454" x2="510" y2="462" stroke="black" stroke-width="1"/><line x1="502" y1="462" x2="510" y2="454" stroke="black" stroke-width="1"/><text x="528" y="463" font-size="10" font-family="Times, &apos;Liberation Serif&apos;, serif" fill="black">Apollo</text><text x="475.31" y="312.8" font-size="9" font-family="Times, &apos;Liberation Serif&apos;, serif" fill="black" stroke="white" stroke-width="3" stroke-linejoin="round" paint-order="stroke" text-anchor="start">A11</text><text x="249.385" y="335.446" font-size="9" font-family="Times, &apos;Liberation Serif&apos;, serif" fill="black" stroke="white" stroke-width="3" stroke-linejoin="round" paint-order="stroke" text-anchor="start">A12</text><text x="278.054" y="339.385" font-size="9" font-family="Times, &apos;Liberation Serif&apos;, serif" fill="black" stroke="white" stroke-width="3" stroke-linejoin="round" paint-order="stroke" text-anchor="start">A14</text><text x="379.717" y="156.123" font-size="9" font-family="Times, &apos;Liberation Serif&apos;, serif" fill="black" stroke="white" stroke-width="3" stroke-linejoin="round" paint-order="stroke" text-anchor="start">A15</text><text x="436.909" y="372.123" font-size="9" font-family="Times, &apos;Liberation Serif&apos;, serif" fill="black" stroke="white" stroke-width="3" stroke-linejoin="round" paint-order="stroke" text-anchor="start">A16</text><text x="510.483" y="192.677" font-size="9" font-family="Times, &apos;Liberation Serif&apos;, serif" fill="black" stroke="white" stroke-width="3" stroke-linejoin="round" paint-order="stroke" text-anchor="start">A17</text></svg>