<?xml version="1.0" encoding="UTF-8"?>
<svg xmlns="http://www.w3.org/2000/svg" viewBox="0 0 720 440" width="720" height="440" shape-rendering="geometricPrecision" font-family="Times, 'Liberation Serif', serif"><rect x="0" y="0" width="720" height="440" fill="white"/><rect x="12" y="12" width="696" height="416" fill="none" stroke="black" stroke-width="0.8"/><defs><pattern id="bland-pattern-diagonal" patternUnits="userSpaceOnUse" width="8" height="8" patternTransform="rotate(45)"><line x1="0" y1="0" x2="0" y2="8" stroke="black" stroke-width="1"/></pattern></defs><text x="375" y="42" font-size="14" font-family="Times, &apos;Liberation Serif&apos;, serif" text-anchor="middle" letter-spacing="0.05em" fill="black">NOISY OBSERVATIONS</text><g opacity="0.7"><line x1="100.962" y1="80" x2="100.962" y2="360" stroke="black" stroke-width="0.4" stroke-dasharray="2 3"/><line x1="210.577" y1="80" x2="210.577" y2="360" stroke="black" stroke-width="0.4" stroke-dasharray="2 3"/><line x1="320.192" y1="80" x2="320.192" y2="360" stroke="black" stroke-width="0.4" stroke-dasharray="2 3"/><line x1="429.808" y1="80" x2="429.808" y2="360" stroke="black" stroke-width="0.4" stroke-dasharray="2 3"/><line x1="539.423" y1="80" x2="539.423" y2="360" stroke="black" stroke-width="0.4" stroke-dasharray="2 3"/><line x1="649.038" y1="80" x2="649.038" y2="360" stroke="black" stroke-width="0.4" stroke-dasharray="2 3"/><line x1="90" y1="360" x2="660" y2="360" stroke="black" stroke-width="0.4" stroke-dasharray="2 3"/><line x1="90" y1="313.333" x2="660" y2="313.333" stroke="black" stroke-width="0.4" stroke-dasharray="2 3"/><line x1="90" y1="266.667" x2="660" y2="266.667" stroke="black" stroke-width="0.4" stroke-dasharray="2 3"/><line x1="90" y1="220" x2="660" y2="220" stroke="black" stroke-width="0.4" stroke-dasharray="2 3"/><line x1="90" y1="173.333" x2="660" y2="173.333" stroke="black" stroke-width="0.4" stroke-dasharray="2 3"/><line x1="90" y1="126.667" x2="660" y2="126.667" stroke="black" stroke-width="0.4" stroke-dasharray="2 3"/><line x1="90" y1="80" x2="660" y2="80" stroke="black" stroke-width="0.4" stroke-dasharray="2 3"/></g><defs><clipPath id="bland-clip-plot"><rect x="90" y="80" width="570" height="280"/></clipPath></defs><g clip-path="url(#bland-clip-plot)"><polygon points="100.962,220 100.962,220 111.923,201.458 122.885,183.654 133.846,167.3 144.808,153.047 155.769,141.463 166.731,133.01 177.692,128.025 188.654,126.706 199.615,129.108 210.577,135.132 221.538,144.54 232.5,156.957 243.462,171.887 254.423,188.734 265.385,206.829 276.346,225.448 287.308,243.851 298.269,261.302 309.231,277.107 320.192,290.635 331.154,301.347 342.115,308.816 353.077,312.744 364.038,312.975 375,309.5 385.962,302.456 396.923,292.125 407.885,278.918 418.846,263.363 429.808,246.079 440.769,227.755 451.731,209.122 462.692,190.923 473.654,173.883 484.615,158.681 495.577,145.924 506.538,136.121 517.5,129.661 528.462,126.803 539.423,127.66 550.385,132.198 561.346,140.237 572.308,151.456 583.269,165.408 594.231,181.536 605.192,199.197 616.154,217.688 627.115,236.27 638.077,254.205 649.038,270.775 649.038,220" fill="url(#bland-pattern-diagonal)" stroke="none"/><polyline points="100.962,220 111.923,201.458 122.885,183.654 133.846,167.3 144.808,153.047 155.769,141.463 166.731,133.01 177.692,128.025 188.654,126.706 199.615,129.108 210.577,135.132 221.538,144.54 232.5,156.957 243.462,171.887 254.423,188.734 265.385,206.829 276.346,225.448 287.308,243.851 298.269,261.302 309.231,277.107 320.192,290.635 331.154,301.347 342.115,308.816 353.077,312.744 364.038,312.975 375,309.5 385.962,302.456 396.923,292.125 407.885,278.918 418.846,263.363 429.808,246.079 440.769,227.755 451.731,209.122 462.692,190.923 473.654,173.883 484.615,158.681 495.577,145.924 506.538,136.121 517.5,129.661 528.462,126.803 539.423,127.66 550.385,132.198 561.346,140.237 572.308,151.456 583.269,165.408 594.231,181.536 605.192,199.197 616.154,217.688 627.115,236.27 638.077,254.205 649.038,270.775" fill="none" stroke="black" stroke-width="1.2" stroke-linejoin="round"/><circle cx="100.962" cy="218.724" r="4" fill="none" stroke="black" stroke-width="1"/><circle cx="111.923" cy="198.547" r="4" fill="none" stroke="black" stroke-width="1"/><circle cx="122.885" cy="178.937" r="4" fill="none" stroke="black" stroke-width="1"/><circle cx="133.846" cy="174.994" r="4" fill="none" stroke="black" stroke-width="1"/><circle cx="144.808" cy="151.189" r="4" fill="none" stroke="black" stroke-width="1"/><circle cx="155.769" cy="151.945" r="4" fill="none" stroke="black" stroke-width="1"/><circle cx="166.731" cy="138.888" r="4" fill="none" stroke="black" stroke-width="1"/><circle cx="177.692" cy="139.832" r="4" fill="none" stroke="black" stroke-width="1"/><circle cx="188.654" cy="138.726" r="4" fill="none" stroke="black" stroke-width="1"/><circle cx="199.615" cy="120.262" r="4" fill="none" stroke="black" stroke-width="1"/><circle cx="210.577" cy="146.019" r="4" fill="none" stroke="black" stroke-width="1"/><circle cx="221.538" cy="153.518" r="4" fill="none" stroke="black" stroke-width="1"/><circle cx="232.5" cy="166.253" r="4" fill="none" stroke="black" stroke-width="1"/><circle cx="243.462" cy="185.456" r="4" fill="none" stroke="black" stroke-width="1"/><circle cx="254.423" cy="201.443" r="4" fill="none" stroke="black" stroke-width="1"/><circle cx="265.385" cy="202.841" r="4" fill="none" stroke="black" stroke-width="1"/><circle cx="276.346" cy="226.094" r="4" fill="none" stroke="black" stroke-width="1"/><circle cx="287.308" cy="233.347" r="4" fill="none" stroke="black" stroke-width="1"/><circle cx="298.269" cy="253.176" r="4" fill="none" stroke="black" stroke-width="1"/><circle cx="309.231" cy="289.325" r="4" fill="none" stroke="black" stroke-width="1"/><circle cx="320.192" cy="281.464" r="4" fill="none" stroke="black" stroke-width="1"/><circle cx="331.154" cy="309.526" r="4" fill="none" stroke="black" stroke-width="1"/><circle cx="342.115" cy="301.624" r="4" fill="none" stroke="black" stroke-width="1"/><circle cx="353.077" cy="302.189" r="4" fill="none" stroke="black" stroke-width="1"/><circle cx="364.038" cy="317.728" r="4" fill="none" stroke="black" stroke-width="1"/><circle cx="375" cy="314.035" r="4" fill="none" stroke="black" stroke-width="1"/><circle cx="385.962" cy="300.167" r="4" fill="none" stroke="black" stroke-width="1"/><circle cx="396.923" cy="289.903" r="4" fill="none" stroke="black" stroke-width="1"/><circle cx="407.885" cy="265.428" r="4" fill="none" stroke="black" stroke-width="1"/><circle cx="418.846" cy="254.212" r="4" fill="none" stroke="black" stroke-width="1"/><circle cx="429.808" cy="233.93" r="4" fill="none" stroke="black" stroke-width="1"/><circle cx="440.769" cy="214.823" r="4" fill="none" stroke="black" stroke-width="1"/><circle cx="451.731" cy="212.713" r="4" fill="none" stroke="black" stroke-width="1"/><circle cx="462.692" cy="191.009" r="4" fill="none" stroke="black" stroke-width="1"/><circle cx="473.654" cy="180.71" r="4" fill="none" stroke="black" stroke-width="1"/><circle cx="484.615" cy="160.702" r="4" fill="none" stroke="black" stroke-width="1"/><circle cx="495.577" cy="156.024" r="4" fill="none" stroke="black" stroke-width="1"/><circle cx="506.538" cy="125.11" r="4" fill="none" stroke="black" stroke-width="1"/><circle cx="517.5" cy="122.337" r="4" fill="none" stroke="black" stroke-width="1"/><circle cx="528.462" cy="123.959" r="4" fill="none" stroke="black" stroke-width="1"/><circle cx="539.423" cy="115.686" r="4" fill="none" stroke="black" stroke-width="1"/><circle cx="550.385" cy="118.574" r="4" fill="none" stroke="black" stroke-width="1"/><circle cx="561.346" cy="145.992" r="4" fill="none" stroke="black" stroke-width="1"/><circle cx="572.308" cy="142.608" r="4" fill="none" stroke="black" stroke-width="1"/><circle cx="583.269" cy="169.069" r="4" fill="none" stroke="black" stroke-width="1"/><circle cx="594.231" cy="192.138" r="4" fill="none" stroke="black" stroke-width="1"/><circle cx="605.192" cy="187.06" r="4" fill="none" stroke="black" stroke-width="1"/><circle cx="616.154" cy="204.943" r="4" fill="none" stroke="black" stroke-width="1"/><circle cx="627.115" cy="241.263" r="4" fill="none" stroke="black" stroke-width="1"/><circle cx="638.077" cy="244.504" r="4" fill="none" stroke="black" stroke-width="1"/><circle cx="649.038" cy="272.801" r="4" fill="none" stroke="black" stroke-width="1"/><line x1="96.962" y1="160.973" x2="104.962" y2="168.973" stroke="black" stroke-width="1"/><line x1="96.962" y1="168.973" x2="104.962" y2="160.973" stroke="black" stroke-width="1"/><line x1="107.923" y1="170.578" x2="115.923" y2="178.578" stroke="black" stroke-width="1"/><line x1="107.923" y1="178.578" x2="115.923" y2="170.578" stroke="black" stroke-width="1"/><line x1="118.885" y1="175.36" x2="126.885" y2="183.36" stroke="black" stroke-width="1"/><line x1="118.885" y1="183.36" x2="126.885" y2="175.36" stroke="black" stroke-width="1"/><line x1="129.846" y1="184.922" x2="137.846" y2="192.922" stroke="black" stroke-width="1"/><line x1="129.846" y1="192.922" x2="137.846" y2="184.922" stroke="black" stroke-width="1"/><line x1="140.808" y1="182.803" x2="148.808" y2="190.803" stroke="black" stroke-width="1"/><line x1="140.808" y1="190.803" x2="148.808" y2="182.803" stroke="black" stroke-width="1"/><line x1="151.769" y1="187.959" x2="159.769" y2="195.959" stroke="black" stroke-width="1"/><line x1="151.769" y1="195.959" x2="159.769" y2="187.959" stroke="black" stroke-width="1"/><line x1="162.731" y1="193.333" x2="170.731" y2="201.333" stroke="black" stroke-width="1"/><line x1="162.731" y1="201.333" x2="170.731" y2="193.333" stroke="black" stroke-width="1"/><line x1="173.692" y1="205.862" x2="181.692" y2="213.862" stroke="black" stroke-width="1"/><line x1="173.692" y1="213.862" x2="181.692" y2="205.862" stroke="black" stroke-width="1"/><line x1="184.654" y1="212.006" x2="192.654" y2="220.006" stroke="black" stroke-width="1"/><line x1="184.654" y1="220.006" x2="192.654" y2="212.006" stroke="black" stroke-width="1"/><line x1="195.615" y1="228.128" x2="203.615" y2="236.128" stroke="black" stroke-width="1"/><line x1="195.615" y1="236.128" x2="203.615" y2="228.128" stroke="black" stroke-width="1"/><line x1="206.577" y1="231.061" x2="214.577" y2="239.061" stroke="black" stroke-width="1"/><line x1="206.577" y1="239.061" x2="214.577" y2="231.061" stroke="black" stroke-width="1"/><line x1="217.538" y1="248.305" x2="225.538" y2="256.305" stroke="black" stroke-width="1"/><line x1="217.538" y1="256.305" x2="225.538" y2="248.305" stroke="black" stroke-width="1"/><line x1="228.5" y1="242.897" x2="236.5" y2="250.897" stroke="black" stroke-width="1"/><line x1="228.5" y1="250.897" x2="236.5" y2="242.897" stroke="black" stroke-width="1"/><line x1="239.462" y1="259.034" x2="247.462" y2="267.034" stroke="black" stroke-width="1"/><line x1="239.462" y1="267.034" x2="247.462" y2="259.034" stroke="black" stroke-width="1"/><line x1="250.423" y1="260.772" x2="258.423" y2="268.772" stroke="black" stroke-width="1"/><line x1="250.423" y1="268.772" x2="258.423" y2="260.772" stroke="black" stroke-width="1"/><line x1="261.385" y1="257.127" x2="269.385" y2="265.127" stroke="black" stroke-width="1"/><line x1="261.385" y1="265.127" x2="269.385" y2="257.127" stroke="black" stroke-width="1"/><line x1="272.346" y1="261.197" x2="280.346" y2="269.197" stroke="black" stroke-width="1"/><line x1="272.346" y1="269.197" x2="280.346" y2="261.197" stroke="black" stroke-width="1"/><line x1="283.308" y1="268.562" x2="291.308" y2="276.562" stroke="black" stroke-width="1"/><line x1="283.308" y1="276.562" x2="291.308" y2="268.562" stroke="black" stroke-width="1"/><line x1="294.269" y1="265.997" x2="302.269" y2="273.997" stroke="black" stroke-width="1"/><line x1="294.269" y1="273.997" x2="302.269" y2="265.997" stroke="black" stroke-width="1"/><line x1="305.231" y1="257.109" x2="313.231" y2="265.109" stroke="black" stroke-width="1"/><line x1="305.231" y1="265.109" x2="313.231" y2="257.109" stroke="black" stroke-width="1"/><line x1="316.192" y1="237.731" x2="324.192" y2="245.731" stroke="black" stroke-width="1"/><line x1="316.192" y1="245.731" x2="324.192" y2="237.731" stroke="black" stroke-width="1"/><line x1="327.154" y1="247.503" x2="335.154" y2="255.503" stroke="black" stroke-width="1"/><line x1="327.154" y1="255.503" x2="335.154" y2="247.503" stroke="black" stroke-width="1"/><line x1="338.115" y1="231.69" x2="346.115" y2="239.69" stroke="black" stroke-width="1"/><line x1="338.115" y1="239.69" x2="346.115" y2="231.69" stroke="black" stroke-width="1"/><line x1="349.077" y1="225.458" x2="357.077" y2="233.458" stroke="black" stroke-width="1"/><line x1="349.077" y1="233.458" x2="357.077" y2="225.458" stroke="black" stroke-width="1"/><line x1="360.038" y1="216.716" x2="368.038" y2="224.716" stroke="black" stroke-width="1"/><line x1="360.038" y1="224.716" x2="368.038" y2="216.716" stroke="black" stroke-width="1"/><line x1="371" y1="209.231" x2="379" y2="217.231" stroke="black" stroke-width="1"/><line x1="371" y1="217.231" x2="379" y2="209.231" stroke="black" stroke-width="1"/><line x1="381.962" y1="197.424" x2="389.962" y2="205.424" stroke="black" stroke-width="1"/><line x1="381.962" y1="205.424" x2="389.962" y2="197.424" stroke="black" stroke-width="1"/><line x1="392.923" y1="185.722" x2="400.923" y2="193.722" stroke="black" stroke-width="1"/><line x1="392.923" y1="193.722" x2="400.923" y2="185.722" stroke="black" stroke-width="1"/><line x1="403.885" y1="177.032" x2="411.885" y2="185.032" stroke="black" stroke-width="1"/><line x1="403.885" y1="185.032" x2="411.885" y2="177.032" stroke="black" stroke-width="1"/><line x1="414.846" y1="166.246" x2="422.846" y2="174.246" stroke="black" stroke-width="1"/><line x1="414.846" y1="174.246" x2="422.846" y2="166.246" stroke="black" stroke-width="1"/><line x1="425.808" y1="163.231" x2="433.808" y2="171.231" stroke="black" stroke-width="1"/><line x1="425.808" y1="171.231" x2="433.808" y2="163.231" stroke="black" stroke-width="1"/><line x1="436.769" y1="168.692" x2="444.769" y2="176.692" stroke="black" stroke-width="1"/><line x1="436.769" y1="176.692" x2="444.769" y2="168.692" stroke="black" stroke-width="1"/><line x1="447.731" y1="170.846" x2="455.731" y2="178.846" stroke="black" stroke-width="1"/><line x1="447.731" y1="178.846" x2="455.731" y2="170.846" stroke="black" stroke-width="1"/><line x1="458.692" y1="179.58" x2="466.692" y2="187.58" stroke="black" stroke-width="1"/><line x1="458.692" y1="187.58" x2="466.692" y2="179.58" stroke="black" stroke-width="1"/><line x1="469.654" y1="175.544" x2="477.654" y2="183.544" stroke="black" stroke-width="1"/><line x1="469.654" y1="183.544" x2="477.654" y2="175.544" stroke="black" stroke-width="1"/><line x1="480.615" y1="177.509" x2="488.615" y2="185.509" stroke="black" stroke-width="1"/><line x1="480.615" y1="185.509" x2="488.615" y2="177.509" stroke="black" stroke-width="1"/><line x1="491.577" y1="183.726" x2="499.577" y2="191.726" stroke="black" stroke-width="1"/><line x1="491.577" y1="191.726" x2="499.577" y2="183.726" stroke="black" stroke-width="1"/><line x1="502.538" y1="200.197" x2="510.538" y2="208.197" stroke="black" stroke-width="1"/><line x1="502.538" y1="208.197" x2="510.538" y2="200.197" stroke="black" stroke-width="1"/><line x1="513.5" y1="198.332" x2="521.5" y2="206.332" stroke="black" stroke-width="1"/><line x1="513.5" y1="206.332" x2="521.5" y2="198.332" stroke="black" stroke-width="1"/><line x1="524.462" y1="216.686" x2="532.462" y2="224.686" stroke="black" stroke-width="1"/><line x1="524.462" y1="224.686" x2="532.462" y2="216.686" stroke="black" stroke-width="1"/><line x1="535.423" y1="226.237" x2="543.423" y2="234.237" stroke="black" stroke-width="1"/><line x1="535.423" y1="234.237" x2="543.423" y2="226.237" stroke="black" stroke-width="1"/><line x1="546.385" y1="227.596" x2="554.385" y2="235.596" stroke="black" stroke-width="1"/><line x1="546.385" y1="235.596" x2="554.385" y2="227.596" stroke="black" stroke-width="1"/><line x1="557.346" y1="240.95" x2="565.346" y2="248.95" stroke="black" stroke-width="1"/><line x1="557.346" y1="248.95" x2="565.346" y2="240.95" stroke="black" stroke-width="1"/><line x1="568.308" y1="253.1" x2="576.308" y2="261.1" stroke="black" stroke-width="1"/><line x1="568.308" y1="261.1" x2="576.308" y2="253.1" stroke="black" stroke-width="1"/><line x1="579.269" y1="252.126" x2="587.269" y2="260.126" stroke="black" stroke-width="1"/><line x1="579.269" y1="260.126" x2="587.269" y2="252.126" stroke="black" stroke-width="1"/><line x1="590.231" y1="260.776" x2="598.231" y2="268.776" stroke="black" stroke-width="1"/><line x1="590.231" y1="268.776" x2="598.231" y2="260.776" stroke="black" stroke-width="1"/><line x1="601.192" y1="258.769" x2="609.192" y2="266.769" stroke="black" stroke-width="1"/><line x1="601.192" y1="266.769" x2="609.192" y2="258.769" stroke="black" stroke-width="1"/><line x1="612.154" y1="257" x2="620.154" y2="265" stroke="black" stroke-width="1"/><line x1="612.154" y1="265" x2="620.154" y2="257" stroke="black" stroke-width="1"/><line x1="623.115" y1="254.073" x2="631.115" y2="262.073" stroke="black" stroke-width="1"/><line x1="623.115" y1="262.073" x2="631.115" y2="254.073" stroke="black" stroke-width="1"/><line x1="634.077" y1="263.119" x2="642.077" y2="271.119" stroke="black" stroke-width="1"/><line x1="634.077" y1="271.119" x2="642.077" y2="263.119" stroke="black" stroke-width="1"/><line x1="645.038" y1="262.277" x2="653.038" y2="270.277" stroke="black" stroke-width="1"/><line x1="645.038" y1="270.277" x2="653.038" y2="262.277" stroke="black" stroke-width="1"/><polyline points="100.962,220 111.923,201.458 122.885,183.654 133.846,167.3 144.808,153.047 155.769,141.463 166.731,133.01 177.692,128.025 188.654,126.706 199.615,129.108 210.577,135.132 221.538,144.54 232.5,156.957 243.462,171.887 254.423,188.734 265.385,206.829 276.346,225.448 287.308,243.851 298.269,261.302 309.231,277.107 320.192,290.635 331.154,301.347 342.115,308.816 353.077,312.744 364.038,312.975 375,309.5 385.962,302.456 396.923,292.125 407.885,278.918 418.846,263.363 429.808,246.079 440.769,227.755 451.731,209.122 462.692,190.923 473.654,173.883 484.615,158.681 495.577,145.924 506.538,136.121 517.5,129.661 528.462,126.803 539.423,127.66 550.385,132.198 561.346,140.237 572.308,151.456 583.269,165.408 594.231,181.536 605.192,199.197 616.154,217.688 627.115,236.27 638.077,254.205 649.038,270.775" fill="none" stroke="black" stroke-width="1.2" stroke-linecap="round" stroke-linejoin="round"/><polyline points="100.962,173.333 111.923,174.264 122.885,177.017 133.846,181.484 144.808,187.487 155.769,194.786 166.731,203.09 177.692,212.068 188.654,221.363 199.615,230.603 210.577,239.42 221.538,247.463 232.5,254.412 243.462,259.988 254.423,263.97 265.385,266.2 276.346,266.587 287.308,265.117 298.269,261.849 309.231,256.912 320.192,250.503 331.154,242.879 342.115,234.342 353.077,225.234 364.038,215.917 375,206.762 385.962,198.136 396.923,190.381 407.885,183.807 418.846,178.676 429.808,175.192 440.769,173.495 451.731,173.651 462.692,175.656 473.654,179.428 484.615,184.818 495.577,191.61 506.538,199.534 517.5,208.275 528.462,217.482 539.423,226.79 550.385,235.827 561.346,244.233 572.308,251.674 583.269,257.851 594.231,262.519 605.192,265.493 616.154,266.652 627.115,265.952 638.077,263.42 649.038,259.157" fill="none" stroke="black" stroke-width="1.2" stroke-linecap="round" stroke-linejoin="round" stroke-dasharray="6 3"/></g><rect x="90" y="80" width="570" height="280" fill="none" stroke="black" stroke-width="1"/><line x1="100.962" y1="360" x2="100.962" y2="356" stroke="black" stroke-width="1"/><text x="100.962" y="373" font-size="9" font-family="Times, &apos;Liberation Serif&apos;, serif" text-anchor="middle" fill="black">0</text><line x1="210.577" y1="360" x2="210.577" y2="356" stroke="black" stroke-width="1"/><text x="210.577" y="373" font-size="9" font-family="Times, &apos;Liberation Serif&apos;, serif" text-anchor="middle" fill="black">2</text><line x1="320.192" y1="360" x2="320.192" y2="356" stroke="black" stroke-width="1"/><text x="320.192" y="373" font-size="9" font-family="Times, &apos;Liberation Serif&apos;, serif" text-anchor="middle" fill="black">4</text><line x1="429.808" y1="360" x2="429.808" y2="356" stroke="black" stroke-width="1"/><text x="429.808" y="373" font-size="9" font-family="Times, &apos;Liberation Serif&apos;, serif" text-anchor="middle" fill="black">6</text><line x1="539.423" y1="360" x2="539.423" y2="356" stroke="black" stroke-width="1"/><text x="539.423" y="373" font-size="9" font-family="Times, &apos;Liberation Serif&apos;, serif" text-anchor="middle" fill="black">8</text><line x1="649.038" y1="360" x2="649.038" y2="356" stroke="black" stroke-width="1"/><text x="649.038" y="373" font-size="9" font-family="Times, &apos;Liberation Serif&apos;, serif" text-anchor="middle" fill="black">10</text><line x1="90" y1="360" x2="94" y2="360" stroke="black" stroke-width="1"/><text x="86" y="362.5" font-size="9" font-family="Times, &apos;Liberation Serif&apos;, serif" text-anchor="end" fill="black">-1.5</text><line x1="90" y1="313.333" x2="94" y2="313.333" stroke="black" stroke-width="1"/><text x="86" y="315.833" font-size="9" font-family="Times, &apos;Liberation Serif&apos;, serif" text-anchor="end" fill="black">-1</text><line x1="90" y1="266.667" x2="94" y2="266.667" stroke="black" stroke-width="1"/><text x="86" y="269.167" font-size="9" font-family="Times, &apos;Liberation Serif&apos;, serif" text-anchor="end" fill="black">-0.5</text><line x1="90" y1="220" x2="94" y2="220" stroke="black" stroke-width="1"/><text x="86" y="222.5" font-size="9" font-family="Times, &apos;Liberation Serif&apos;, serif" text-anchor="end" fill="black">0</text><line x1="90" y1="173.333" x2="94" y2="173.333" stroke="black" stroke-width="1"/><text x="86" y="175.833" font-size="9" font-family="Times, &apos;Liberation Serif&apos;, serif" text-anchor="end" fill="black">0.5</text><line x1="90" y1="126.667" x2="94" y2="126.667" stroke="black" stroke-width="1"/><text x="86" y="129.167" font-size="9" font-family="Times, &apos;Liberation Serif&apos;, serif" text-anchor="end" fill="black">1</text><line x1="90" y1="80" x2="94" y2="80" stroke="black" stroke-width="1"/><text x="86" y="82.5" font-size="9" font-family="Times, &apos;Liberation Serif&apos;, serif" text-anchor="end" fill="black">1.5</text><text x="375" y="395" font-size="11" font-family="Times, &apos;Liberation Serif&apos;, serif" text-anchor="middle" fill="black" font-style="italic">x</text><text x="46" y="220" font-size="11" font-family="Times, &apos;Liberation Serif&apos;, serif" text-anchor="middle" fill="black" font-style="italic" transform="rotate(-90 46 220)">y</text><rect x="521.5" y="88" width="130.5" height="78" fill="white" stroke="black" stroke-width="0.8"/><text x="529.5" y="107" font-size="10" font-family="Times, &apos;Liberation Serif&apos;, serif" font-weight="bold" fill="black">Series</text><rect x="529.5" y="113" width="28" height="12" fill="url(#bland-pattern-diagonal)" stroke="none"/><line x1="529.5" y1="113" x2="557.5" y2="113" stroke="black" stroke-width="1"/><text x="565.5" y="125" font-size="10" font-family="Times, &apos;Liberation Serif&apos;, serif" fill="black">sin(x) envelope</text><circle cx="543.5" cy="136" r="4" fill="none" stroke="black" stroke-width="1"/><text x="565.5" y="141" font-size="10" font-family="Times, &apos;Liberation Serif&apos;, serif" fill="black">measurement A</text><line x1="539.5" y1="148" x2="547.5" y2="156" stroke="black" stroke-width="1"/><line x1="539.5" y1="156" x2="547.5" y2="148" stroke="black" stroke-width="1"/><text x="565.5" y="157" font-size="10" font-family="Times, &apos;Liberation Serif&apos;, serif" fill="black">measurement B</text></svg>