<?xml version="1.0" encoding="UTF-8"?>
<svg xmlns="http://www.w3.org/2000/svg" viewBox="0 0 720 440" width="720" height="440" shape-rendering="geometricPrecision" font-family="Times, 'Liberation Serif', serif"><rect x="0" y="0" width="720" height="440" fill="white"/><rect x="12" y="12" width="696" height="416" fill="none" stroke="black" stroke-width="0.8"/><defs><pattern id="bland-pattern-diagonal" patternUnits="userSpaceOnUse" width="8" height="8" patternTransform="rotate(45)"><line x1="0" y1="0" x2="0" y2="8" stroke="black" stroke-width="1"/></pattern><pattern id="bland-pattern-crosshatch" patternUnits="userSpaceOnUse" width="10" height="10"><line x1="0" y1="0" x2="10" y2="10" stroke="black" stroke-width="1"/><line x1="10" y1="0" x2="0" y2="10" stroke="black" stroke-width="1"/></pattern><pattern id="bland-pattern-dots_sparse" patternUnits="userSpaceOnUse" width="10" height="10"><circle cx="5" cy="5" r="1.2" fill="black"/></pattern></defs><text x="375" y="42" font-size="14" font-family="Times, &apos;Liberation Serif&apos;, serif" text-anchor="middle" letter-spacing="0.05em" fill="black">MONTHLY THROUGHPUT</text><g opacity="0.7"><line x1="137.5" y1="80" x2="137.5" y2="360" stroke="black" stroke-width="0.4" stroke-dasharray="2 3"/><line x1="232.5" y1="80" x2="232.5" y2="360" stroke="black" stroke-width="0.4" stroke-dasharray="2 3"/><line x1="327.5" y1="80" x2="327.5" y2="360" stroke="black" stroke-width="0.4" stroke-dasharray="2 3"/><line x1="422.5" y1="80" x2="422.5" y2="360" stroke="black" stroke-width="0.4" stroke-dasharray="2 3"/><line x1="517.5" y1="80" x2="517.5" y2="360" stroke="black" stroke-width="0.4" stroke-dasharray="2 3"/><line x1="612.5" y1="80" x2="612.5" y2="360" stroke="black" stroke-width="0.4" stroke-dasharray="2 3"/><line x1="90" y1="340.69" x2="660" y2="340.69" stroke="black" stroke-width="0.4" stroke-dasharray="2 3"/><line x1="90" y1="254.483" x2="660" y2="254.483" stroke="black" stroke-width="0.4" stroke-dasharray="2 3"/><line x1="90" y1="168.276" x2="660" y2="168.276" stroke="black" stroke-width="0.4" stroke-dasharray="2 3"/><line x1="90" y1="82.069" x2="660" y2="82.069" stroke="black" stroke-width="0.4" stroke-dasharray="2 3"/></g><defs><clipPath id="bland-clip-plot"><rect x="90" y="80" width="570" height="280"/></clipPath></defs><g clip-path="url(#bland-clip-plot)"><rect x="98.233" y="237.241" width="25.333" height="103.448" fill="url(#bland-pattern-diagonal)" stroke="black" stroke-width="1.2"/><rect x="193.233" y="185.517" width="25.333" height="155.172" fill="url(#bland-pattern-diagonal)" stroke="black" stroke-width="1.2"/><rect x="288.233" y="211.379" width="25.333" height="129.31" fill="url(#bland-pattern-diagonal)" stroke="black" stroke-width="1.2"/><rect x="383.233" y="151.034" width="25.333" height="189.655" fill="url(#bland-pattern-diagonal)" stroke="black" stroke-width="1.2"/><rect x="478.233" y="176.897" width="25.333" height="163.793" fill="url(#bland-pattern-diagonal)" stroke="black" stroke-width="1.2"/><rect x="573.233" y="125.172" width="25.333" height="215.517" fill="url(#bland-pattern-diagonal)" stroke="black" stroke-width="1.2"/><rect x="124.833" y="263.103" width="25.333" height="77.586" fill="url(#bland-pattern-crosshatch)" stroke="black" stroke-width="1.2"/><rect x="219.833" y="220" width="25.333" height="120.69" fill="url(#bland-pattern-crosshatch)" stroke="black" stroke-width="1.2"/><rect x="314.833" y="185.517" width="25.333" height="155.172" fill="url(#bland-pattern-crosshatch)" stroke="black" stroke-width="1.2"/><rect x="409.833" y="176.897" width="25.333" height="163.793" fill="url(#bland-pattern-crosshatch)" stroke="black" stroke-width="1.2"/><rect x="504.833" y="151.034" width="25.333" height="189.655" fill="url(#bland-pattern-crosshatch)" stroke="black" stroke-width="1.2"/><rect x="599.833" y="99.31" width="25.333" height="241.379" fill="url(#bland-pattern-crosshatch)" stroke="black" stroke-width="1.2"/><rect x="151.433" y="254.483" width="25.333" height="86.207" fill="url(#bland-pattern-dots_sparse)" stroke="black" stroke-width="1.2"/><rect x="246.433" y="245.862" width="25.333" height="94.828" fill="url(#bland-pattern-dots_sparse)" stroke="black" stroke-width="1.2"/><rect x="341.433" y="228.621" width="25.333" height="112.069" fill="url(#bland-pattern-dots_sparse)" stroke="black" stroke-width="1.2"/><rect x="436.433" y="194.138" width="25.333" height="146.552" fill="url(#bland-pattern-dots_sparse)" stroke="black" stroke-width="1.2"/><rect x="531.433" y="168.276" width="25.333" height="172.414" fill="url(#bland-pattern-dots_sparse)" stroke="black" stroke-width="1.2"/><rect x="626.433" y="151.034" width="25.333" height="189.655" fill="url(#bland-pattern-dots_sparse)" stroke="black" stroke-width="1.2"/></g><rect x="90" y="80" width="570" height="280" fill="none" stroke="black" stroke-width="1"/><line x1="137.5" y1="360" x2="137.5" y2="356" stroke="black" stroke-width="1"/><text x="137.5" y="373" font-size="9" font-family="Times, &apos;Liberation Serif&apos;, serif" text-anchor="middle" fill="black">Jan</text><line x1="232.5" y1="360" x2="232.5" y2="356" stroke="black" stroke-width="1"/><text x="232.5" y="373" font-size="9" font-family="Times, &apos;Liberation Serif&apos;, serif" text-anchor="middle" fill="black">Feb</text><line x1="327.5" y1="360" x2="327.5" y2="356" stroke="black" stroke-width="1"/><text x="327.5" y="373" font-size="9" font-family="Times, &apos;Liberation Serif&apos;, serif" text-anchor="middle" fill="black">Mar</text><line x1="422.5" y1="360" x2="422.5" y2="356" stroke="black" stroke-width="1"/><text x="422.5" y="373" font-size="9" font-family="Times, &apos;Liberation Serif&apos;, serif" text-anchor="middle" fill="black">Apr</text><line x1="517.5" y1="360" x2="517.5" y2="356" stroke="black" stroke-width="1"/><text x="517.5" y="373" font-size="9" font-family="Times, &apos;Liberation Serif&apos;, serif" text-anchor="middle" fill="black">May</text><line x1="612.5" y1="360" x2="612.5" y2="356" stroke="black" stroke-width="1"/><text x="612.5" y="373" font-size="9" font-family="Times, &apos;Liberation Serif&apos;, serif" text-anchor="middle" fill="black">Jun</text><line x1="90" y1="340.69" x2="94" y2="340.69" stroke="black" stroke-width="1"/><text x="86" y="343.19" font-size="9" font-family="Times, &apos;Liberation Serif&apos;, serif" text-anchor="end" fill="black">0</text><line x1="90" y1="254.483" x2="94" y2="254.483" stroke="black" stroke-width="1"/><text x="86" y="256.983" font-size="9" font-family="Times, &apos;Liberation Serif&apos;, serif" text-anchor="end" fill="black">10</text><line x1="90" y1="168.276" x2="94" y2="168.276" stroke="black" stroke-width="1"/><text x="86" y="170.776" font-size="9" font-family="Times, &apos;Liberation Serif&apos;, serif" text-anchor="end" fill="black">20</text><line x1="90" y1="82.069" x2="94" y2="82.069" stroke="black" stroke-width="1"/><text x="86" y="84.569" font-size="9" font-family="Times, &apos;Liberation Serif&apos;, serif" text-anchor="end" fill="black">30</text><text x="375" y="395" font-size="11" font-family="Times, &apos;Liberation Serif&apos;, serif" text-anchor="middle" fill="black" font-style="italic">month</text><text x="46" y="220" font-size="11" font-family="Times, &apos;Liberation Serif&apos;, serif" text-anchor="middle" fill="black" font-style="italic" transform="rotate(-90 46 220)">units / kcycle</text><rect x="98" y="88" width="128" height="60" fill="white" stroke="black" stroke-width="0.8"/><rect x="106" y="95" width="28" height="12" fill="url(#bland-pattern-diagonal)" stroke="black" stroke-width="1"/><text x="142" y="107" font-size="10" font-family="Times, &apos;Liberation Serif&apos;, serif" fill="black">run A</text><rect x="106" y="111" width="28" height="12" fill="url(#bland-pattern-crosshatch)" stroke="black" stroke-width="1"/><text x="142" y="123" font-size="10" font-family="Times, &apos;Liberation Serif&apos;, serif" fill="black">run B</text><rect x="106" y="127" width="28" height="12" fill="url(#bland-pattern-dots_sparse)" stroke="black" stroke-width="1"/><text x="142" y="139" font-size="10" font-family="Times, &apos;Liberation Serif&apos;, serif" fill="black">run C</text></svg>