<?xml version="1.0" encoding="UTF-8"?>
<svg xmlns="http://www.w3.org/2000/svg" viewBox="0 0 720 440" width="720" height="440" shape-rendering="geometricPrecision" font-family="Times, 'Liberation Serif', serif"><rect x="0" y="0" width="720" height="440" fill="white"/><rect x="12" y="12" width="696" height="416" fill="none" stroke="black" stroke-width="0.8"/><text x="375" y="42" font-size="14" font-family="Times, &apos;Liberation Serif&apos;, serif" text-anchor="middle" letter-spacing="0.05em" fill="black">ERROR BARS</text><g opacity="0.7"><line x1="161.859" y1="80" x2="161.859" y2="360" stroke="black" stroke-width="0.4" stroke-dasharray="2 3"/><line x1="283.654" y1="80" x2="283.654" y2="360" stroke="black" stroke-width="0.4" stroke-dasharray="2 3"/><line x1="405.449" y1="80" x2="405.449" y2="360" stroke="black" stroke-width="0.4" stroke-dasharray="2 3"/><line x1="527.244" y1="80" x2="527.244" y2="360" stroke="black" stroke-width="0.4" stroke-dasharray="2 3"/><line x1="649.038" y1="80" x2="649.038" y2="360" stroke="black" stroke-width="0.4" stroke-dasharray="2 3"/><line x1="90" y1="314.176" x2="660" y2="314.176" stroke="black" stroke-width="0.4" stroke-dasharray="2 3"/><line x1="90" y1="261.144" x2="660" y2="261.144" stroke="black" stroke-width="0.4" stroke-dasharray="2 3"/><line x1="90" y1="208.112" x2="660" y2="208.112" stroke="black" stroke-width="0.4" stroke-dasharray="2 3"/><line x1="90" y1="155.08" x2="660" y2="155.08" stroke="black" stroke-width="0.4" stroke-dasharray="2 3"/><line x1="90" y1="102.048" x2="660" y2="102.048" stroke="black" stroke-width="0.4" stroke-dasharray="2 3"/></g><defs><clipPath id="bland-clip-plot"><rect x="90" y="80" width="570" height="280"/></clipPath></defs><g clip-path="url(#bland-clip-plot)"><line x1="100.962" y1="345.064" x2="100.962" y2="298.736" stroke="black" stroke-width="1.2"/><line x1="98.962" y1="345.064" x2="102.962" y2="345.064" stroke="black" stroke-width="1.2"/><line x1="98.962" y1="298.736" x2="102.962" y2="298.736" stroke="black" stroke-width="1.2"/><line x1="161.859" y1="366.244" x2="161.859" y2="315.135" stroke="black" stroke-width="1.2"/><line x1="159.859" y1="366.244" x2="163.859" y2="366.244" stroke="black" stroke-width="1.2"/><line x1="159.859" y1="315.135" x2="163.859" y2="315.135" stroke="black" stroke-width="1.2"/><line x1="222.756" y1="286.26" x2="222.756" y2="245.872" stroke="black" stroke-width="1.2"/><line x1="220.756" y1="286.26" x2="224.756" y2="286.26" stroke="black" stroke-width="1.2"/><line x1="220.756" y1="245.872" x2="224.756" y2="245.872" stroke="black" stroke-width="1.2"/><line x1="283.654" y1="263.834" x2="283.654" y2="217.242" stroke="black" stroke-width="1.2"/><line x1="281.654" y1="263.834" x2="285.654" y2="263.834" stroke="black" stroke-width="1.2"/><line x1="281.654" y1="217.242" x2="285.654" y2="217.242" stroke="black" stroke-width="1.2"/><line x1="344.551" y1="256.883" x2="344.551" y2="221.074" stroke="black" stroke-width="1.2"/><line x1="342.551" y1="256.883" x2="346.551" y2="256.883" stroke="black" stroke-width="1.2"/><line x1="342.551" y1="221.074" x2="346.551" y2="221.074" stroke="black" stroke-width="1.2"/><line x1="405.449" y1="224.137" x2="405.449" y2="175.827" stroke="black" stroke-width="1.2"/><line x1="403.449" y1="224.137" x2="407.449" y2="224.137" stroke="black" stroke-width="1.2"/><line x1="403.449" y1="175.827" x2="407.449" y2="175.827" stroke="black" stroke-width="1.2"/><line x1="466.346" y1="171.867" x2="466.346" y2="149.72" stroke="black" stroke-width="1.2"/><line x1="464.346" y1="171.867" x2="468.346" y2="171.867" stroke="black" stroke-width="1.2"/><line x1="464.346" y1="149.72" x2="468.346" y2="149.72" stroke="black" stroke-width="1.2"/><line x1="527.244" y1="175.732" x2="527.244" y2="122.965" stroke="black" stroke-width="1.2"/><line x1="525.244" y1="175.732" x2="529.244" y2="175.732" stroke="black" stroke-width="1.2"/><line x1="525.244" y1="122.965" x2="529.244" y2="122.965" stroke="black" stroke-width="1.2"/><line x1="588.141" y1="134.902" x2="588.141" y2="107.61" stroke="black" stroke-width="1.2"/><line x1="586.141" y1="134.902" x2="590.141" y2="134.902" stroke="black" stroke-width="1.2"/><line x1="586.141" y1="107.61" x2="590.141" y2="107.61" stroke="black" stroke-width="1.2"/><line x1="649.038" y1="114.153" x2="649.038" y2="84.468" stroke="black" stroke-width="1.2"/><line x1="647.038" y1="114.153" x2="651.038" y2="114.153" stroke="black" stroke-width="1.2"/><line x1="647.038" y1="84.468" x2="651.038" y2="84.468" stroke="black" stroke-width="1.2"/><circle cx="100.962" cy="321.9" r="4" fill="black"/><circle cx="161.859" cy="340.69" r="4" fill="black"/><circle cx="222.756" cy="266.066" r="4" fill="black"/><circle cx="283.654" cy="240.538" r="4" fill="black"/><circle cx="344.551" cy="238.978" r="4" fill="black"/><circle cx="405.449" cy="199.982" r="4" fill="black"/><circle cx="466.346" cy="160.793" r="4" fill="black"/><circle cx="527.244" cy="149.349" r="4" fill="black"/><circle cx="588.141" cy="121.256" r="4" fill="black"/><circle cx="649.038" cy="99.31" r="4" fill="black"/></g><rect x="90" y="80" width="570" height="280" fill="none" stroke="black" stroke-width="1"/><line x1="161.859" y1="360" x2="161.859" y2="356" stroke="black" stroke-width="1"/><text x="161.859" y="373" font-size="9" font-family="Times, &apos;Liberation Serif&apos;, serif" text-anchor="middle" fill="black">2</text><line x1="283.654" y1="360" x2="283.654" y2="356" stroke="black" stroke-width="1"/><text x="283.654" y="373" font-size="9" font-family="Times, &apos;Liberation Serif&apos;, serif" text-anchor="middle" fill="black">4</text><line x1="405.449" y1="360" x2="405.449" y2="356" stroke="black" stroke-width="1"/><text x="405.449" y="373" font-size="9" font-family="Times, &apos;Liberation Serif&apos;, serif" text-anchor="middle" fill="black">6</text><line x1="527.244" y1="360" x2="527.244" y2="356" stroke="black" stroke-width="1"/><text x="527.244" y="373" font-size="9" font-family="Times, &apos;Liberation Serif&apos;, serif" text-anchor="middle" fill="black">8</text><line x1="649.038" y1="360" x2="649.038" y2="356" stroke="black" stroke-width="1"/><text x="649.038" y="373" font-size="9" font-family="Times, &apos;Liberation Serif&apos;, serif" text-anchor="middle" fill="black">10</text><line x1="90" y1="314.176" x2="94" y2="314.176" stroke="black" stroke-width="1"/><text x="86" y="316.676" font-size="9" font-family="Times, &apos;Liberation Serif&apos;, serif" text-anchor="end" fill="black">1</text><line x1="90" y1="261.144" x2="94" y2="261.144" stroke="black" stroke-width="1"/><text x="86" y="263.644" font-size="9" font-family="Times, &apos;Liberation Serif&apos;, serif" text-anchor="end" fill="black">2</text><line x1="90" y1="208.112" x2="94" y2="208.112" stroke="black" stroke-width="1"/><text x="86" y="210.612" font-size="9" font-family="Times, &apos;Liberation Serif&apos;, serif" text-anchor="end" fill="black">3</text><line x1="90" y1="155.08" x2="94" y2="155.08" stroke="black" stroke-width="1"/><text x="86" y="157.58" font-size="9" font-family="Times, &apos;Liberation Serif&apos;, serif" text-anchor="end" fill="black">4</text><line x1="90" y1="102.048" x2="94" y2="102.048" stroke="black" stroke-width="1"/><text x="86" y="104.548" font-size="9" font-family="Times, &apos;Liberation Serif&apos;, serif" text-anchor="end" fill="black">5</text><text x="375" y="395" font-size="11" font-family="Times, &apos;Liberation Serif&apos;, serif" text-anchor="middle" fill="black" font-style="italic">x</text><text x="46" y="220" font-size="11" font-family="Times, &apos;Liberation Serif&apos;, serif" text-anchor="middle" fill="black" font-style="italic" transform="rotate(-90 46 220)">y</text><rect x="98" y="88" width="128" height="28" fill="white" stroke="black" stroke-width="0.8"/><circle cx="120" cy="102" r="4" fill="black"/><text x="142" y="107" font-size="10" font-family="Times, &apos;Liberation Serif&apos;, serif" fill="black">y ± σ</text></svg>