<?xml version="1.0" encoding="UTF-8"?>
<svg xmlns="http://www.w3.org/2000/svg" viewBox="0 0 560 560" width="560" height="560" shape-rendering="geometricPrecision" font-family="Times, 'Liberation Serif', serif"><rect x="0" y="0" width="560" height="560" fill="white"/><rect x="12" y="12" width="536" height="536" fill="none" stroke="black" stroke-width="0.8"/><text x="295" y="42" font-size="14" font-family="Times, &apos;Liberation Serif&apos;, serif" text-anchor="middle" letter-spacing="0.05em" fill="black">ROTATION FIELD</text><g opacity="0.7"><line x1="90" y1="80" x2="90" y2="480" stroke="black" stroke-width="0.4" stroke-dasharray="2 3"/><line x1="158.333" y1="80" x2="158.333" y2="480" stroke="black" stroke-width="0.4" stroke-dasharray="2 3"/><line x1="226.667" y1="80" x2="226.667" y2="480" stroke="black" stroke-width="0.4" stroke-dasharray="2 3"/><line x1="295" y1="80" x2="295" y2="480" stroke="black" stroke-width="0.4" stroke-dasharray="2 3"/><line x1="363.333" y1="80" x2="363.333" y2="480" stroke="black" stroke-width="0.4" stroke-dasharray="2 3"/><line x1="431.667" y1="80" x2="431.667" y2="480" stroke="black" stroke-width="0.4" stroke-dasharray="2 3"/><line x1="500" y1="80" x2="500" y2="480" stroke="black" stroke-width="0.4" stroke-dasharray="2 3"/><line x1="90" y1="480" x2="500" y2="480" stroke="black" stroke-width="0.4" stroke-dasharray="2 3"/><line x1="90" y1="413.333" x2="500" y2="413.333" stroke="black" stroke-width="0.4" stroke-dasharray="2 3"/><line x1="90" y1="346.667" x2="500" y2="346.667" stroke="black" stroke-width="0.4" stroke-dasharray="2 3"/><line x1="90" y1="280" x2="500" y2="280" stroke="black" stroke-width="0.4" stroke-dasharray="2 3"/><line x1="90" y1="213.333" x2="500" y2="213.333" stroke="black" stroke-width="0.4" stroke-dasharray="2 3"/><line x1="90" y1="146.667" x2="500" y2="146.667" stroke="black" stroke-width="0.4" stroke-dasharray="2 3"/><line x1="90" y1="80" x2="500" y2="80" stroke="black" stroke-width="0.4" stroke-dasharray="2 3"/></g><defs><clipPath id="bland-clip-plot"><rect x="90" y="80" width="410" height="400"/></clipPath></defs><g clip-path="url(#bland-clip-plot)"><line x1="158.333" y1="413.333" x2="199.333" y2="453.333" stroke="black" stroke-width="1.2"/><polygon points="199.333,453.333 193.762,451.106 196.969,447.819" fill="black"/><line x1="158.333" y1="346.667" x2="178.833" y2="386.667" stroke="black" stroke-width="1.2"/><polygon points="178.833,386.667 174.262,382.781 178.348,380.686" fill="black"/><line x1="158.333" y1="280" x2="158.333" y2="320" stroke="black" stroke-width="1.2"/><polygon points="158.333,320 156.037,314.457 160.629,314.457" fill="black"/><line x1="158.333" y1="213.333" x2="137.833" y2="253.333" stroke="black" stroke-width="1.2"/><polygon points="137.833,253.333 138.318,247.353 142.405,249.447" fill="black"/><line x1="158.333" y1="146.667" x2="117.333" y2="186.667" stroke="black" stroke-width="1.2"/><polygon points="117.333,186.667 119.698,181.152 122.905,184.439" fill="black"/><line x1="226.667" y1="413.333" x2="267.667" y2="433.333" stroke="black" stroke-width="1.2"/><polygon points="267.667,433.333 261.678,432.967 263.691,428.839" fill="black"/><line x1="226.667" y1="346.667" x2="247.167" y2="366.667" stroke="black" stroke-width="1.2"/><polygon points="247.167,366.667 241.595,364.439 244.802,361.152" fill="black"/><line x1="226.667" y1="280" x2="226.667" y2="300" stroke="black" stroke-width="1.2"/><polygon points="226.667,300 224.371,294.457 228.963,294.457" fill="black"/><line x1="226.667" y1="213.333" x2="206.167" y2="233.333" stroke="black" stroke-width="1.2"/><polygon points="206.167,233.333 208.531,227.819 211.738,231.106" fill="black"/><line x1="226.667" y1="146.667" x2="185.667" y2="166.667" stroke="black" stroke-width="1.2"/><polygon points="185.667,166.667 189.642,162.173 191.655,166.3" fill="black"/><line x1="295" y1="413.333" x2="336" y2="413.333" stroke="black" stroke-width="1.2"/><polygon points="336,413.333 330.457,415.629 330.457,411.037" fill="black"/><line x1="295" y1="346.667" x2="315.5" y2="346.667" stroke="black" stroke-width="1.2"/><polygon points="315.5,346.667 309.957,348.963 309.957,344.371" fill="black"/><line x1="295" y1="280" x2="295" y2="280" stroke="black" stroke-width="1.2"/><polygon points="295,280 289.457,282.296 289.457,277.704" fill="black"/><line x1="295" y1="213.333" x2="274.5" y2="213.333" stroke="black" stroke-width="1.2"/><polygon points="274.5,213.333 280.043,211.037 280.043,215.629" fill="black"/><line x1="295" y1="146.667" x2="254" y2="146.667" stroke="black" stroke-width="1.2"/><polygon points="254,146.667 259.543,144.371 259.543,148.963" fill="black"/><line x1="363.333" y1="413.333" x2="404.333" y2="393.333" stroke="black" stroke-width="1.2"/><polygon points="404.333,393.333 400.358,397.827 398.345,393.7" fill="black"/><line x1="363.333" y1="346.667" x2="383.833" y2="326.667" stroke="black" stroke-width="1.2"/><polygon points="383.833,326.667 381.469,332.181 378.262,328.894" fill="black"/><line x1="363.333" y1="280" x2="363.333" y2="260" stroke="black" stroke-width="1.2"/><polygon points="363.333,260 365.629,265.543 361.037,265.543" fill="black"/><line x1="363.333" y1="213.333" x2="342.833" y2="193.333" stroke="black" stroke-width="1.2"/><polygon points="342.833,193.333 348.405,195.561 345.198,198.848" fill="black"/><line x1="363.333" y1="146.667" x2="322.333" y2="126.667" stroke="black" stroke-width="1.2"/><polygon points="322.333,126.667 328.322,127.033 326.309,131.161" fill="black"/><line x1="431.667" y1="413.333" x2="472.667" y2="373.333" stroke="black" stroke-width="1.2"/><polygon points="472.667,373.333 470.302,378.848 467.095,375.561" fill="black"/><line x1="431.667" y1="346.667" x2="452.167" y2="306.667" stroke="black" stroke-width="1.2"/><polygon points="452.167,306.667 451.682,312.647 447.595,310.553" fill="black"/><line x1="431.667" y1="280" x2="431.667" y2="240" stroke="black" stroke-width="1.2"/><polygon points="431.667,240 433.963,245.543 429.371,245.543" fill="black"/><line x1="431.667" y1="213.333" x2="411.167" y2="173.333" stroke="black" stroke-width="1.2"/><polygon points="411.167,173.333 415.738,177.219 411.652,179.314" fill="black"/><line x1="431.667" y1="146.667" x2="390.667" y2="106.667" stroke="black" stroke-width="1.2"/><polygon points="390.667,106.667 396.238,108.894 393.031,112.181" fill="black"/></g><rect x="90" y="80" width="410" height="400" fill="none" stroke="black" stroke-width="1"/><line x1="90" y1="480" x2="90" y2="476" stroke="black" stroke-width="1"/><text x="90" y="493" font-size="9" font-family="Times, &apos;Liberation Serif&apos;, serif" text-anchor="middle" fill="black">-3</text><line x1="158.333" y1="480" x2="158.333" y2="476" stroke="black" stroke-width="1"/><text x="158.333" y="493" font-size="9" font-family="Times, &apos;Liberation Serif&apos;, serif" text-anchor="middle" fill="black">-2</text><line x1="226.667" y1="480" x2="226.667" y2="476" stroke="black" stroke-width="1"/><text x="226.667" y="493" font-size="9" font-family="Times, &apos;Liberation Serif&apos;, serif" text-anchor="middle" fill="black">-1</text><line x1="295" y1="480" x2="295" y2="476" stroke="black" stroke-width="1"/><text x="295" y="493" font-size="9" font-family="Times, &apos;Liberation Serif&apos;, serif" text-anchor="middle" fill="black">0</text><line x1="363.333" y1="480" x2="363.333" y2="476" stroke="black" stroke-width="1"/><text x="363.333" y="493" font-size="9" font-family="Times, &apos;Liberation Serif&apos;, serif" text-anchor="middle" fill="black">1</text><line x1="431.667" y1="480" x2="431.667" y2="476" stroke="black" stroke-width="1"/><text x="431.667" y="493" font-size="9" font-family="Times, &apos;Liberation Serif&apos;, serif" text-anchor="middle" fill="black">2</text><line x1="500" y1="480" x2="500" y2="476" stroke="black" stroke-width="1"/><text x="500" y="493" font-size="9" font-family="Times, &apos;Liberation Serif&apos;, serif" text-anchor="middle" fill="black">3</text><line x1="90" y1="480" x2="94" y2="480" stroke="black" stroke-width="1"/><text x="86" y="482.5" font-size="9" font-family="Times, &apos;Liberation Serif&apos;, serif" text-anchor="end" fill="black">-3</text><line x1="90" y1="413.333" x2="94" y2="413.333" stroke="black" stroke-width="1"/><text x="86" y="415.833" font-size="9" font-family="Times, &apos;Liberation Serif&apos;, serif" text-anchor="end" fill="black">-2</text><line x1="90" y1="346.667" x2="94" y2="346.667" stroke="black" stroke-width="1"/><text x="86" y="349.167" font-size="9" font-family="Times, &apos;Liberation Serif&apos;, serif" text-anchor="end" fill="black">-1</text><line x1="90" y1="280" x2="94" y2="280" stroke="black" stroke-width="1"/><text x="86" y="282.5" font-size="9" font-family="Times, &apos;Liberation Serif&apos;, serif" text-anchor="end" fill="black">0</text><line x1="90" y1="213.333" x2="94" y2="213.333" stroke="black" stroke-width="1"/><text x="86" y="215.833" font-size="9" font-family="Times, &apos;Liberation Serif&apos;, serif" text-anchor="end" fill="black">1</text><line x1="90" y1="146.667" x2="94" y2="146.667" stroke="black" stroke-width="1"/><text x="86" y="149.167" font-size="9" font-family="Times, &apos;Liberation Serif&apos;, serif" text-anchor="end" fill="black">2</text><line x1="90" y1="80" x2="94" y2="80" stroke="black" stroke-width="1"/><text x="86" y="82.5" font-size="9" font-family="Times, &apos;Liberation Serif&apos;, serif" text-anchor="end" fill="black">3</text><text x="295" y="515" font-size="11" font-family="Times, &apos;Liberation Serif&apos;, serif" text-anchor="middle" fill="black" font-style="italic">x</text><text x="46" y="280" font-size="11" font-family="Times, &apos;Liberation Serif&apos;, serif" text-anchor="middle" fill="black" font-style="italic" transform="rotate(-90 46 280)">y</text></svg>