<?xml version="1.0" encoding="UTF-8"?>
<svg xmlns="http://www.w3.org/2000/svg" viewBox="0 0 1056 356" width="1056" height="356" shape-rendering="geometricPrecision" font-family="Times, 'Liberation Serif', serif"><rect x="0" y="0" width="1056" height="356" fill="white"/><text x="528" y="42" font-size="16" font-family="Times, &apos;Liberation Serif&apos;, serif" text-anchor="middle" letter-spacing="0.05em" fill="black">Subplots</text><svg x="20" y="56" width="500" height="280" viewBox="0 0 500 280" preserveAspectRatio="xMidYMid meet"><rect x="0" y="0" width="500" height="280" fill="white"/><rect x="12" y="12" width="476" height="256" fill="none" stroke="black" stroke-width="0.8"/><text x="265" y="42" font-size="14" font-family="Times, &apos;Liberation Serif&apos;, serif" text-anchor="middle" letter-spacing="0.05em" fill="black">RAW SIGNAL</text><g opacity="0.7"><line x1="96.731" y1="80" x2="96.731" y2="200" stroke="black" stroke-width="0.4" stroke-dasharray="2 3"/><line x1="164.038" y1="80" x2="164.038" y2="200" stroke="black" stroke-width="0.4" stroke-dasharray="2 3"/><line x1="231.346" y1="80" x2="231.346" y2="200" stroke="black" stroke-width="0.4" stroke-dasharray="2 3"/><line x1="298.654" y1="80" x2="298.654" y2="200" stroke="black" stroke-width="0.4" stroke-dasharray="2 3"/><line x1="365.962" y1="80" x2="365.962" y2="200" stroke="black" stroke-width="0.4" stroke-dasharray="2 3"/><line x1="433.269" y1="80" x2="433.269" y2="200" stroke="black" stroke-width="0.4" stroke-dasharray="2 3"/><line x1="90" y1="183.059" x2="440" y2="183.059" stroke="black" stroke-width="0.4" stroke-dasharray="2 3"/><line x1="90" y1="161.524" x2="440" y2="161.524" stroke="black" stroke-width="0.4" stroke-dasharray="2 3"/><line x1="90" y1="139.989" x2="440" y2="139.989" stroke="black" stroke-width="0.4" stroke-dasharray="2 3"/><line x1="90" y1="118.454" x2="440" y2="118.454" stroke="black" stroke-width="0.4" stroke-dasharray="2 3"/><line x1="90" y1="96.919" x2="440" y2="96.919" stroke="black" stroke-width="0.4" stroke-dasharray="2 3"/></g><defs><clipPath id="bland-clip-plot"><rect x="90" y="80" width="350" height="120"/></clipPath></defs><g clip-path="url(#bland-clip-plot)"><polyline points="96.731,96.919 100.096,93.316 103.462,90.482 106.827,88.721 110.192,88.276 113.558,89.303 116.923,91.859 120.288,95.894 123.654,101.254 127.019,107.694 130.385,114.895 133.75,122.491 137.115,130.1 140.481,137.354 143.846,143.93 147.212,149.573 150.577,154.118 153.942,157.501 157.308,159.759 160.673,161.028 164.038,161.523 167.404,161.515 170.769,161.31 174.135,161.211 177.5,161.493 180.865,162.374 184.231,163.993 187.596,166.395 190.962,169.528 194.327,173.242 197.692,177.303 201.058,181.413 204.423,185.238 207.788,188.431 211.154,190.672 214.519,191.689 217.885,191.287 221.25,189.367 224.615,185.934 227.981,181.1 231.346,175.074 234.712,168.148 238.077,160.67 241.442,153.02 244.808,145.575 248.173,138.682 251.538,132.626 254.904,127.61 258.269,123.743 261.635,121.028 265,119.369 268.365,118.583 271.731,118.418 275.096,118.578 278.462,118.757 281.827,118.663 285.192,118.053 288.558,116.753 291.923,114.676 295.288,111.834 298.654,108.338 302.019,104.388 305.385,100.259 308.75,96.273 312.115,92.776 315.481,90.103 318.846,88.549 322.212,88.343 325.577,89.626 328.942,92.436 332.308,96.708 335.673,102.269 339.038,108.861 342.404,116.155 345.769,123.78 349.135,131.354 352.5,138.515 355.865,144.95 359.231,150.417 362.596,154.768 365.962,157.956 369.327,160.037 372.692,161.159 376.058,161.548 379.423,161.486 382.788,161.278 386.154,161.225 389.519,161.595 392.885,162.592 396.25,164.342 399.615,166.874 402.981,170.117 406.346,173.908 409.712,177.999 413.077,182.086 416.442,185.828 419.808,188.883 423.173,190.935 426.538,191.724 429.904,191.071 433.269,188.894" fill="none" stroke="black" stroke-width="1.2" stroke-linecap="round" stroke-linejoin="round"/></g><rect x="90" y="80" width="350" height="120" fill="none" stroke="black" stroke-width="1"/><line x1="96.731" y1="200" x2="96.731" y2="196" stroke="black" stroke-width="1"/><text x="96.731" y="213" font-size="9" font-family="Times, &apos;Liberation Serif&apos;, serif" text-anchor="middle" fill="black">0</text><line x1="164.038" y1="200" x2="164.038" y2="196" stroke="black" stroke-width="1"/><text x="164.038" y="213" font-size="9" font-family="Times, &apos;Liberation Serif&apos;, serif" text-anchor="middle" fill="black">2</text><line x1="231.346" y1="200" x2="231.346" y2="196" stroke="black" stroke-width="1"/><text x="231.346" y="213" font-size="9" font-family="Times, &apos;Liberation Serif&apos;, serif" text-anchor="middle" fill="black">4</text><line x1="298.654" y1="200" x2="298.654" y2="196" stroke="black" stroke-width="1"/><text x="298.654" y="213" font-size="9" font-family="Times, &apos;Liberation Serif&apos;, serif" text-anchor="middle" fill="black">6</text><line x1="365.962" y1="200" x2="365.962" y2="196" stroke="black" stroke-width="1"/><text x="365.962" y="213" font-size="9" font-family="Times, &apos;Liberation Serif&apos;, serif" text-anchor="middle" fill="black">8</text><line x1="433.269" y1="200" x2="433.269" y2="196" stroke="black" stroke-width="1"/><text x="433.269" y="213" font-size="9" font-family="Times, &apos;Liberation Serif&apos;, serif" text-anchor="middle" fill="black">10</text><line x1="90" y1="183.059" x2="94" y2="183.059" stroke="black" stroke-width="1"/><text x="86" y="185.559" font-size="9" font-family="Times, &apos;Liberation Serif&apos;, serif" text-anchor="end" fill="black">-1</text><line x1="90" y1="161.524" x2="94" y2="161.524" stroke="black" stroke-width="1"/><text x="86" y="164.024" font-size="9" font-family="Times, &apos;Liberation Serif&apos;, serif" text-anchor="end" fill="black">-0.5</text><line x1="90" y1="139.989" x2="94" y2="139.989" stroke="black" stroke-width="1"/><text x="86" y="142.489" font-size="9" font-family="Times, &apos;Liberation Serif&apos;, serif" text-anchor="end" fill="black">0</text><line x1="90" y1="118.454" x2="94" y2="118.454" stroke="black" stroke-width="1"/><text x="86" y="120.954" font-size="9" font-family="Times, &apos;Liberation Serif&apos;, serif" text-anchor="end" fill="black">0.5</text><line x1="90" y1="96.919" x2="94" y2="96.919" stroke="black" stroke-width="1"/><text x="86" y="99.419" font-size="9" font-family="Times, &apos;Liberation Serif&apos;, serif" text-anchor="end" fill="black">1</text><text x="265" y="235" font-size="11" font-family="Times, &apos;Liberation Serif&apos;, serif" text-anchor="middle" fill="black" font-style="italic">t [s]</text><text x="46" y="140" font-size="11" font-family="Times, &apos;Liberation Serif&apos;, serif" text-anchor="middle" fill="black" font-style="italic" transform="rotate(-90 46 140)">x(t)</text></svg><svg x="536" y="56" width="500" height="280" viewBox="0 0 500 280" preserveAspectRatio="xMidYMid meet"><rect x="0" y="0" width="500" height="280" fill="white"/><rect x="12" y="12" width="476" height="256" fill="none" stroke="black" stroke-width="0.8"/><text x="265" y="42" font-size="14" font-family="Times, &apos;Liberation Serif&apos;, serif" text-anchor="middle" letter-spacing="0.05em" fill="black">ENVELOPE</text><g opacity="0.7"><line x1="96.731" y1="80" x2="96.731" y2="200" stroke="black" stroke-width="0.4" stroke-dasharray="2 3"/><line x1="164.038" y1="80" x2="164.038" y2="200" stroke="black" stroke-width="0.4" stroke-dasharray="2 3"/><line x1="231.346" y1="80" x2="231.346" y2="200" stroke="black" stroke-width="0.4" stroke-dasharray="2 3"/><line x1="298.654" y1="80" x2="298.654" y2="200" stroke="black" stroke-width="0.4" stroke-dasharray="2 3"/><line x1="365.962" y1="80" x2="365.962" y2="200" stroke="black" stroke-width="0.4" stroke-dasharray="2 3"/><line x1="433.269" y1="80" x2="433.269" y2="200" stroke="black" stroke-width="0.4" stroke-dasharray="2 3"/><line x1="90" y1="194.405" x2="440" y2="194.405" stroke="black" stroke-width="0.4" stroke-dasharray="2 3"/><line x1="90" y1="172.316" x2="440" y2="172.316" stroke="black" stroke-width="0.4" stroke-dasharray="2 3"/><line x1="90" y1="150.228" x2="440" y2="150.228" stroke="black" stroke-width="0.4" stroke-dasharray="2 3"/><line x1="90" y1="128.14" x2="440" y2="128.14" stroke="black" stroke-width="0.4" stroke-dasharray="2 3"/><line x1="90" y1="106.052" x2="440" y2="106.052" stroke="black" stroke-width="0.4" stroke-dasharray="2 3"/><line x1="90" y1="83.964" x2="440" y2="83.964" stroke="black" stroke-width="0.4" stroke-dasharray="2 3"/></g><defs><clipPath id="bland-clip-plot"><rect x="90" y="80" width="350" height="120"/></clipPath></defs><g clip-path="url(#bland-clip-plot)"><polyline points="96.731,106.052 100.096,98.66 103.462,92.847 106.827,89.235 110.192,88.322 113.558,90.428 116.923,95.671 120.288,103.949 123.654,114.945 127.019,128.156 130.385,142.927 133.75,158.509 137.115,174.119 140.481,189 143.846,186.32 147.212,174.744 150.577,165.421 153.942,158.481 157.308,153.848 160.673,151.245 164.038,150.231 167.404,150.246 170.769,150.667 174.135,150.869 177.5,150.291 180.865,148.484 184.231,145.163 187.596,140.235 190.962,133.809 194.327,126.19 197.692,117.86 201.058,109.427 204.423,101.582 207.788,95.031 211.154,90.435 214.519,88.349 217.885,89.173 221.25,93.111 224.615,100.153 227.981,110.069 231.346,122.431 234.712,136.64 238.077,151.98 241.442,167.673 244.808,182.944 248.173,191.724 251.538,179.3 254.904,169.012 258.269,161.078 261.635,155.509 265,152.106 268.365,150.493 271.731,150.154 275.096,150.483 278.462,150.85 281.827,150.658 285.192,149.407 288.558,146.739 291.923,142.478 295.288,136.648 298.654,129.476 302.019,121.374 305.385,112.904 308.75,104.728 312.115,97.554 315.481,92.07 318.846,88.882 322.212,88.459 325.577,91.091 328.942,96.857 332.308,105.619 335.673,117.028 339.038,130.55 342.404,145.512 345.769,161.153 349.135,176.691 352.5,191.382 355.865,184.228 359.231,173.013 362.596,164.087 365.962,157.546 369.327,153.278 372.692,150.977 376.058,150.178 379.423,150.305 382.788,150.732 386.154,150.841 389.519,150.083 392.885,148.036 396.25,144.447 399.615,139.253 402.981,132.6 406.346,124.824 409.712,116.431 413.077,108.047 416.442,100.371 419.808,94.104 423.173,89.895 426.538,88.276 429.904,89.615 433.269,94.082" fill="none" stroke="black" stroke-width="1.2" stroke-linecap="round" stroke-linejoin="round"/></g><rect x="90" y="80" width="350" height="120" fill="none" stroke="black" stroke-width="1"/><line x1="96.731" y1="200" x2="96.731" y2="196" stroke="black" stroke-width="1"/><text x="96.731" y="213" font-size="9" font-family="Times, &apos;Liberation Serif&apos;, serif" text-anchor="middle" fill="black">0</text><line x1="164.038" y1="200" x2="164.038" y2="196" stroke="black" stroke-width="1"/><text x="164.038" y="213" font-size="9" font-family="Times, &apos;Liberation Serif&apos;, serif" text-anchor="middle" fill="black">2</text><line x1="231.346" y1="200" x2="231.346" y2="196" stroke="black" stroke-width="1"/><text x="231.346" y="213" font-size="9" font-family="Times, &apos;Liberation Serif&apos;, serif" text-anchor="middle" fill="black">4</text><line x1="298.654" y1="200" x2="298.654" y2="196" stroke="black" stroke-width="1"/><text x="298.654" y="213" font-size="9" font-family="Times, &apos;Liberation Serif&apos;, serif" text-anchor="middle" fill="black">6</text><line x1="365.962" y1="200" x2="365.962" y2="196" stroke="black" stroke-width="1"/><text x="365.962" y="213" font-size="9" font-family="Times, &apos;Liberation Serif&apos;, serif" text-anchor="middle" fill="black">8</text><line x1="433.269" y1="200" x2="433.269" y2="196" stroke="black" stroke-width="1"/><text x="433.269" y="213" font-size="9" font-family="Times, &apos;Liberation Serif&apos;, serif" text-anchor="middle" fill="black">10</text><line x1="90" y1="194.405" x2="94" y2="194.405" stroke="black" stroke-width="1"/><text x="86" y="196.905" font-size="9" font-family="Times, &apos;Liberation Serif&apos;, serif" text-anchor="end" fill="black">0</text><line x1="90" y1="172.316" x2="94" y2="172.316" stroke="black" stroke-width="1"/><text x="86" y="174.816" font-size="9" font-family="Times, &apos;Liberation Serif&apos;, serif" text-anchor="end" fill="black">0.25</text><line x1="90" y1="150.228" x2="94" y2="150.228" stroke="black" stroke-width="1"/><text x="86" y="152.728" font-size="9" font-family="Times, &apos;Liberation Serif&apos;, serif" text-anchor="end" fill="black">0.5</text><line x1="90" y1="128.14" x2="94" y2="128.14" stroke="black" stroke-width="1"/><text x="86" y="130.64" font-size="9" font-family="Times, &apos;Liberation Serif&apos;, serif" text-anchor="end" fill="black">0.75</text><line x1="90" y1="106.052" x2="94" y2="106.052" stroke="black" stroke-width="1"/><text x="86" y="108.552" font-size="9" font-family="Times, &apos;Liberation Serif&apos;, serif" text-anchor="end" fill="black">1</text><line x1="90" y1="83.964" x2="94" y2="83.964" stroke="black" stroke-width="1"/><text x="86" y="86.464" font-size="9" font-family="Times, &apos;Liberation Serif&apos;, serif" text-anchor="end" fill="black">1.25</text><text x="265" y="235" font-size="11" font-family="Times, &apos;Liberation Serif&apos;, serif" text-anchor="middle" fill="black" font-style="italic">t [s]</text><text x="46" y="140" font-size="11" font-family="Times, &apos;Liberation Serif&apos;, serif" text-anchor="middle" fill="black" font-style="italic" transform="rotate(-90 46 140)">|x(t)|</text></svg></svg>