<?xml version="1.0" encoding="UTF-8"?>
<svg xmlns="http://www.w3.org/2000/svg" viewBox="0 0 720 440" width="720" height="440" shape-rendering="geometricPrecision" font-family="Times, 'Liberation Serif', serif"><rect x="0" y="0" width="720" height="440" fill="white"/><rect x="12" y="12" width="696" height="416" fill="none" stroke="black" stroke-width="0.8"/><defs><pattern id="bland-pattern-diagonal" patternUnits="userSpaceOnUse" width="8" height="8" patternTransform="rotate(45)"><line x1="0" y1="0" x2="0" y2="8" stroke="black" stroke-width="1"/></pattern></defs><text x="375" y="42" font-size="14" font-family="Times, &apos;Liberation Serif&apos;, serif" text-anchor="middle" letter-spacing="0.05em" fill="black">SAMPLE DISTRIBUTION</text><g opacity="0.7"><line x1="203.591" y1="80" x2="203.591" y2="360" stroke="black" stroke-width="0.4" stroke-dasharray="2 3"/><line x1="370.937" y1="80" x2="370.937" y2="360" stroke="black" stroke-width="0.4" stroke-dasharray="2 3"/><line x1="538.282" y1="80" x2="538.282" y2="360" stroke="black" stroke-width="0.4" stroke-dasharray="2 3"/><line x1="90" y1="340.69" x2="660" y2="340.69" stroke="black" stroke-width="0.4" stroke-dasharray="2 3"/><line x1="90" y1="266.873" x2="660" y2="266.873" stroke="black" stroke-width="0.4" stroke-dasharray="2 3"/><line x1="90" y1="193.057" x2="660" y2="193.057" stroke="black" stroke-width="0.4" stroke-dasharray="2 3"/><line x1="90" y1="119.241" x2="660" y2="119.241" stroke="black" stroke-width="0.4" stroke-dasharray="2 3"/></g><defs><clipPath id="bland-clip-plot"><rect x="90" y="80" width="570" height="280"/></clipPath></defs><g clip-path="url(#bland-clip-plot)"><rect x="100.962" y="336.999" width="13.702" height="3.691" fill="url(#bland-pattern-diagonal)" stroke="black" stroke-width="1.2" stroke-linejoin="miter"/><rect x="114.663" y="338.475" width="13.702" height="2.214" fill="url(#bland-pattern-diagonal)" stroke="black" stroke-width="1.2" stroke-linejoin="miter"/><rect x="128.365" y="339.951" width="13.702" height="0.738" fill="url(#bland-pattern-diagonal)" stroke="black" stroke-width="1.2" stroke-linejoin="miter"/><rect x="142.067" y="331.832" width="13.702" height="8.858" fill="url(#bland-pattern-diagonal)" stroke="black" stroke-width="1.2" stroke-linejoin="miter"/><rect x="155.769" y="330.355" width="13.702" height="10.334" fill="url(#bland-pattern-diagonal)" stroke="black" stroke-width="1.2" stroke-linejoin="miter"/><rect x="169.471" y="320.021" width="13.702" height="20.669" fill="url(#bland-pattern-diagonal)" stroke="black" stroke-width="1.2" stroke-linejoin="miter"/><rect x="183.173" y="306.734" width="13.702" height="33.955" fill="url(#bland-pattern-diagonal)" stroke="black" stroke-width="1.2" stroke-linejoin="miter"/><rect x="196.875" y="303.782" width="13.702" height="36.908" fill="url(#bland-pattern-diagonal)" stroke="black" stroke-width="1.2" stroke-linejoin="miter"/><rect x="210.577" y="308.949" width="13.702" height="31.741" fill="url(#bland-pattern-diagonal)" stroke="black" stroke-width="1.2" stroke-linejoin="miter"/><rect x="224.279" y="280.898" width="13.702" height="59.791" fill="url(#bland-pattern-diagonal)" stroke="black" stroke-width="1.2" stroke-linejoin="miter"/><rect x="237.981" y="264.659" width="13.702" height="76.031" fill="url(#bland-pattern-diagonal)" stroke="black" stroke-width="1.2" stroke-linejoin="miter"/><rect x="251.683" y="250.634" width="13.702" height="90.056" fill="url(#bland-pattern-diagonal)" stroke="black" stroke-width="1.2" stroke-linejoin="miter"/><rect x="265.385" y="225.536" width="13.702" height="115.153" fill="url(#bland-pattern-diagonal)" stroke="black" stroke-width="1.2" stroke-linejoin="miter"/><rect x="279.087" y="221.845" width="13.702" height="118.844" fill="url(#bland-pattern-diagonal)" stroke="black" stroke-width="1.2" stroke-linejoin="miter"/><rect x="292.788" y="168.698" width="13.702" height="171.992" fill="url(#bland-pattern-diagonal)" stroke="black" stroke-width="1.2" stroke-linejoin="miter"/><rect x="306.49" y="148.029" width="13.702" height="192.661" fill="url(#bland-pattern-diagonal)" stroke="black" stroke-width="1.2" stroke-linejoin="miter"/><rect x="320.192" y="115.55" width="13.702" height="225.14" fill="url(#bland-pattern-diagonal)" stroke="black" stroke-width="1.2" stroke-linejoin="miter"/><rect x="333.894" y="99.31" width="13.702" height="241.379" fill="url(#bland-pattern-diagonal)" stroke="black" stroke-width="1.2" stroke-linejoin="miter"/><rect x="347.596" y="113.335" width="13.702" height="227.354" fill="url(#bland-pattern-diagonal)" stroke="black" stroke-width="1.2" stroke-linejoin="miter"/><rect x="361.298" y="111.859" width="13.702" height="228.831" fill="url(#bland-pattern-diagonal)" stroke="black" stroke-width="1.2" stroke-linejoin="miter"/><rect x="375" y="101.525" width="13.702" height="239.165" fill="url(#bland-pattern-diagonal)" stroke="black" stroke-width="1.2" stroke-linejoin="miter"/><rect x="388.702" y="121.455" width="13.702" height="219.234" fill="url(#bland-pattern-diagonal)" stroke="black" stroke-width="1.2" stroke-linejoin="miter"/><rect x="402.404" y="111.121" width="13.702" height="229.569" fill="url(#bland-pattern-diagonal)" stroke="black" stroke-width="1.2" stroke-linejoin="miter"/><rect x="416.106" y="150.982" width="13.702" height="189.708" fill="url(#bland-pattern-diagonal)" stroke="black" stroke-width="1.2" stroke-linejoin="miter"/><rect x="429.808" y="142.862" width="13.702" height="197.828" fill="url(#bland-pattern-diagonal)" stroke="black" stroke-width="1.2" stroke-linejoin="miter"/><rect x="443.51" y="189.366" width="13.702" height="151.323" fill="url(#bland-pattern-diagonal)" stroke="black" stroke-width="1.2" stroke-linejoin="miter"/><rect x="457.212" y="203.391" width="13.702" height="137.298" fill="url(#bland-pattern-diagonal)" stroke="black" stroke-width="1.2" stroke-linejoin="miter"/><rect x="470.913" y="231.442" width="13.702" height="109.248" fill="url(#bland-pattern-diagonal)" stroke="black" stroke-width="1.2" stroke-linejoin="miter"/><rect x="484.615" y="259.492" width="13.702" height="81.198" fill="url(#bland-pattern-diagonal)" stroke="black" stroke-width="1.2" stroke-linejoin="miter"/><rect x="498.317" y="260.23" width="13.702" height="80.46" fill="url(#bland-pattern-diagonal)" stroke="black" stroke-width="1.2" stroke-linejoin="miter"/><rect x="512.019" y="296.4" width="13.702" height="44.29" fill="url(#bland-pattern-diagonal)" stroke="black" stroke-width="1.2" stroke-linejoin="miter"/><rect x="525.721" y="303.782" width="13.702" height="36.908" fill="url(#bland-pattern-diagonal)" stroke="black" stroke-width="1.2" stroke-linejoin="miter"/><rect x="539.423" y="316.33" width="13.702" height="24.359" fill="url(#bland-pattern-diagonal)" stroke="black" stroke-width="1.2" stroke-linejoin="miter"/><rect x="553.125" y="314.854" width="13.702" height="25.836" fill="url(#bland-pattern-diagonal)" stroke="black" stroke-width="1.2" stroke-linejoin="miter"/><rect x="566.827" y="331.094" width="13.702" height="9.596" fill="url(#bland-pattern-diagonal)" stroke="black" stroke-width="1.2" stroke-linejoin="miter"/><rect x="580.529" y="334.046" width="13.702" height="6.643" fill="url(#bland-pattern-diagonal)" stroke="black" stroke-width="1.2" stroke-linejoin="miter"/><rect x="594.231" y="333.308" width="13.702" height="7.382" fill="url(#bland-pattern-diagonal)" stroke="black" stroke-width="1.2" stroke-linejoin="miter"/><rect x="607.933" y="339.213" width="13.702" height="1.476" fill="url(#bland-pattern-diagonal)" stroke="black" stroke-width="1.2" stroke-linejoin="miter"/><rect x="621.635" y="338.475" width="13.702" height="2.214" fill="url(#bland-pattern-diagonal)" stroke="black" stroke-width="1.2" stroke-linejoin="miter"/><rect x="635.337" y="339.951" width="13.702" height="0.738" fill="url(#bland-pattern-diagonal)" stroke="black" stroke-width="1.2" stroke-linejoin="miter"/></g><rect x="90" y="80" width="570" height="280" fill="none" stroke="black" stroke-width="1"/><line x1="203.591" y1="360" x2="203.591" y2="356" stroke="black" stroke-width="1"/><text x="203.591" y="373" font-size="9" font-family="Times, &apos;Liberation Serif&apos;, serif" text-anchor="middle" fill="black">-2</text><line x1="370.937" y1="360" x2="370.937" y2="356" stroke="black" stroke-width="1"/><text x="370.937" y="373" font-size="9" font-family="Times, &apos;Liberation Serif&apos;, serif" text-anchor="middle" fill="black">0</text><line x1="538.282" y1="360" x2="538.282" y2="356" stroke="black" stroke-width="1"/><text x="538.282" y="373" font-size="9" font-family="Times, &apos;Liberation Serif&apos;, serif" text-anchor="middle" fill="black">2</text><line x1="90" y1="340.69" x2="94" y2="340.69" stroke="black" stroke-width="1"/><text x="86" y="343.19" font-size="9" font-family="Times, &apos;Liberation Serif&apos;, serif" text-anchor="end" fill="black">0</text><line x1="90" y1="266.873" x2="94" y2="266.873" stroke="black" stroke-width="1"/><text x="86" y="269.373" font-size="9" font-family="Times, &apos;Liberation Serif&apos;, serif" text-anchor="end" fill="black">100</text><line x1="90" y1="193.057" x2="94" y2="193.057" stroke="black" stroke-width="1"/><text x="86" y="195.557" font-size="9" font-family="Times, &apos;Liberation Serif&apos;, serif" text-anchor="end" fill="black">200</text><line x1="90" y1="119.241" x2="94" y2="119.241" stroke="black" stroke-width="1"/><text x="86" y="121.741" font-size="9" font-family="Times, &apos;Liberation Serif&apos;, serif" text-anchor="end" fill="black">300</text><text x="375" y="395" font-size="11" font-family="Times, &apos;Liberation Serif&apos;, serif" text-anchor="middle" fill="black" font-style="italic">x</text><text x="46" y="220" font-size="11" font-family="Times, &apos;Liberation Serif&apos;, serif" text-anchor="middle" fill="black" font-style="italic" transform="rotate(-90 46 220)">count</text><rect x="524" y="88" width="128" height="28" fill="white" stroke="black" stroke-width="0.8"/><rect x="532" y="95" width="28" height="12" fill="url(#bland-pattern-diagonal)" stroke="black" stroke-width="1"/><text x="568" y="107" font-size="10" font-family="Times, &apos;Liberation Serif&apos;, serif" fill="black">n = 5000</text></svg>