<?xml version="1.0" encoding="UTF-8"?>
<svg xmlns="http://www.w3.org/2000/svg" viewBox="0 0 640 440" width="640" height="440" shape-rendering="geometricPrecision" font-family="Times, 'Liberation Serif', serif"><rect x="0" y="0" width="640" height="440" fill="white"/><rect x="12" y="12" width="616" height="416" fill="none" stroke="black" stroke-width="0.8"/><defs><pattern id="bland-pattern-diagonal" patternUnits="userSpaceOnUse" width="8" height="8" patternTransform="rotate(45)"><line x1="0" y1="0" x2="0" y2="8" stroke="black" stroke-width="1"/></pattern></defs><text x="335" y="42" font-size="14" font-family="Times, &apos;Liberation Serif&apos;, serif" text-anchor="middle" letter-spacing="0.05em" fill="black">BOX PLOT</text><g opacity="0.7"><line x1="90" y1="80" x2="90" y2="360" stroke="black" stroke-width="0.4" stroke-dasharray="2 3"/><line x1="212.5" y1="80" x2="212.5" y2="360" stroke="black" stroke-width="0.4" stroke-dasharray="2 3"/><line x1="335" y1="80" x2="335" y2="360" stroke="black" stroke-width="0.4" stroke-dasharray="2 3"/><line x1="457.5" y1="80" x2="457.5" y2="360" stroke="black" stroke-width="0.4" stroke-dasharray="2 3"/><line x1="580" y1="80" x2="580" y2="360" stroke="black" stroke-width="0.4" stroke-dasharray="2 3"/><line x1="90" y1="352.184" x2="580" y2="352.184" stroke="black" stroke-width="0.4" stroke-dasharray="2 3"/><line x1="90" y1="294.713" x2="580" y2="294.713" stroke="black" stroke-width="0.4" stroke-dasharray="2 3"/><line x1="90" y1="237.241" x2="580" y2="237.241" stroke="black" stroke-width="0.4" stroke-dasharray="2 3"/><line x1="90" y1="179.77" x2="580" y2="179.77" stroke="black" stroke-width="0.4" stroke-dasharray="2 3"/><line x1="90" y1="122.299" x2="580" y2="122.299" stroke="black" stroke-width="0.4" stroke-dasharray="2 3"/></g><defs><clipPath id="bland-clip-plot"><rect x="90" y="80" width="490" height="280"/></clipPath></defs><g clip-path="url(#bland-clip-plot)"><rect x="139" y="224.273" width="147" height="27.583" fill="url(#bland-pattern-diagonal)" stroke="black" stroke-width="1.2"/><line x1="139" y1="239.345" x2="286" y2="239.345" stroke="black" stroke-width="1.68"/><line x1="212.5" y1="224.273" x2="212.5" y2="193.259" stroke="black" stroke-width="1.2" stroke-dasharray="4 2"/><line x1="183.1" y1="193.259" x2="241.9" y2="193.259" stroke="black" stroke-width="1.2"/><line x1="212.5" y1="251.857" x2="212.5" y2="283.952" stroke="black" stroke-width="1.2" stroke-dasharray="4 2"/><line x1="183.1" y1="283.952" x2="241.9" y2="283.952" stroke="black" stroke-width="1.2"/><rect x="384" y="195.782" width="147" height="31.527" fill="url(#bland-pattern-diagonal)" stroke="black" stroke-width="1.2"/><line x1="384" y1="209.777" x2="531" y2="209.777" stroke="black" stroke-width="1.68"/><line x1="457.5" y1="195.782" x2="457.5" y2="152.47" stroke="black" stroke-width="1.2" stroke-dasharray="4 2"/><line x1="428.1" y1="152.47" x2="486.9" y2="152.47" stroke="black" stroke-width="1.2"/><line x1="457.5" y1="227.309" x2="457.5" y2="266.416" stroke="black" stroke-width="1.2" stroke-dasharray="4 2"/><line x1="428.1" y1="266.416" x2="486.9" y2="266.416" stroke="black" stroke-width="1.2"/><circle cx="457.5" cy="340.69" r="3" fill="none" stroke="black" stroke-width="1.2"/><circle cx="457.5" cy="277.053" r="3" fill="none" stroke="black" stroke-width="1.2"/><circle cx="457.5" cy="147.95" r="3" fill="none" stroke="black" stroke-width="1.2"/><circle cx="457.5" cy="143.29" r="3" fill="none" stroke="black" stroke-width="1.2"/><circle cx="457.5" cy="122.299" r="3" fill="none" stroke="black" stroke-width="1.2"/><circle cx="457.5" cy="99.31" r="3" fill="none" stroke="black" stroke-width="1.2"/></g><rect x="90" y="80" width="490" height="280" fill="none" stroke="black" stroke-width="1"/><line x1="212.5" y1="360" x2="212.5" y2="356" stroke="black" stroke-width="1"/><text x="212.5" y="373" font-size="9" font-family="Times, &apos;Liberation Serif&apos;, serif" text-anchor="middle" fill="black">control</text><line x1="457.5" y1="360" x2="457.5" y2="356" stroke="black" stroke-width="1"/><text x="457.5" y="373" font-size="9" font-family="Times, &apos;Liberation Serif&apos;, serif" text-anchor="middle" fill="black">treated</text><line x1="90" y1="352.184" x2="94" y2="352.184" stroke="black" stroke-width="1"/><text x="86" y="354.684" font-size="9" font-family="Times, &apos;Liberation Serif&apos;, serif" text-anchor="end" fill="black">-5</text><line x1="90" y1="294.713" x2="94" y2="294.713" stroke="black" stroke-width="1"/><text x="86" y="297.213" font-size="9" font-family="Times, &apos;Liberation Serif&apos;, serif" text-anchor="end" fill="black">-2.5</text><line x1="90" y1="237.241" x2="94" y2="237.241" stroke="black" stroke-width="1"/><text x="86" y="239.741" font-size="9" font-family="Times, &apos;Liberation Serif&apos;, serif" text-anchor="end" fill="black">0</text><line x1="90" y1="179.77" x2="94" y2="179.77" stroke="black" stroke-width="1"/><text x="86" y="182.27" font-size="9" font-family="Times, &apos;Liberation Serif&apos;, serif" text-anchor="end" fill="black">2.5</text><line x1="90" y1="122.299" x2="94" y2="122.299" stroke="black" stroke-width="1"/><text x="86" y="124.799" font-size="9" font-family="Times, &apos;Liberation Serif&apos;, serif" text-anchor="end" fill="black">5</text><text x="46" y="220" font-size="11" font-family="Times, &apos;Liberation Serif&apos;, serif" text-anchor="middle" fill="black" font-style="italic" transform="rotate(-90 46 220)">response</text><rect x="98" y="88" width="128" height="28" fill="white" stroke="black" stroke-width="0.8"/><rect x="106" y="95" width="28" height="12" fill="url(#bland-pattern-diagonal)" stroke="black" stroke-width="1"/><text x="142" y="107" font-size="10" font-family="Times, &apos;Liberation Serif&apos;, serif" fill="black">n=100</text></svg>