<?xml version="1.0" encoding="UTF-8"?>
<svg xmlns="http://www.w3.org/2000/svg" viewBox="0 0 620 620" width="620" height="620" shape-rendering="geometricPrecision" font-family="Times, 'Liberation Serif', serif"><rect x="0" y="0" width="620" height="620" fill="white"/><rect x="12" y="12" width="596" height="596" fill="none" stroke="black" stroke-width="0.8"/><defs><pattern id="bland-pattern-dots_sparse" patternUnits="userSpaceOnUse" width="10" height="10"><circle cx="5" cy="5" r="1.2" fill="black"/></pattern><pattern id="bland-pattern-diagonal" patternUnits="userSpaceOnUse" width="8" height="8" patternTransform="rotate(45)"><line x1="0" y1="0" x2="0" y2="8" stroke="black" stroke-width="1"/></pattern><pattern id="bland-pattern-crosshatch" patternUnits="userSpaceOnUse" width="10" height="10"><line x1="0" y1="0" x2="10" y2="10" stroke="black" stroke-width="1"/><line x1="10" y1="0" x2="0" y2="10" stroke="black" stroke-width="1"/></pattern><pattern id="bland-pattern-diagonal_dense" patternUnits="userSpaceOnUse" width="4" height="4" patternTransform="rotate(45)"><line x1="0" y1="0" x2="0" y2="4" stroke="black" stroke-width="1"/></pattern><pattern id="bland-pattern-dots_dense" patternUnits="userSpaceOnUse" width="5" height="5"><circle cx="2.5" cy="2.5" r="1" fill="black"/></pattern></defs><text x="300" y="42" font-size="14" font-family="Times, &apos;Liberation Serif&apos;, serif" text-anchor="middle" letter-spacing="0.05em" fill="black">2D GAUSSIAN DENSITY</text><g opacity="0.7"><line x1="98.077" y1="80" x2="98.077" y2="540" stroke="black" stroke-width="0.4" stroke-dasharray="2 3"/><line x1="199.038" y1="80" x2="199.038" y2="540" stroke="black" stroke-width="0.4" stroke-dasharray="2 3"/><line x1="300" y1="80" x2="300" y2="540" stroke="black" stroke-width="0.4" stroke-dasharray="2 3"/><line x1="400.962" y1="80" x2="400.962" y2="540" stroke="black" stroke-width="0.4" stroke-dasharray="2 3"/><line x1="501.923" y1="80" x2="501.923" y2="540" stroke="black" stroke-width="0.4" stroke-dasharray="2 3"/><line x1="90" y1="508.276" x2="510" y2="508.276" stroke="black" stroke-width="0.4" stroke-dasharray="2 3"/><line x1="90" y1="409.138" x2="510" y2="409.138" stroke="black" stroke-width="0.4" stroke-dasharray="2 3"/><line x1="90" y1="310" x2="510" y2="310" stroke="black" stroke-width="0.4" stroke-dasharray="2 3"/><line x1="90" y1="210.862" x2="510" y2="210.862" stroke="black" stroke-width="0.4" stroke-dasharray="2 3"/><line x1="90" y1="111.724" x2="510" y2="111.724" stroke="black" stroke-width="0.4" stroke-dasharray="2 3"/></g><defs><clipPath id="bland-clip-plot"><rect x="90" y="80" width="420" height="460"/></clipPath></defs><g clip-path="url(#bland-clip-plot)"><rect x="98.077" y="488.448" width="20.192" height="19.828" fill="white" stroke="none"/><rect x="118.269" y="488.448" width="20.192" height="19.828" fill="white" stroke="none"/><rect x="138.462" y="488.448" width="20.192" height="19.828" fill="white" stroke="none"/><rect x="158.654" y="488.448" width="20.192" height="19.828" fill="white" stroke="none"/><rect x="178.846" y="488.448" width="20.192" height="19.828" fill="white" stroke="none"/><rect x="199.038" y="488.448" width="20.192" height="19.828" fill="white" stroke="none"/><rect x="219.231" y="488.448" width="20.192" height="19.828" fill="white" stroke="none"/><rect x="239.423" y="488.448" width="20.192" height="19.828" fill="white" stroke="none"/><rect x="259.615" y="488.448" width="20.192" height="19.828" fill="white" stroke="none"/><rect x="279.808" y="488.448" width="20.192" height="19.828" fill="white" stroke="none"/><rect x="300" y="488.448" width="20.192" height="19.828" fill="white" stroke="none"/><rect x="320.192" y="488.448" width="20.192" height="19.828" fill="white" stroke="none"/><rect x="340.385" y="488.448" width="20.192" height="19.828" fill="white" stroke="none"/><rect x="360.577" y="488.448" width="20.192" height="19.828" fill="white" stroke="none"/><rect x="380.769" y="488.448" width="20.192" height="19.828" fill="white" stroke="none"/><rect x="400.962" y="488.448" width="20.192" height="19.828" fill="white" stroke="none"/><rect x="421.154" y="488.448" width="20.192" height="19.828" fill="white" stroke="none"/><rect x="441.346" y="488.448" width="20.192" height="19.828" fill="white" stroke="none"/><rect x="461.538" y="488.448" width="20.192" height="19.828" fill="white" stroke="none"/><rect x="481.731" y="488.448" width="20.192" height="19.828" fill="white" stroke="none"/><rect x="98.077" y="468.621" width="20.192" height="19.828" fill="white" stroke="none"/><rect x="118.269" y="468.621" width="20.192" height="19.828" fill="white" stroke="none"/><rect x="138.462" y="468.621" width="20.192" height="19.828" fill="white" stroke="none"/><rect x="158.654" y="468.621" width="20.192" height="19.828" fill="white" stroke="none"/><rect x="178.846" y="468.621" width="20.192" height="19.828" fill="white" stroke="none"/><rect x="199.038" y="468.621" width="20.192" height="19.828" fill="white" stroke="none"/><rect x="219.231" y="468.621" width="20.192" height="19.828" fill="white" stroke="none"/><rect x="239.423" y="468.621" width="20.192" height="19.828" fill="white" stroke="none"/><rect x="259.615" y="468.621" width="20.192" height="19.828" fill="white" stroke="none"/><rect x="279.808" y="468.621" width="20.192" height="19.828" fill="white" stroke="none"/><rect x="300" y="468.621" width="20.192" height="19.828" fill="white" stroke="none"/><rect x="320.192" y="468.621" width="20.192" height="19.828" fill="white" stroke="none"/><rect x="340.385" y="468.621" width="20.192" height="19.828" fill="white" stroke="none"/><rect x="360.577" y="468.621" width="20.192" height="19.828" fill="white" stroke="none"/><rect x="380.769" y="468.621" width="20.192" height="19.828" fill="white" stroke="none"/><rect x="400.962" y="468.621" width="20.192" height="19.828" fill="white" stroke="none"/><rect x="421.154" y="468.621" width="20.192" height="19.828" fill="white" stroke="none"/><rect x="441.346" y="468.621" width="20.192" height="19.828" fill="white" stroke="none"/><rect x="461.538" y="468.621" width="20.192" height="19.828" fill="white" stroke="none"/><rect x="481.731" y="468.621" width="20.192" height="19.828" fill="white" stroke="none"/><rect x="98.077" y="448.793" width="20.192" height="19.828" fill="white" stroke="none"/><rect x="118.269" y="448.793" width="20.192" height="19.828" fill="white" stroke="none"/><rect x="138.462" y="448.793" width="20.192" height="19.828" fill="white" stroke="none"/><rect x="158.654" y="448.793" width="20.192" height="19.828" fill="white" stroke="none"/><rect x="178.846" y="448.793" width="20.192" height="19.828" fill="white" stroke="none"/><rect x="199.038" y="448.793" width="20.192" height="19.828" fill="white" stroke="none"/><rect x="219.231" y="448.793" width="20.192" height="19.828" fill="white" stroke="none"/><rect x="239.423" y="448.793" width="20.192" height="19.828" fill="url(#bland-pattern-dots_sparse)" stroke="none"/><rect x="259.615" y="448.793" width="20.192" height="19.828" fill="url(#bland-pattern-dots_sparse)" stroke="none"/><rect x="279.808" y="448.793" width="20.192" height="19.828" fill="url(#bland-pattern-dots_sparse)" stroke="none"/><rect x="300" y="448.793" width="20.192" height="19.828" fill="url(#bland-pattern-dots_sparse)" stroke="none"/><rect x="320.192" y="448.793" width="20.192" height="19.828" fill="url(#bland-pattern-dots_sparse)" stroke="none"/><rect x="340.385" y="448.793" width="20.192" height="19.828" fill="url(#bland-pattern-dots_sparse)" stroke="none"/><rect x="360.577" y="448.793" width="20.192" height="19.828" fill="url(#bland-pattern-dots_sparse)" stroke="none"/><rect x="380.769" y="448.793" width="20.192" height="19.828" fill="white" stroke="none"/><rect x="400.962" y="448.793" width="20.192" height="19.828" fill="white" stroke="none"/><rect x="421.154" y="448.793" width="20.192" height="19.828" fill="white" stroke="none"/><rect x="441.346" y="448.793" width="20.192" height="19.828" fill="white" stroke="none"/><rect x="461.538" y="448.793" width="20.192" height="19.828" fill="white" stroke="none"/><rect x="481.731" y="448.793" width="20.192" height="19.828" fill="white" stroke="none"/><rect x="98.077" y="428.966" width="20.192" height="19.828" fill="white" stroke="none"/><rect x="118.269" y="428.966" width="20.192" height="19.828" fill="white" stroke="none"/><rect x="138.462" y="428.966" width="20.192" height="19.828" fill="white" stroke="none"/><rect x="158.654" y="428.966" width="20.192" height="19.828" fill="white" stroke="none"/><rect x="178.846" y="428.966" width="20.192" height="19.828" fill="white" stroke="none"/><rect x="199.038" y="428.966" width="20.192" height="19.828" fill="url(#bland-pattern-dots_sparse)" stroke="none"/><rect x="219.231" y="428.966" width="20.192" height="19.828" fill="url(#bland-pattern-dots_sparse)" stroke="none"/><rect x="239.423" y="428.966" width="20.192" height="19.828" fill="url(#bland-pattern-dots_sparse)" stroke="none"/><rect x="259.615" y="428.966" width="20.192" height="19.828" fill="url(#bland-pattern-dots_sparse)" stroke="none"/><rect x="279.808" y="428.966" width="20.192" height="19.828" fill="url(#bland-pattern-dots_sparse)" stroke="none"/><rect x="300" y="428.966" width="20.192" height="19.828" fill="url(#bland-pattern-diagonal)" stroke="none"/><rect x="320.192" y="428.966" width="20.192" height="19.828" fill="url(#bland-pattern-dots_sparse)" stroke="none"/><rect x="340.385" y="428.966" width="20.192" height="19.828" fill="url(#bland-pattern-dots_sparse)" stroke="none"/><rect x="360.577" y="428.966" width="20.192" height="19.828" fill="url(#bland-pattern-dots_sparse)" stroke="none"/><rect x="380.769" y="428.966" width="20.192" height="19.828" fill="url(#bland-pattern-dots_sparse)" stroke="none"/><rect x="400.962" y="428.966" width="20.192" height="19.828" fill="url(#bland-pattern-dots_sparse)" stroke="none"/><rect x="421.154" y="428.966" width="20.192" height="19.828" fill="white" stroke="none"/><rect x="441.346" y="428.966" width="20.192" height="19.828" fill="white" stroke="none"/><rect x="461.538" y="428.966" width="20.192" height="19.828" fill="white" stroke="none"/><rect x="481.731" y="428.966" width="20.192" height="19.828" fill="white" stroke="none"/><rect x="98.077" y="409.138" width="20.192" height="19.828" fill="white" stroke="none"/><rect x="118.269" y="409.138" width="20.192" height="19.828" fill="white" stroke="none"/><rect x="138.462" y="409.138" width="20.192" height="19.828" fill="white" stroke="none"/><rect x="158.654" y="409.138" width="20.192" height="19.828" fill="white" stroke="none"/><rect x="178.846" y="409.138" width="20.192" height="19.828" fill="url(#bland-pattern-dots_sparse)" stroke="none"/><rect x="199.038" y="409.138" width="20.192" height="19.828" fill="url(#bland-pattern-dots_sparse)" stroke="none"/><rect x="219.231" y="409.138" width="20.192" height="19.828" fill="url(#bland-pattern-dots_sparse)" stroke="none"/><rect x="239.423" y="409.138" width="20.192" height="19.828" fill="url(#bland-pattern-diagonal)" stroke="none"/><rect x="259.615" y="409.138" width="20.192" height="19.828" fill="url(#bland-pattern-diagonal)" stroke="none"/><rect x="279.808" y="409.138" width="20.192" height="19.828" fill="url(#bland-pattern-diagonal)" stroke="none"/><rect x="300" y="409.138" width="20.192" height="19.828" fill="url(#bland-pattern-diagonal)" stroke="none"/><rect x="320.192" y="409.138" width="20.192" height="19.828" fill="url(#bland-pattern-diagonal)" stroke="none"/><rect x="340.385" y="409.138" width="20.192" height="19.828" fill="url(#bland-pattern-diagonal)" stroke="none"/><rect x="360.577" y="409.138" width="20.192" height="19.828" fill="url(#bland-pattern-diagonal)" stroke="none"/><rect x="380.769" y="409.138" width="20.192" height="19.828" fill="url(#bland-pattern-dots_sparse)" stroke="none"/><rect x="400.962" y="409.138" width="20.192" height="19.828" fill="url(#bland-pattern-dots_sparse)" stroke="none"/><rect x="421.154" y="409.138" width="20.192" height="19.828" fill="url(#bland-pattern-dots_sparse)" stroke="none"/><rect x="441.346" y="409.138" width="20.192" height="19.828" fill="white" stroke="none"/><rect x="461.538" y="409.138" width="20.192" height="19.828" fill="white" stroke="none"/><rect x="481.731" y="409.138" width="20.192" height="19.828" fill="white" stroke="none"/><rect x="98.077" y="389.31" width="20.192" height="19.828" fill="white" stroke="none"/><rect x="118.269" y="389.31" width="20.192" height="19.828" fill="white" stroke="none"/><rect x="138.462" y="389.31" width="20.192" height="19.828" fill="white" stroke="none"/><rect x="158.654" y="389.31" width="20.192" height="19.828" fill="url(#bland-pattern-dots_sparse)" stroke="none"/><rect x="178.846" y="389.31" width="20.192" height="19.828" fill="url(#bland-pattern-dots_sparse)" stroke="none"/><rect x="199.038" y="389.31" width="20.192" height="19.828" fill="url(#bland-pattern-dots_sparse)" stroke="none"/><rect x="219.231" y="389.31" width="20.192" height="19.828" fill="url(#bland-pattern-diagonal)" stroke="none"/><rect x="239.423" y="389.31" width="20.192" height="19.828" fill="url(#bland-pattern-diagonal)" stroke="none"/><rect x="259.615" y="389.31" width="20.192" height="19.828" fill="url(#bland-pattern-crosshatch)" stroke="none"/><rect x="279.808" y="389.31" width="20.192" height="19.828" fill="url(#bland-pattern-crosshatch)" stroke="none"/><rect x="300" y="389.31" width="20.192" height="19.828" fill="url(#bland-pattern-crosshatch)" stroke="none"/><rect x="320.192" y="389.31" width="20.192" height="19.828" fill="url(#bland-pattern-crosshatch)" stroke="none"/><rect x="340.385" y="389.31" width="20.192" height="19.828" fill="url(#bland-pattern-crosshatch)" stroke="none"/><rect x="360.577" y="389.31" width="20.192" height="19.828" fill="url(#bland-pattern-diagonal)" stroke="none"/><rect x="380.769" y="389.31" width="20.192" height="19.828" fill="url(#bland-pattern-diagonal)" stroke="none"/><rect x="400.962" y="389.31" width="20.192" height="19.828" fill="url(#bland-pattern-dots_sparse)" stroke="none"/><rect x="421.154" y="389.31" width="20.192" height="19.828" fill="url(#bland-pattern-dots_sparse)" stroke="none"/><rect x="441.346" y="389.31" width="20.192" height="19.828" fill="url(#bland-pattern-dots_sparse)" stroke="none"/><rect x="461.538" y="389.31" width="20.192" height="19.828" fill="white" stroke="none"/><rect x="481.731" y="389.31" width="20.192" height="19.828" fill="white" stroke="none"/><rect x="98.077" y="369.483" width="20.192" height="19.828" fill="white" stroke="none"/><rect x="118.269" y="369.483" width="20.192" height="19.828" fill="white" stroke="none"/><rect x="138.462" y="369.483" width="20.192" height="19.828" fill="white" stroke="none"/><rect x="158.654" y="369.483" width="20.192" height="19.828" fill="url(#bland-pattern-dots_sparse)" stroke="none"/><rect x="178.846" y="369.483" width="20.192" height="19.828" fill="url(#bland-pattern-dots_sparse)" stroke="none"/><rect x="199.038" y="369.483" width="20.192" height="19.828" fill="url(#bland-pattern-diagonal)" stroke="none"/><rect x="219.231" y="369.483" width="20.192" height="19.828" fill="url(#bland-pattern-crosshatch)" stroke="none"/><rect x="239.423" y="369.483" width="20.192" height="19.828" fill="url(#bland-pattern-crosshatch)" stroke="none"/><rect x="259.615" y="369.483" width="20.192" height="19.828" fill="url(#bland-pattern-diagonal_dense)" stroke="none"/><rect x="279.808" y="369.483" width="20.192" height="19.828" fill="url(#bland-pattern-diagonal_dense)" stroke="none"/><rect x="300" y="369.483" width="20.192" height="19.828" fill="url(#bland-pattern-diagonal_dense)" stroke="none"/><rect x="320.192" y="369.483" width="20.192" height="19.828" fill="url(#bland-pattern-diagonal_dense)" stroke="none"/><rect x="340.385" y="369.483" width="20.192" height="19.828" fill="url(#bland-pattern-diagonal_dense)" stroke="none"/><rect x="360.577" y="369.483" width="20.192" height="19.828" fill="url(#bland-pattern-crosshatch)" stroke="none"/><rect x="380.769" y="369.483" width="20.192" height="19.828" fill="url(#bland-pattern-crosshatch)" stroke="none"/><rect x="400.962" y="369.483" width="20.192" height="19.828" fill="url(#bland-pattern-diagonal)" stroke="none"/><rect x="421.154" y="369.483" width="20.192" height="19.828" fill="url(#bland-pattern-dots_sparse)" stroke="none"/><rect x="441.346" y="369.483" width="20.192" height="19.828" fill="url(#bland-pattern-dots_sparse)" stroke="none"/><rect x="461.538" y="369.483" width="20.192" height="19.828" fill="white" stroke="none"/><rect x="481.731" y="369.483" width="20.192" height="19.828" fill="white" stroke="none"/><rect x="98.077" y="349.655" width="20.192" height="19.828" fill="white" stroke="none"/><rect x="118.269" y="349.655" width="20.192" height="19.828" fill="white" stroke="none"/><rect x="138.462" y="349.655" width="20.192" height="19.828" fill="url(#bland-pattern-dots_sparse)" stroke="none"/><rect x="158.654" y="349.655" width="20.192" height="19.828" fill="url(#bland-pattern-dots_sparse)" stroke="none"/><rect x="178.846" y="349.655" width="20.192" height="19.828" fill="url(#bland-pattern-diagonal)" stroke="none"/><rect x="199.038" y="349.655" width="20.192" height="19.828" fill="url(#bland-pattern-diagonal)" stroke="none"/><rect x="219.231" y="349.655" width="20.192" height="19.828" fill="url(#bland-pattern-crosshatch)" stroke="none"/><rect x="239.423" y="349.655" width="20.192" height="19.828" fill="url(#bland-pattern-diagonal_dense)" stroke="none"/><rect x="259.615" y="349.655" width="20.192" height="19.828" fill="url(#bland-pattern-dots_dense)" stroke="none"/><rect x="279.808" y="349.655" width="20.192" height="19.828" fill="url(#bland-pattern-dots_dense)" stroke="none"/><rect x="300" y="349.655" width="20.192" height="19.828" fill="url(#bland-pattern-dots_dense)" stroke="none"/><rect x="320.192" y="349.655" width="20.192" height="19.828" fill="url(#bland-pattern-dots_dense)" stroke="none"/><rect x="340.385" y="349.655" width="20.192" height="19.828" fill="url(#bland-pattern-dots_dense)" stroke="none"/><rect x="360.577" y="349.655" width="20.192" height="19.828" fill="url(#bland-pattern-diagonal_dense)" stroke="none"/><rect x="380.769" y="349.655" width="20.192" height="19.828" fill="url(#bland-pattern-crosshatch)" stroke="none"/><rect x="400.962" y="349.655" width="20.192" height="19.828" fill="url(#bland-pattern-diagonal)" stroke="none"/><rect x="421.154" y="349.655" width="20.192" height="19.828" fill="url(#bland-pattern-diagonal)" stroke="none"/><rect x="441.346" y="349.655" width="20.192" height="19.828" fill="url(#bland-pattern-dots_sparse)" stroke="none"/><rect x="461.538" y="349.655" width="20.192" height="19.828" fill="url(#bland-pattern-dots_sparse)" stroke="none"/><rect x="481.731" y="349.655" width="20.192" height="19.828" fill="white" stroke="none"/><rect x="98.077" y="329.828" width="20.192" height="19.828" fill="white" stroke="none"/><rect x="118.269" y="329.828" width="20.192" height="19.828" fill="white" stroke="none"/><rect x="138.462" y="329.828" width="20.192" height="19.828" fill="url(#bland-pattern-dots_sparse)" stroke="none"/><rect x="158.654" y="329.828" width="20.192" height="19.828" fill="url(#bland-pattern-dots_sparse)" stroke="none"/><rect x="178.846" y="329.828" width="20.192" height="19.828" fill="url(#bland-pattern-diagonal)" stroke="none"/><rect x="199.038" y="329.828" width="20.192" height="19.828" fill="url(#bland-pattern-crosshatch)" stroke="none"/><rect x="219.231" y="329.828" width="20.192" height="19.828" fill="url(#bland-pattern-diagonal_dense)" stroke="none"/><rect x="239.423" y="329.828" width="20.192" height="19.828" fill="url(#bland-pattern-dots_dense)" stroke="none"/><rect x="259.615" y="329.828" width="20.192" height="19.828" fill="url(#bland-pattern-dots_dense)" stroke="none"/><rect x="279.808" y="329.828" width="20.192" height="19.828" fill="black" stroke="none"/><rect x="300" y="329.828" width="20.192" height="19.828" fill="black" stroke="none"/><rect x="320.192" y="329.828" width="20.192" height="19.828" fill="black" stroke="none"/><rect x="340.385" y="329.828" width="20.192" height="19.828" fill="url(#bland-pattern-dots_dense)" stroke="none"/><rect x="360.577" y="329.828" width="20.192" height="19.828" fill="url(#bland-pattern-dots_dense)" stroke="none"/><rect x="380.769" y="329.828" width="20.192" height="19.828" fill="url(#bland-pattern-diagonal_dense)" stroke="none"/><rect x="400.962" y="329.828" width="20.192" height="19.828" fill="url(#bland-pattern-crosshatch)" stroke="none"/><rect x="421.154" y="329.828" width="20.192" height="19.828" fill="url(#bland-pattern-diagonal)" stroke="none"/><rect x="441.346" y="329.828" width="20.192" height="19.828" fill="url(#bland-pattern-dots_sparse)" stroke="none"/><rect x="461.538" y="329.828" width="20.192" height="19.828" fill="url(#bland-pattern-dots_sparse)" stroke="none"/><rect x="481.731" y="329.828" width="20.192" height="19.828" fill="white" stroke="none"/><rect x="98.077" y="310" width="20.192" height="19.828" fill="white" stroke="none"/><rect x="118.269" y="310" width="20.192" height="19.828" fill="white" stroke="none"/><rect x="138.462" y="310" width="20.192" height="19.828" fill="url(#bland-pattern-dots_sparse)" stroke="none"/><rect x="158.654" y="310" width="20.192" height="19.828" fill="url(#bland-pattern-dots_sparse)" stroke="none"/><rect x="178.846" y="310" width="20.192" height="19.828" fill="url(#bland-pattern-diagonal)" stroke="none"/><rect x="199.038" y="310" width="20.192" height="19.828" fill="url(#bland-pattern-crosshatch)" stroke="none"/><rect x="219.231" y="310" width="20.192" height="19.828" fill="url(#bland-pattern-diagonal_dense)" stroke="none"/><rect x="239.423" y="310" width="20.192" height="19.828" fill="url(#bland-pattern-dots_dense)" stroke="none"/><rect x="259.615" y="310" width="20.192" height="19.828" fill="black" stroke="none"/><rect x="279.808" y="310" width="20.192" height="19.828" fill="black" stroke="none"/><rect x="300" y="310" width="20.192" height="19.828" fill="black" stroke="none"/><rect x="320.192" y="310" width="20.192" height="19.828" fill="black" stroke="none"/><rect x="340.385" y="310" width="20.192" height="19.828" fill="black" stroke="none"/><rect x="360.577" y="310" width="20.192" height="19.828" fill="url(#bland-pattern-dots_dense)" stroke="none"/><rect x="380.769" y="310" width="20.192" height="19.828" fill="url(#bland-pattern-diagonal_dense)" stroke="none"/><rect x="400.962" y="310" width="20.192" height="19.828" fill="url(#bland-pattern-crosshatch)" stroke="none"/><rect x="421.154" y="310" width="20.192" height="19.828" fill="url(#bland-pattern-diagonal)" stroke="none"/><rect x="441.346" y="310" width="20.192" height="19.828" fill="url(#bland-pattern-dots_sparse)" stroke="none"/><rect x="461.538" y="310" width="20.192" height="19.828" fill="url(#bland-pattern-dots_sparse)" stroke="none"/><rect x="481.731" y="310" width="20.192" height="19.828" fill="white" stroke="none"/><rect x="98.077" y="290.172" width="20.192" height="19.828" fill="white" stroke="none"/><rect x="118.269" y="290.172" width="20.192" height="19.828" fill="white" stroke="none"/><rect x="138.462" y="290.172" width="20.192" height="19.828" fill="url(#bland-pattern-dots_sparse)" stroke="none"/><rect x="158.654" y="290.172" width="20.192" height="19.828" fill="url(#bland-pattern-diagonal)" stroke="none"/><rect x="178.846" y="290.172" width="20.192" height="19.828" fill="url(#bland-pattern-diagonal)" stroke="none"/><rect x="199.038" y="290.172" width="20.192" height="19.828" fill="url(#bland-pattern-crosshatch)" stroke="none"/><rect x="219.231" y="290.172" width="20.192" height="19.828" fill="url(#bland-pattern-diagonal_dense)" stroke="none"/><rect x="239.423" y="290.172" width="20.192" height="19.828" fill="url(#bland-pattern-dots_dense)" stroke="none"/><rect x="259.615" y="290.172" width="20.192" height="19.828" fill="black" stroke="none"/><rect x="279.808" y="290.172" width="20.192" height="19.828" fill="black" stroke="none"/><rect x="300" y="290.172" width="20.192" height="19.828" fill="black" stroke="none"/><rect x="320.192" y="290.172" width="20.192" height="19.828" fill="black" stroke="none"/><rect x="340.385" y="290.172" width="20.192" height="19.828" fill="black" stroke="none"/><rect x="360.577" y="290.172" width="20.192" height="19.828" fill="url(#bland-pattern-dots_dense)" stroke="none"/><rect x="380.769" y="290.172" width="20.192" height="19.828" fill="url(#bland-pattern-diagonal_dense)" stroke="none"/><rect x="400.962" y="290.172" width="20.192" height="19.828" fill="url(#bland-pattern-crosshatch)" stroke="none"/><rect x="421.154" y="290.172" width="20.192" height="19.828" fill="url(#bland-pattern-diagonal)" stroke="none"/><rect x="441.346" y="290.172" width="20.192" height="19.828" fill="url(#bland-pattern-diagonal)" stroke="none"/><rect x="461.538" y="290.172" width="20.192" height="19.828" fill="url(#bland-pattern-dots_sparse)" stroke="none"/><rect x="481.731" y="290.172" width="20.192" height="19.828" fill="white" stroke="none"/><rect x="98.077" y="270.345" width="20.192" height="19.828" fill="white" stroke="none"/><rect x="118.269" y="270.345" width="20.192" height="19.828" fill="white" stroke="none"/><rect x="138.462" y="270.345" width="20.192" height="19.828" fill="url(#bland-pattern-dots_sparse)" stroke="none"/><rect x="158.654" y="270.345" width="20.192" height="19.828" fill="url(#bland-pattern-dots_sparse)" stroke="none"/><rect x="178.846" y="270.345" width="20.192" height="19.828" fill="url(#bland-pattern-diagonal)" stroke="none"/><rect x="199.038" y="270.345" width="20.192" height="19.828" fill="url(#bland-pattern-crosshatch)" stroke="none"/><rect x="219.231" y="270.345" width="20.192" height="19.828" fill="url(#bland-pattern-diagonal_dense)" stroke="none"/><rect x="239.423" y="270.345" width="20.192" height="19.828" fill="url(#bland-pattern-dots_dense)" stroke="none"/><rect x="259.615" y="270.345" width="20.192" height="19.828" fill="black" stroke="none"/><rect x="279.808" y="270.345" width="20.192" height="19.828" fill="black" stroke="none"/><rect x="300" y="270.345" width="20.192" height="19.828" fill="black" stroke="none"/><rect x="320.192" y="270.345" width="20.192" height="19.828" fill="black" stroke="none"/><rect x="340.385" y="270.345" width="20.192" height="19.828" fill="black" stroke="none"/><rect x="360.577" y="270.345" width="20.192" height="19.828" fill="url(#bland-pattern-dots_dense)" stroke="none"/><rect x="380.769" y="270.345" width="20.192" height="19.828" fill="url(#bland-pattern-diagonal_dense)" stroke="none"/><rect x="400.962" y="270.345" width="20.192" height="19.828" fill="url(#bland-pattern-crosshatch)" stroke="none"/><rect x="421.154" y="270.345" width="20.192" height="19.828" fill="url(#bland-pattern-diagonal)" stroke="none"/><rect x="441.346" y="270.345" width="20.192" height="19.828" fill="url(#bland-pattern-dots_sparse)" stroke="none"/><rect x="461.538" y="270.345" width="20.192" height="19.828" fill="url(#bland-pattern-dots_sparse)" stroke="none"/><rect x="481.731" y="270.345" width="20.192" height="19.828" fill="white" stroke="none"/><rect x="98.077" y="250.517" width="20.192" height="19.828" fill="white" stroke="none"/><rect x="118.269" y="250.517" width="20.192" height="19.828" fill="white" stroke="none"/><rect x="138.462" y="250.517" width="20.192" height="19.828" fill="url(#bland-pattern-dots_sparse)" stroke="none"/><rect x="158.654" y="250.517" width="20.192" height="19.828" fill="url(#bland-pattern-dots_sparse)" stroke="none"/><rect x="178.846" y="250.517" width="20.192" height="19.828" fill="url(#bland-pattern-diagonal)" stroke="none"/><rect x="199.038" y="250.517" width="20.192" height="19.828" fill="url(#bland-pattern-crosshatch)" stroke="none"/><rect x="219.231" y="250.517" width="20.192" height="19.828" fill="url(#bland-pattern-diagonal_dense)" stroke="none"/><rect x="239.423" y="250.517" width="20.192" height="19.828" fill="url(#bland-pattern-dots_dense)" stroke="none"/><rect x="259.615" y="250.517" width="20.192" height="19.828" fill="url(#bland-pattern-dots_dense)" stroke="none"/><rect x="279.808" y="250.517" width="20.192" height="19.828" fill="black" stroke="none"/><rect x="300" y="250.517" width="20.192" height="19.828" fill="black" stroke="none"/><rect x="320.192" y="250.517" width="20.192" height="19.828" fill="black" stroke="none"/><rect x="340.385" y="250.517" width="20.192" height="19.828" fill="url(#bland-pattern-dots_dense)" stroke="none"/><rect x="360.577" y="250.517" width="20.192" height="19.828" fill="url(#bland-pattern-dots_dense)" stroke="none"/><rect x="380.769" y="250.517" width="20.192" height="19.828" fill="url(#bland-pattern-diagonal_dense)" stroke="none"/><rect x="400.962" y="250.517" width="20.192" height="19.828" fill="url(#bland-pattern-crosshatch)" stroke="none"/><rect x="421.154" y="250.517" width="20.192" height="19.828" fill="url(#bland-pattern-diagonal)" stroke="none"/><rect x="441.346" y="250.517" width="20.192" height="19.828" fill="url(#bland-pattern-dots_sparse)" stroke="none"/><rect x="461.538" y="250.517" width="20.192" height="19.828" fill="url(#bland-pattern-dots_sparse)" stroke="none"/><rect x="481.731" y="250.517" width="20.192" height="19.828" fill="white" stroke="none"/><rect x="98.077" y="230.69" width="20.192" height="19.828" fill="white" stroke="none"/><rect x="118.269" y="230.69" width="20.192" height="19.828" fill="white" stroke="none"/><rect x="138.462" y="230.69" width="20.192" height="19.828" fill="url(#bland-pattern-dots_sparse)" stroke="none"/><rect x="158.654" y="230.69" width="20.192" height="19.828" fill="url(#bland-pattern-dots_sparse)" stroke="none"/><rect x="178.846" y="230.69" width="20.192" height="19.828" fill="url(#bland-pattern-diagonal)" stroke="none"/><rect x="199.038" y="230.69" width="20.192" height="19.828" fill="url(#bland-pattern-diagonal)" stroke="none"/><rect x="219.231" y="230.69" width="20.192" height="19.828" fill="url(#bland-pattern-crosshatch)" stroke="none"/><rect x="239.423" y="230.69" width="20.192" height="19.828" fill="url(#bland-pattern-diagonal_dense)" stroke="none"/><rect x="259.615" y="230.69" width="20.192" height="19.828" fill="url(#bland-pattern-dots_dense)" stroke="none"/><rect x="279.808" y="230.69" width="20.192" height="19.828" fill="url(#bland-pattern-dots_dense)" stroke="none"/><rect x="300" y="230.69" width="20.192" height="19.828" fill="url(#bland-pattern-dots_dense)" stroke="none"/><rect x="320.192" y="230.69" width="20.192" height="19.828" fill="url(#bland-pattern-dots_dense)" stroke="none"/><rect x="340.385" y="230.69" width="20.192" height="19.828" fill="url(#bland-pattern-dots_dense)" stroke="none"/><rect x="360.577" y="230.69" width="20.192" height="19.828" fill="url(#bland-pattern-diagonal_dense)" stroke="none"/><rect x="380.769" y="230.69" width="20.192" height="19.828" fill="url(#bland-pattern-crosshatch)" stroke="none"/><rect x="400.962" y="230.69" width="20.192" height="19.828" fill="url(#bland-pattern-diagonal)" stroke="none"/><rect x="421.154" y="230.69" width="20.192" height="19.828" fill="url(#bland-pattern-diagonal)" stroke="none"/><rect x="441.346" y="230.69" width="20.192" height="19.828" fill="url(#bland-pattern-dots_sparse)" stroke="none"/><rect x="461.538" y="230.69" width="20.192" height="19.828" fill="url(#bland-pattern-dots_sparse)" stroke="none"/><rect x="481.731" y="230.69" width="20.192" height="19.828" fill="white" stroke="none"/><rect x="98.077" y="210.862" width="20.192" height="19.828" fill="white" stroke="none"/><rect x="118.269" y="210.862" width="20.192" height="19.828" fill="white" stroke="none"/><rect x="138.462" y="210.862" width="20.192" height="19.828" fill="white" stroke="none"/><rect x="158.654" y="210.862" width="20.192" height="19.828" fill="url(#bland-pattern-dots_sparse)" stroke="none"/><rect x="178.846" y="210.862" width="20.192" height="19.828" fill="url(#bland-pattern-dots_sparse)" stroke="none"/><rect x="199.038" y="210.862" width="20.192" height="19.828" fill="url(#bland-pattern-diagonal)" stroke="none"/><rect x="219.231" y="210.862" width="20.192" height="19.828" fill="url(#bland-pattern-crosshatch)" stroke="none"/><rect x="239.423" y="210.862" width="20.192" height="19.828" fill="url(#bland-pattern-crosshatch)" stroke="none"/><rect x="259.615" y="210.862" width="20.192" height="19.828" fill="url(#bland-pattern-diagonal_dense)" stroke="none"/><rect x="279.808" y="210.862" width="20.192" height="19.828" fill="url(#bland-pattern-diagonal_dense)" stroke="none"/><rect x="300" y="210.862" width="20.192" height="19.828" fill="url(#bland-pattern-diagonal_dense)" stroke="none"/><rect x="320.192" y="210.862" width="20.192" height="19.828" fill="url(#bland-pattern-diagonal_dense)" stroke="none"/><rect x="340.385" y="210.862" width="20.192" height="19.828" fill="url(#bland-pattern-diagonal_dense)" stroke="none"/><rect x="360.577" y="210.862" width="20.192" height="19.828" fill="url(#bland-pattern-crosshatch)" stroke="none"/><rect x="380.769" y="210.862" width="20.192" height="19.828" fill="url(#bland-pattern-crosshatch)" stroke="none"/><rect x="400.962" y="210.862" width="20.192" height="19.828" fill="url(#bland-pattern-diagonal)" stroke="none"/><rect x="421.154" y="210.862" width="20.192" height="19.828" fill="url(#bland-pattern-dots_sparse)" stroke="none"/><rect x="441.346" y="210.862" width="20.192" height="19.828" fill="url(#bland-pattern-dots_sparse)" stroke="none"/><rect x="461.538" y="210.862" width="20.192" height="19.828" fill="white" stroke="none"/><rect x="481.731" y="210.862" width="20.192" height="19.828" fill="white" stroke="none"/><rect x="98.077" y="191.034" width="20.192" height="19.828" fill="white" stroke="none"/><rect x="118.269" y="191.034" width="20.192" height="19.828" fill="white" stroke="none"/><rect x="138.462" y="191.034" width="20.192" height="19.828" fill="white" stroke="none"/><rect x="158.654" y="191.034" width="20.192" height="19.828" fill="url(#bland-pattern-dots_sparse)" stroke="none"/><rect x="178.846" y="191.034" width="20.192" height="19.828" fill="url(#bland-pattern-dots_sparse)" stroke="none"/><rect x="199.038" y="191.034" width="20.192" height="19.828" fill="url(#bland-pattern-dots_sparse)" stroke="none"/><rect x="219.231" y="191.034" width="20.192" height="19.828" fill="url(#bland-pattern-diagonal)" stroke="none"/><rect x="239.423" y="191.034" width="20.192" height="19.828" fill="url(#bland-pattern-diagonal)" stroke="none"/><rect x="259.615" y="191.034" width="20.192" height="19.828" fill="url(#bland-pattern-crosshatch)" stroke="none"/><rect x="279.808" y="191.034" width="20.192" height="19.828" fill="url(#bland-pattern-crosshatch)" stroke="none"/><rect x="300" y="191.034" width="20.192" height="19.828" fill="url(#bland-pattern-crosshatch)" stroke="none"/><rect x="320.192" y="191.034" width="20.192" height="19.828" fill="url(#bland-pattern-crosshatch)" stroke="none"/><rect x="340.385" y="191.034" width="20.192" height="19.828" fill="url(#bland-pattern-crosshatch)" stroke="none"/><rect x="360.577" y="191.034" width="20.192" height="19.828" fill="url(#bland-pattern-diagonal)" stroke="none"/><rect x="380.769" y="191.034" width="20.192" height="19.828" fill="url(#bland-pattern-diagonal)" stroke="none"/><rect x="400.962" y="191.034" width="20.192" height="19.828" fill="url(#bland-pattern-dots_sparse)" stroke="none"/><rect x="421.154" y="191.034" width="20.192" height="19.828" fill="url(#bland-pattern-dots_sparse)" stroke="none"/><rect x="441.346" y="191.034" width="20.192" height="19.828" fill="url(#bland-pattern-dots_sparse)" stroke="none"/><rect x="461.538" y="191.034" width="20.192" height="19.828" fill="white" stroke="none"/><rect x="481.731" y="191.034" width="20.192" height="19.828" fill="white" stroke="none"/><rect x="98.077" y="171.207" width="20.192" height="19.828" fill="white" stroke="none"/><rect x="118.269" y="171.207" width="20.192" height="19.828" fill="white" stroke="none"/><rect x="138.462" y="171.207" width="20.192" height="19.828" fill="white" stroke="none"/><rect x="158.654" y="171.207" width="20.192" height="19.828" fill="white" stroke="none"/><rect x="178.846" y="171.207" width="20.192" height="19.828" fill="url(#bland-pattern-dots_sparse)" stroke="none"/><rect x="199.038" y="171.207" width="20.192" height="19.828" fill="url(#bland-pattern-dots_sparse)" stroke="none"/><rect x="219.231" y="171.207" width="20.192" height="19.828" fill="url(#bland-pattern-dots_sparse)" stroke="none"/><rect x="239.423" y="171.207" width="20.192" height="19.828" fill="url(#bland-pattern-diagonal)" stroke="none"/><rect x="259.615" y="171.207" width="20.192" height="19.828" fill="url(#bland-pattern-diagonal)" stroke="none"/><rect x="279.808" y="171.207" width="20.192" height="19.828" fill="url(#bland-pattern-diagonal)" stroke="none"/><rect x="300" y="171.207" width="20.192" height="19.828" fill="url(#bland-pattern-diagonal)" stroke="none"/><rect x="320.192" y="171.207" width="20.192" height="19.828" fill="url(#bland-pattern-diagonal)" stroke="none"/><rect x="340.385" y="171.207" width="20.192" height="19.828" fill="url(#bland-pattern-diagonal)" stroke="none"/><rect x="360.577" y="171.207" width="20.192" height="19.828" fill="url(#bland-pattern-diagonal)" stroke="none"/><rect x="380.769" y="171.207" width="20.192" height="19.828" fill="url(#bland-pattern-dots_sparse)" stroke="none"/><rect x="400.962" y="171.207" width="20.192" height="19.828" fill="url(#bland-pattern-dots_sparse)" stroke="none"/><rect x="421.154" y="171.207" width="20.192" height="19.828" fill="url(#bland-pattern-dots_sparse)" stroke="none"/><rect x="441.346" y="171.207" width="20.192" height="19.828" fill="white" stroke="none"/><rect x="461.538" y="171.207" width="20.192" height="19.828" fill="white" stroke="none"/><rect x="481.731" y="171.207" width="20.192" height="19.828" fill="white" stroke="none"/><rect x="98.077" y="151.379" width="20.192" height="19.828" fill="white" stroke="none"/><rect x="118.269" y="151.379" width="20.192" height="19.828" fill="white" stroke="none"/><rect x="138.462" y="151.379" width="20.192" height="19.828" fill="white" stroke="none"/><rect x="158.654" y="151.379" width="20.192" height="19.828" fill="white" stroke="none"/><rect x="178.846" y="151.379" width="20.192" height="19.828" fill="white" stroke="none"/><rect x="199.038" y="151.379" width="20.192" height="19.828" fill="url(#bland-pattern-dots_sparse)" stroke="none"/><rect x="219.231" y="151.379" width="20.192" height="19.828" fill="url(#bland-pattern-dots_sparse)" stroke="none"/><rect x="239.423" y="151.379" width="20.192" height="19.828" fill="url(#bland-pattern-dots_sparse)" stroke="none"/><rect x="259.615" y="151.379" width="20.192" height="19.828" fill="url(#bland-pattern-dots_sparse)" stroke="none"/><rect x="279.808" y="151.379" width="20.192" height="19.828" fill="url(#bland-pattern-dots_sparse)" stroke="none"/><rect x="300" y="151.379" width="20.192" height="19.828" fill="url(#bland-pattern-diagonal)" stroke="none"/><rect x="320.192" y="151.379" width="20.192" height="19.828" fill="url(#bland-pattern-dots_sparse)" stroke="none"/><rect x="340.385" y="151.379" width="20.192" height="19.828" fill="url(#bland-pattern-dots_sparse)" stroke="none"/><rect x="360.577" y="151.379" width="20.192" height="19.828" fill="url(#bland-pattern-dots_sparse)" stroke="none"/><rect x="380.769" y="151.379" width="20.192" height="19.828" fill="url(#bland-pattern-dots_sparse)" stroke="none"/><rect x="400.962" y="151.379" width="20.192" height="19.828" fill="url(#bland-pattern-dots_sparse)" stroke="none"/><rect x="421.154" y="151.379" width="20.192" height="19.828" fill="white" stroke="none"/><rect x="441.346" y="151.379" width="20.192" height="19.828" fill="white" stroke="none"/><rect x="461.538" y="151.379" width="20.192" height="19.828" fill="white" stroke="none"/><rect x="481.731" y="151.379" width="20.192" height="19.828" fill="white" stroke="none"/><rect x="98.077" y="131.552" width="20.192" height="19.828" fill="white" stroke="none"/><rect x="118.269" y="131.552" width="20.192" height="19.828" fill="white" stroke="none"/><rect x="138.462" y="131.552" width="20.192" height="19.828" fill="white" stroke="none"/><rect x="158.654" y="131.552" width="20.192" height="19.828" fill="white" stroke="none"/><rect x="178.846" y="131.552" width="20.192" height="19.828" fill="white" stroke="none"/><rect x="199.038" y="131.552" width="20.192" height="19.828" fill="white" stroke="none"/><rect x="219.231" y="131.552" width="20.192" height="19.828" fill="white" stroke="none"/><rect x="239.423" y="131.552" width="20.192" height="19.828" fill="url(#bland-pattern-dots_sparse)" stroke="none"/><rect x="259.615" y="131.552" width="20.192" height="19.828" fill="url(#bland-pattern-dots_sparse)" stroke="none"/><rect x="279.808" y="131.552" width="20.192" height="19.828" fill="url(#bland-pattern-dots_sparse)" stroke="none"/><rect x="300" y="131.552" width="20.192" height="19.828" fill="url(#bland-pattern-dots_sparse)" stroke="none"/><rect x="320.192" y="131.552" width="20.192" height="19.828" fill="url(#bland-pattern-dots_sparse)" stroke="none"/><rect x="340.385" y="131.552" width="20.192" height="19.828" fill="url(#bland-pattern-dots_sparse)" stroke="none"/><rect x="360.577" y="131.552" width="20.192" height="19.828" fill="url(#bland-pattern-dots_sparse)" stroke="none"/><rect x="380.769" y="131.552" width="20.192" height="19.828" fill="white" stroke="none"/><rect x="400.962" y="131.552" width="20.192" height="19.828" fill="white" stroke="none"/><rect x="421.154" y="131.552" width="20.192" height="19.828" fill="white" stroke="none"/><rect x="441.346" y="131.552" width="20.192" height="19.828" fill="white" stroke="none"/><rect x="461.538" y="131.552" width="20.192" height="19.828" fill="white" stroke="none"/><rect x="481.731" y="131.552" width="20.192" height="19.828" fill="white" stroke="none"/><rect x="98.077" y="111.724" width="20.192" height="19.828" fill="white" stroke="none"/><rect x="118.269" y="111.724" width="20.192" height="19.828" fill="white" stroke="none"/><rect x="138.462" y="111.724" width="20.192" height="19.828" fill="white" stroke="none"/><rect x="158.654" y="111.724" width="20.192" height="19.828" fill="white" stroke="none"/><rect x="178.846" y="111.724" width="20.192" height="19.828" fill="white" stroke="none"/><rect x="199.038" y="111.724" width="20.192" height="19.828" fill="white" stroke="none"/><rect x="219.231" y="111.724" width="20.192" height="19.828" fill="white" stroke="none"/><rect x="239.423" y="111.724" width="20.192" height="19.828" fill="white" stroke="none"/><rect x="259.615" y="111.724" width="20.192" height="19.828" fill="white" stroke="none"/><rect x="279.808" y="111.724" width="20.192" height="19.828" fill="white" stroke="none"/><rect x="300" y="111.724" width="20.192" height="19.828" fill="white" stroke="none"/><rect x="320.192" y="111.724" width="20.192" height="19.828" fill="white" stroke="none"/><rect x="340.385" y="111.724" width="20.192" height="19.828" fill="white" stroke="none"/><rect x="360.577" y="111.724" width="20.192" height="19.828" fill="white" stroke="none"/><rect x="380.769" y="111.724" width="20.192" height="19.828" fill="white" stroke="none"/><rect x="400.962" y="111.724" width="20.192" height="19.828" fill="white" stroke="none"/><rect x="421.154" y="111.724" width="20.192" height="19.828" fill="white" stroke="none"/><rect x="441.346" y="111.724" width="20.192" height="19.828" fill="white" stroke="none"/><rect x="461.538" y="111.724" width="20.192" height="19.828" fill="white" stroke="none"/><rect x="481.731" y="111.724" width="20.192" height="19.828" fill="white" stroke="none"/></g><rect x="90" y="80" width="420" height="460" fill="none" stroke="black" stroke-width="1"/><line x1="98.077" y1="540" x2="98.077" y2="536" stroke="black" stroke-width="1"/><text x="98.077" y="553" font-size="9" font-family="Times, &apos;Liberation Serif&apos;, serif" text-anchor="middle" fill="black">-10</text><line x1="199.038" y1="540" x2="199.038" y2="536" stroke="black" stroke-width="1"/><text x="199.038" y="553" font-size="9" font-family="Times, &apos;Liberation Serif&apos;, serif" text-anchor="middle" fill="black">-5</text><line x1="300" y1="540" x2="300" y2="536" stroke="black" stroke-width="1"/><text x="300" y="553" font-size="9" font-family="Times, &apos;Liberation Serif&apos;, serif" text-anchor="middle" fill="black">0</text><line x1="400.962" y1="540" x2="400.962" y2="536" stroke="black" stroke-width="1"/><text x="400.962" y="553" font-size="9" font-family="Times, &apos;Liberation Serif&apos;, serif" text-anchor="middle" fill="black">5</text><line x1="501.923" y1="540" x2="501.923" y2="536" stroke="black" stroke-width="1"/><text x="501.923" y="553" font-size="9" font-family="Times, &apos;Liberation Serif&apos;, serif" text-anchor="middle" fill="black">10</text><line x1="90" y1="508.276" x2="94" y2="508.276" stroke="black" stroke-width="1"/><text x="86" y="510.776" font-size="9" font-family="Times, &apos;Liberation Serif&apos;, serif" text-anchor="end" fill="black">-10</text><line x1="90" y1="409.138" x2="94" y2="409.138" stroke="black" stroke-width="1"/><text x="86" y="411.638" font-size="9" font-family="Times, &apos;Liberation Serif&apos;, serif" text-anchor="end" fill="black">-5</text><line x1="90" y1="310" x2="94" y2="310" stroke="black" stroke-width="1"/><text x="86" y="312.5" font-size="9" font-family="Times, &apos;Liberation Serif&apos;, serif" text-anchor="end" fill="black">0</text><line x1="90" y1="210.862" x2="94" y2="210.862" stroke="black" stroke-width="1"/><text x="86" y="213.362" font-size="9" font-family="Times, &apos;Liberation Serif&apos;, serif" text-anchor="end" fill="black">5</text><line x1="90" y1="111.724" x2="94" y2="111.724" stroke="black" stroke-width="1"/><text x="86" y="114.224" font-size="9" font-family="Times, &apos;Liberation Serif&apos;, serif" text-anchor="end" fill="black">10</text><text x="300" y="575" font-size="11" font-family="Times, &apos;Liberation Serif&apos;, serif" text-anchor="middle" fill="black" font-style="italic">x</text><text x="46" y="310" font-size="11" font-family="Times, &apos;Liberation Serif&apos;, serif" text-anchor="middle" fill="black" font-style="italic" transform="rotate(-90 46 310)">y</text><rect x="524" y="474.286" width="16" height="65.714" fill="white" stroke="none"/><rect x="524" y="408.571" width="16" height="65.714" fill="url(#bland-pattern-dots_sparse)" stroke="none"/><rect x="524" y="342.857" width="16" height="65.714" fill="url(#bland-pattern-diagonal)" stroke="none"/><rect x="524" y="277.143" width="16" height="65.714" fill="url(#bland-pattern-crosshatch)" stroke="none"/><rect x="524" y="211.429" width="16" height="65.714" fill="url(#bland-pattern-diagonal_dense)" stroke="none"/><rect x="524" y="145.714" width="16" height="65.714" fill="url(#bland-pattern-dots_dense)" stroke="none"/><rect x="524" y="80" width="16" height="65.714" fill="black" stroke="none"/><rect x="524" y="80" width="16" height="460" fill="none" stroke="black" stroke-width="1"/><line x1="540" y1="540" x2="544" y2="540" stroke="black" stroke-width="1"/><text x="546" y="542.5" font-size="9" font-family="Times, &apos;Liberation Serif&apos;, serif" text-anchor="start" fill="black">0.007</text><line x1="540" y1="425" x2="544" y2="425" stroke="black" stroke-width="1"/><text x="546" y="427.5" font-size="9" font-family="Times, &apos;Liberation Serif&apos;, serif" text-anchor="start" fill="black">0.255</text><line x1="540" y1="310" x2="544" y2="310" stroke="black" stroke-width="1"/><text x="546" y="312.5" font-size="9" font-family="Times, &apos;Liberation Serif&apos;, serif" text-anchor="start" fill="black">0.503</text><line x1="540" y1="195" x2="544" y2="195" stroke="black" stroke-width="1"/><text x="546" y="197.5" font-size="9" font-family="Times, &apos;Liberation Serif&apos;, serif" text-anchor="start" fill="black">0.752</text><line x1="540" y1="80" x2="544" y2="80" stroke="black" stroke-width="1"/><text x="546" y="82.5" font-size="9" font-family="Times, &apos;Liberation Serif&apos;, serif" text-anchor="start" fill="black">1</text><text x="584" y="310" font-size="11" font-family="Times, &apos;Liberation Serif&apos;, serif" text-anchor="middle" fill="black" font-style="italic" transform="translate(0 0) rotate(-90 584 310)">density</text></svg>