<?xml version="1.0" encoding="UTF-8"?>
<svg xmlns="http://www.w3.org/2000/svg" viewBox="0 0 720 440" width="720" height="440" shape-rendering="geometricPrecision" font-family="Times, 'Liberation Serif', serif"><rect x="0" y="0" width="720" height="440" fill="white"/><rect x="12" y="12" width="696" height="416" fill="none" stroke="black" stroke-width="0.8"/><text x="375" y="42" font-size="14" font-family="Times, &apos;Liberation Serif&apos;, serif" text-anchor="middle" letter-spacing="0.05em" fill="black">STEM PLOT</text><g opacity="0.7"><line x1="100.962" y1="80" x2="100.962" y2="360" stroke="black" stroke-width="0.4" stroke-dasharray="2 3"/><line x1="237.981" y1="80" x2="237.981" y2="360" stroke="black" stroke-width="0.4" stroke-dasharray="2 3"/><line x1="375" y1="80" x2="375" y2="360" stroke="black" stroke-width="0.4" stroke-dasharray="2 3"/><line x1="512.019" y1="80" x2="512.019" y2="360" stroke="black" stroke-width="0.4" stroke-dasharray="2 3"/><line x1="649.038" y1="80" x2="649.038" y2="360" stroke="black" stroke-width="0.4" stroke-dasharray="2 3"/><line x1="90" y1="333.914" x2="660" y2="333.914" stroke="black" stroke-width="0.4" stroke-dasharray="2 3"/><line x1="90" y1="255.713" x2="660" y2="255.713" stroke="black" stroke-width="0.4" stroke-dasharray="2 3"/><line x1="90" y1="177.512" x2="660" y2="177.512" stroke="black" stroke-width="0.4" stroke-dasharray="2 3"/><line x1="90" y1="99.31" x2="660" y2="99.31" stroke="black" stroke-width="0.4" stroke-dasharray="2 3"/></g><defs><clipPath id="bland-clip-plot"><rect x="90" y="80" width="570" height="280"/></clipPath></defs><g clip-path="url(#bland-clip-plot)"><line x1="100.962" y1="255.713" x2="100.962" y2="99.31" stroke="black" stroke-width="1.2"/><circle cx="100.962" cy="99.31" r="4" fill="black"/><line x1="128.365" y1="255.713" x2="128.365" y2="131.518" stroke="black" stroke-width="1.2"/><circle cx="128.365" cy="131.518" r="4" fill="black"/><line x1="155.769" y1="255.713" x2="155.769" y2="186.526" stroke="black" stroke-width="1.2"/><circle cx="155.769" cy="186.526" r="4" fill="black"/><line x1="183.173" y1="255.713" x2="183.173" y2="247.517" stroke="black" stroke-width="1.2"/><circle cx="183.173" cy="247.517" r="4" fill="black"/><line x1="210.577" y1="255.713" x2="210.577" y2="299.342" stroke="black" stroke-width="1.2"/><circle cx="210.577" cy="299.342" r="4" fill="black"/><line x1="237.981" y1="255.713" x2="237.981" y2="331.712" stroke="black" stroke-width="1.2"/><circle cx="237.981" cy="331.712" r="4" fill="black"/><line x1="265.385" y1="255.713" x2="265.385" y2="340.69" stroke="black" stroke-width="1.2"/><circle cx="265.385" cy="340.69" r="4" fill="black"/><line x1="292.788" y1="255.713" x2="292.788" y2="328.445" stroke="black" stroke-width="1.2"/><circle cx="292.788" cy="328.445" r="4" fill="black"/><line x1="320.192" y1="255.713" x2="320.192" y2="301.649" stroke="black" stroke-width="1.2"/><circle cx="320.192" cy="301.649" r="4" fill="black"/><line x1="347.596" y1="255.713" x2="347.596" y2="269.117" stroke="black" stroke-width="1.2"/><circle cx="347.596" cy="269.117" r="4" fill="black"/><line x1="375" y1="255.713" x2="375" y2="239.392" stroke="black" stroke-width="1.2"/><circle cx="375" cy="239.392" r="4" fill="black"/><line x1="402.404" y1="255.713" x2="402.404" y2="218.818" stroke="black" stroke-width="1.2"/><circle cx="402.404" cy="218.818" r="4" fill="black"/><line x1="429.808" y1="255.713" x2="429.808" y2="210.482" stroke="black" stroke-width="1.2"/><circle cx="429.808" cy="210.482" r="4" fill="black"/><line x1="457.212" y1="255.713" x2="457.212" y2="214.086" stroke="black" stroke-width="1.2"/><circle cx="457.212" cy="214.086" r="4" fill="black"/><line x1="484.615" y1="255.713" x2="484.615" y2="226.636" stroke="black" stroke-width="1.2"/><circle cx="484.615" cy="226.636" r="4" fill="black"/><line x1="512.019" y1="255.713" x2="512.019" y2="243.616" stroke="black" stroke-width="1.2"/><circle cx="512.019" cy="243.616" r="4" fill="black"/><line x1="539.423" y1="255.713" x2="539.423" y2="260.308" stroke="black" stroke-width="1.2"/><circle cx="539.423" cy="260.308" r="4" fill="black"/><line x1="566.827" y1="255.713" x2="566.827" y2="272.914" stroke="black" stroke-width="1.2"/><circle cx="566.827" cy="272.914" r="4" fill="black"/><line x1="594.231" y1="255.713" x2="594.231" y2="279.269" stroke="black" stroke-width="1.2"/><circle cx="594.231" cy="279.269" r="4" fill="black"/><line x1="621.635" y1="255.713" x2="621.635" y2="279.04" stroke="black" stroke-width="1.2"/><circle cx="621.635" cy="279.04" r="4" fill="black"/><line x1="649.038" y1="255.713" x2="649.038" y2="273.473" stroke="black" stroke-width="1.2"/><circle cx="649.038" cy="273.473" r="4" fill="black"/><line x1="90" y1="255.713" x2="660" y2="255.713" stroke="black" stroke-width="0.5"/></g><rect x="90" y="80" width="570" height="280" fill="none" stroke="black" stroke-width="1"/><line x1="100.962" y1="360" x2="100.962" y2="356" stroke="black" stroke-width="1"/><text x="100.962" y="373" font-size="9" font-family="Times, &apos;Liberation Serif&apos;, serif" text-anchor="middle" fill="black">0</text><line x1="237.981" y1="360" x2="237.981" y2="356" stroke="black" stroke-width="1"/><text x="237.981" y="373" font-size="9" font-family="Times, &apos;Liberation Serif&apos;, serif" text-anchor="middle" fill="black">5</text><line x1="375" y1="360" x2="375" y2="356" stroke="black" stroke-width="1"/><text x="375" y="373" font-size="9" font-family="Times, &apos;Liberation Serif&apos;, serif" text-anchor="middle" fill="black">10</text><line x1="512.019" y1="360" x2="512.019" y2="356" stroke="black" stroke-width="1"/><text x="512.019" y="373" font-size="9" font-family="Times, &apos;Liberation Serif&apos;, serif" text-anchor="middle" fill="black">15</text><line x1="649.038" y1="360" x2="649.038" y2="356" stroke="black" stroke-width="1"/><text x="649.038" y="373" font-size="9" font-family="Times, &apos;Liberation Serif&apos;, serif" text-anchor="middle" fill="black">20</text><line x1="90" y1="333.914" x2="94" y2="333.914" stroke="black" stroke-width="1"/><text x="86" y="336.414" font-size="9" font-family="Times, &apos;Liberation Serif&apos;, serif" text-anchor="end" fill="black">-0.5</text><line x1="90" y1="255.713" x2="94" y2="255.713" stroke="black" stroke-width="1"/><text x="86" y="258.213" font-size="9" font-family="Times, &apos;Liberation Serif&apos;, serif" text-anchor="end" fill="black">0</text><line x1="90" y1="177.512" x2="94" y2="177.512" stroke="black" stroke-width="1"/><text x="86" y="180.012" font-size="9" font-family="Times, &apos;Liberation Serif&apos;, serif" text-anchor="end" fill="black">0.5</text><line x1="90" y1="99.31" x2="94" y2="99.31" stroke="black" stroke-width="1"/><text x="86" y="101.81" font-size="9" font-family="Times, &apos;Liberation Serif&apos;, serif" text-anchor="end" fill="black">1</text><text x="375" y="395" font-size="11" font-family="Times, &apos;Liberation Serif&apos;, serif" text-anchor="middle" fill="black" font-style="italic">n</text><text x="46" y="220" font-size="11" font-family="Times, &apos;Liberation Serif&apos;, serif" text-anchor="middle" fill="black" font-style="italic" transform="rotate(-90 46 220)">x[n]</text><rect x="524" y="88" width="128" height="28" fill="white" stroke="black" stroke-width="0.8"/><line x1="532" y1="102" x2="560" y2="102" stroke="black" stroke-width="1.2"/><circle cx="546" cy="102" r="3" fill="black"/><text x="568" y="107" font-size="10" font-family="Times, &apos;Liberation Serif&apos;, serif" fill="black">x[n]</text></svg>