<?xml version="1.0" encoding="UTF-8"?>
<svg xmlns="http://www.w3.org/2000/svg" viewBox="0 0 620 620" width="620" height="620" shape-rendering="geometricPrecision" font-family="Times, 'Liberation Serif', serif"><rect x="0" y="0" width="620" height="620" fill="white"/><rect x="12" y="12" width="596" height="596" fill="none" stroke="black" stroke-width="0.8"/><text x="325" y="42" font-size="14" font-family="Times, &apos;Liberation Serif&apos;, serif" text-anchor="middle" letter-spacing="0.05em" fill="black">S₁₁ SWEEP</text><defs><clipPath id="bland-clip-plot"><circle cx="325" cy="310" r="230"/></clipPath></defs><g clip-path="url(#bland-clip-plot)"><polyline points="542.593,310 542.294,298.854 541.401,287.739 539.914,276.685 537.838,265.723 535.178,254.881 531.943,244.191 528.14,233.681 523.781,223.38 518.876,213.317 513.441,203.519 507.489,194.012 501.036,184.824 494.101,175.978 486.703,167.5 478.861,159.412 470.598,151.738 461.935,144.497 452.898,137.709 443.509,131.394 433.796,125.569 423.785,120.249 413.503,115.449 402.978,111.182 392.24,107.46 381.317,104.294 370.24,101.691 359.039,99.659 347.745,98.204 336.388,97.329 325,97.037 313.612,97.329 302.255,98.204 290.961,99.659 279.76,101.691 268.683,104.294 257.76,107.46 247.022,111.182 236.497,115.449 226.215,120.249 216.204,125.569 206.491,131.394 197.102,137.709 188.065,144.497 179.402,151.738 171.139,159.412 163.297,167.5 155.899,175.978 148.964,184.824 142.511,194.012 136.559,203.519 131.124,213.317 126.219,223.38 121.86,233.681 118.057,244.191 114.822,254.881 112.162,265.723 110.086,276.685 108.599,287.739 107.706,298.854 107.407,310 107.706,321.146 108.599,332.261 110.086,343.315 112.162,354.277 114.822,365.119 118.057,375.809 121.86,386.319 126.219,396.62 131.124,406.683 136.559,416.481 142.511,425.988 148.964,435.176 155.899,444.022 163.297,452.5 171.139,460.588 179.402,468.262 188.065,475.503 197.102,482.291 206.491,488.606 216.204,494.431 226.215,499.751 236.497,504.551 247.022,508.818 257.76,512.54 268.683,515.706 279.76,518.309 290.961,520.341 302.255,521.796 313.612,522.671 325,522.963 336.388,522.671 347.745,521.796 359.039,520.341 370.24,518.309 381.317,515.706 392.24,512.54 402.978,508.818 413.503,504.551 423.785,499.751 433.796,494.431 443.509,488.606 452.898,482.291 461.935,475.503 470.598,468.262 478.861,460.588 486.703,452.5 494.101,444.022 501.036,435.176 507.489,425.988 513.441,416.481 518.876,406.683 523.781,396.62 528.14,386.319 531.943,375.809 535.178,365.119 537.838,354.277 539.914,343.315 541.401,332.261 542.294,321.146 542.593,310" fill="none" stroke="black" stroke-width="0.8" stroke-linecap="round" stroke-linejoin="round"/><polyline points="107.407,310 542.593,310" fill="none" stroke="black" stroke-width="0.8" stroke-linecap="round" stroke-linejoin="round"/><polyline points="542.593,310 542.344,300.712 541.599,291.449 540.36,282.238 538.63,273.102 536.414,264.068 533.718,255.159 530.549,246.401 526.916,237.817 522.829,229.431 518.299,221.265 513.339,213.343 507.962,205.686 502.183,198.315 496.018,191.25 489.483,184.51 482.597,178.115 475.378,172.081 467.847,166.424 460.023,161.162 451.929,156.307 443.586,151.874 435.018,147.874 426.247,144.318 417.299,141.217 408.196,138.578 398.965,136.409 389.631,134.716 380.219,133.503 370.755,132.774 361.265,132.531 351.776,132.774 342.312,133.503 332.9,134.716 323.565,136.409 314.335,138.578 305.232,141.217 296.284,144.318 287.513,147.874 278.945,151.874 270.602,156.307 262.508,161.162 254.684,166.424 247.153,172.081 239.934,178.115 233.048,184.51 226.513,191.25 220.348,198.315 214.569,205.686 209.192,213.343 204.232,221.265 199.702,229.431 195.615,237.817 191.982,246.401 188.813,255.159 186.117,264.068 183.901,273.102 182.171,282.238 180.932,291.449 180.187,300.712 179.938,310 180.187,319.288 180.932,328.551 182.171,337.762 183.901,346.898 186.117,355.932 188.813,364.841 191.982,373.599 195.615,382.183 199.702,390.569 204.232,398.735 209.192,406.657 214.569,414.314 220.348,421.685 226.513,428.75 233.048,435.49 239.934,441.885 247.153,447.919 254.684,453.576 262.508,458.838 270.602,463.693 278.945,468.126 287.513,472.126 296.284,475.682 305.232,478.783 314.335,481.422 323.565,483.591 332.9,485.284 342.312,486.497 351.776,487.226 361.265,487.469 370.755,487.226 380.219,486.497 389.631,485.284 398.965,483.591 408.196,481.422 417.299,478.783 426.247,475.682 435.018,472.126 443.586,468.126 451.929,463.693 460.023,458.838 467.847,453.576 475.378,447.919 482.597,441.885 489.483,435.49 496.018,428.75 502.183,421.685 507.962,414.314 513.339,406.657 518.299,398.735 522.829,390.569 526.916,382.183 530.549,373.599 533.718,364.841 536.414,355.932 538.63,346.898 540.36,337.762 541.599,328.551 542.344,319.288 542.593,310" fill="none" stroke="black" stroke-width="0.4" stroke-linecap="round" stroke-linejoin="round" stroke-dasharray="1 3"/><polyline points="542.593,310 542.394,302.57 541.798,295.16 540.807,287.79 539.423,280.482 537.65,273.254 535.493,266.127 532.958,259.121 530.051,252.253 526.782,245.545 523.158,239.012 519.19,232.675 514.888,226.549 510.265,220.652 505.333,215 500.105,209.608 494.596,204.492 488.821,199.664 482.796,195.14 476.537,190.929 470.062,187.046 463.388,183.499 456.533,180.299 449.516,177.455 442.357,174.973 435.076,172.862 427.691,171.127 420.224,169.773 412.694,168.802 405.123,168.219 397.531,168.025 389.939,168.219 382.368,168.802 374.838,169.773 367.371,171.127 359.986,172.862 352.704,174.973 345.545,177.455 338.529,180.299 331.674,183.499 325,187.046 318.525,190.929 312.266,195.14 306.241,199.664 300.466,204.492 294.957,209.608 289.729,215 284.797,220.652 280.173,226.549 275.872,232.675 271.904,239.012 268.28,245.545 265.01,252.253 262.104,259.121 259.569,266.127 257.412,273.254 255.639,280.482 254.255,287.79 253.264,295.16 252.668,302.57 252.469,310 252.668,317.43 253.264,324.84 254.255,332.21 255.639,339.518 257.412,346.746 259.569,353.873 262.104,360.879 265.01,367.747 268.28,374.455 271.904,380.988 275.872,387.325 280.173,393.451 284.797,399.348 289.729,405 294.957,410.392 300.466,415.508 306.241,420.336 312.266,424.86 318.525,429.071 325,432.954 331.674,436.501 338.529,439.701 345.545,442.545 352.704,445.027 359.986,447.138 367.371,448.873 374.838,450.227 382.368,451.198 389.939,451.781 397.531,451.975 405.123,451.781 412.694,451.198 420.224,450.227 427.691,448.873 435.076,447.138 442.357,445.027 449.516,442.545 456.533,439.701 463.388,436.501 470.062,432.954 476.537,429.071 482.796,424.86 488.821,420.336 494.596,415.508 500.105,410.392 505.333,405 510.265,399.348 514.888,393.451 519.19,387.325 523.158,380.988 526.782,374.455 530.051,367.747 532.958,360.879 535.493,353.873 537.65,346.746 539.423,339.518 540.807,332.21 541.798,324.84 542.394,317.43 542.593,310" fill="none" stroke="black" stroke-width="0.4" stroke-linecap="round" stroke-linejoin="round" stroke-dasharray="1 3"/><polyline points="542.593,310 542.443,304.427 541.997,298.87 541.253,293.343 540.215,287.861 538.885,282.441 537.268,277.095 535.366,271.84 533.187,266.69 530.735,261.658 528.017,256.759 525.041,252.006 521.814,247.412 518.347,242.989 514.648,238.75 510.727,234.706 506.595,230.869 502.264,227.248 497.745,223.855 493.051,220.697 488.194,217.784 483.189,215.124 478.048,212.724 472.785,210.591 467.416,208.73 461.955,207.147 456.416,205.845 450.816,204.829 445.169,204.102 439.49,203.664 433.796,203.519 428.102,203.664 422.424,204.102 416.777,204.829 411.176,205.845 405.638,207.147 400.176,208.73 394.807,210.591 389.545,212.724 384.404,215.124 379.398,217.784 374.542,220.697 369.847,223.855 365.329,227.248 360.997,230.869 356.866,234.706 352.945,238.75 349.246,242.989 345.778,247.412 342.552,252.006 339.576,256.759 336.858,261.658 334.406,266.69 332.226,271.84 330.325,277.095 328.707,282.441 327.377,287.861 326.339,293.343 325.596,298.87 325.149,304.427 325,310 325.149,315.573 325.596,321.13 326.339,326.657 327.377,332.139 328.707,337.559 330.325,342.905 332.226,348.16 334.406,353.31 336.858,358.342 339.576,363.241 342.552,367.994 345.778,372.588 349.246,377.011 352.945,381.25 356.866,385.294 360.997,389.131 365.329,392.752 369.847,396.145 374.542,399.303 379.398,402.216 384.404,404.876 389.545,407.276 394.807,409.409 400.176,411.27 405.638,412.853 411.176,414.155 416.777,415.171 422.424,415.898 428.102,416.336 433.796,416.481 439.49,416.336 445.169,415.898 450.816,415.171 456.416,414.155 461.955,412.853 467.416,411.27 472.785,409.409 478.048,407.276 483.189,404.876 488.194,402.216 493.051,399.303 497.745,396.145 502.264,392.752 506.595,389.131 510.727,385.294 514.648,381.25 518.347,377.011 521.814,372.588 525.041,367.994 528.017,363.241 530.735,358.342 533.187,353.31 535.366,348.16 537.268,342.905 538.885,337.559 540.215,332.139 541.253,326.657 541.997,321.13 542.443,315.573 542.593,310" fill="none" stroke="black" stroke-width="0.4" stroke-linecap="round" stroke-linejoin="round" stroke-dasharray="1 3"/><polyline points="542.593,310 542.493,306.285 542.195,302.58 541.7,298.895 541.008,295.241 540.121,291.627 539.043,288.064 537.775,284.56 536.322,281.127 534.687,277.772 532.875,274.506 530.891,271.337 528.74,268.275 526.429,265.326 523.963,262.5 521.349,259.804 518.594,257.246 515.707,254.832 512.694,252.57 509.565,250.465 506.327,248.523 502.99,246.75 499.563,245.15 496.054,243.727 492.475,242.487 488.834,241.431 485.142,240.564 481.408,239.886 477.643,239.401 473.858,239.11 470.062,239.012 466.266,239.11 462.48,239.401 458.715,239.886 454.982,240.564 451.289,241.431 447.648,242.487 444.069,243.727 440.561,245.15 437.133,246.75 433.796,248.523 430.559,250.465 427.429,252.57 424.417,254.832 421.529,257.246 418.775,259.804 416.161,262.5 413.695,265.326 411.383,268.275 409.232,271.337 407.248,274.506 405.436,277.772 403.801,281.127 402.348,284.56 401.081,288.064 400.002,291.627 399.116,295.241 398.424,298.895 397.928,302.58 397.63,306.285 397.531,310 397.63,313.715 397.928,317.42 398.424,321.105 399.116,324.759 400.002,328.373 401.081,331.936 402.348,335.44 403.801,338.873 405.436,342.228 407.248,345.494 409.232,348.663 411.383,351.725 413.695,354.674 416.161,357.5 418.775,360.196 421.529,362.754 424.417,365.168 427.429,367.43 430.559,369.535 433.796,371.477 437.133,373.25 440.561,374.85 444.069,376.273 447.648,377.513 451.289,378.569 454.982,379.436 458.715,380.114 462.48,380.599 466.266,380.89 470.062,380.988 473.858,380.89 477.643,380.599 481.408,380.114 485.142,379.436 488.834,378.569 492.475,377.513 496.054,376.273 499.563,374.85 502.99,373.25 506.327,371.477 509.565,369.535 512.694,367.43 515.707,365.168 518.594,362.754 521.349,360.196 523.963,357.5 526.429,354.674 528.74,351.725 530.891,348.663 532.875,345.494 534.687,342.228 536.322,338.873 537.775,335.44 539.043,331.936 540.121,328.373 541.008,324.759 541.7,321.105 542.195,317.42 542.493,313.715 542.593,310" fill="none" stroke="black" stroke-width="0.4" stroke-linecap="round" stroke-linejoin="round" stroke-dasharray="1 3"/><polyline points="542.593,310 542.543,308.142 542.394,306.29 542.146,304.448 541.8,302.62 541.357,300.814 540.818,299.032 540.184,297.28 539.457,295.563 538.64,293.886 537.734,292.253 536.742,290.669 535.667,289.137 534.511,287.663 533.278,286.25 531.971,284.902 530.593,283.623 529.15,282.416 527.643,281.285 526.079,280.232 524.46,279.261 522.791,278.375 521.078,277.575 519.324,276.864 517.534,276.243 515.713,275.716 513.867,275.282 512,274.943 510.118,274.701 508.225,274.555 506.327,274.506 504.429,274.555 502.536,274.701 500.654,274.943 498.787,275.282 496.941,275.716 495.121,276.243 493.331,276.864 491.577,277.575 489.863,278.375 488.194,279.261 486.576,280.232 485.011,281.285 483.505,282.416 482.061,283.623 480.684,284.902 479.377,286.25 478.144,287.663 476.988,289.137 475.912,290.669 474.92,292.253 474.014,293.886 473.197,295.563 472.47,297.28 471.837,299.032 471.297,300.814 470.854,302.62 470.508,304.448 470.26,306.29 470.111,308.142 470.062,310 470.111,311.858 470.26,313.71 470.508,315.552 470.854,317.38 471.297,319.186 471.837,320.968 472.47,322.72 473.197,324.437 474.014,326.114 474.92,327.747 475.912,329.331 476.988,330.863 478.144,332.337 479.377,333.75 480.684,335.098 482.061,336.377 483.505,337.584 485.011,338.715 486.576,339.768 488.194,340.739 489.863,341.625 491.577,342.425 493.331,343.136 495.121,343.757 496.941,344.284 498.787,344.718 500.654,345.057 502.536,345.299 504.429,345.445 506.327,345.494 508.225,345.445 510.118,345.299 512,345.057 513.867,344.718 515.713,344.284 517.534,343.757 519.324,343.136 521.078,342.425 522.791,341.625 524.46,340.739 526.079,339.768 527.643,338.715 529.15,337.584 530.593,336.377 531.971,335.098 533.278,333.75 534.511,332.337 535.667,330.863 536.742,329.331 537.734,327.747 538.64,326.114 539.457,324.437 540.184,322.72 540.818,320.968 541.357,319.186 541.8,317.38 542.146,315.552 542.394,313.71 542.543,311.858 542.593,310" fill="none" stroke="black" stroke-width="0.4" stroke-linecap="round" stroke-linejoin="round" stroke-dasharray="1 3"/><polyline points="1630.556,-754.815 1629.065,-810.543 1624.596,-866.118 1617.161,-921.389 1606.781,-976.202 1593.484,-1030.409 1577.307,-1083.861 1558.294,-1136.41 1536.496,-1187.914 1511.975,-1238.231 1484.796,-1287.222 1455.035,-1334.755 1422.773,-1380.697 1388.099,-1424.924 1351.107,-1467.315 1311.899,-1507.753 1270.582,-1546.126 1227.27,-1582.331 1182.081,-1616.268 1135.14,-1647.844 1086.574,-1676.971 1036.517,-1703.572 985.107,-1727.572 932.484,-1748.905 878.792,-1767.514 824.178,-1783.347 768.793,-1796.361 712.787,-1806.52 656.316,-1813.796 599.532,-1818.17 542.593,-1819.63 485.653,-1818.17 428.869,-1813.796 372.398,-1806.52 316.392,-1796.361 261.007,-1783.347 206.394,-1767.514 152.702,-1748.905 100.078,-1727.572 48.668,-1703.572 -1.389,-1676.971 -49.955,-1647.844 -96.896,-1616.268 -142.085,-1582.331 -185.397,-1546.126 -226.713,-1507.753 -265.921,-1467.315 -302.913,-1424.924 -337.588,-1380.697 -369.85,-1334.755 -399.611,-1287.222 -426.79,-1238.231 -451.311,-1187.914 -473.108,-1136.41 -492.122,-1083.861 -508.299,-1030.409 -521.596,-976.202 -531.976,-921.389 -539.41,-866.118 -543.879,-810.543 -545.37,-754.815 -543.879,-699.087 -539.41,-643.511 -531.976,-588.241 -521.596,-533.427 -508.299,-479.22 -492.122,-425.769 -473.108,-373.219 -451.311,-321.716 -426.79,-271.399 -399.611,-222.407 -369.85,-174.875 -337.588,-128.932 -302.913,-84.705 -265.921,-42.315 -226.713,-1.877 -185.397,36.497 -142.085,72.702 -96.896,106.638 -49.955,138.214 -1.389,167.342 48.668,193.942 100.078,217.942 152.702,239.275 206.394,257.884 261.007,273.717 316.392,286.731 372.398,296.89 428.869,304.167 485.653,308.541 542.593,310 599.532,308.541 656.316,304.167 712.787,296.89 768.793,286.731 824.178,273.717 878.792,257.884 932.484,239.275 985.107,217.942 1036.517,193.942 1086.574,167.342 1135.14,138.214 1182.081,106.638 1227.27,72.702 1270.582,36.497 1311.899,-1.877 1351.107,-42.315 1388.099,-84.705 1422.773,-128.932 1455.035,-174.875 1484.796,-222.407 1511.975,-271.399 1536.496,-321.716 1558.294,-373.219 1577.307,-425.769 1593.484,-479.22 1606.781,-533.427 1617.161,-588.241 1624.596,-643.511 1629.065,-699.087 1630.556,-754.815" fill="none" stroke="black" stroke-width="0.4" stroke-linecap="round" stroke-linejoin="round" stroke-dasharray="1 3"/><polyline points="1630.556,1374.815 1629.065,1319.087 1624.596,1263.511 1617.161,1208.241 1606.781,1153.427 1593.484,1099.22 1577.307,1045.769 1558.294,993.219 1536.496,941.716 1511.975,891.399 1484.796,842.407 1455.035,794.875 1422.773,748.932 1388.099,704.705 1351.107,662.315 1311.899,621.877 1270.582,583.503 1227.27,547.298 1182.081,513.362 1135.14,481.786 1086.574,452.658 1036.517,426.058 985.107,402.058 932.484,380.725 878.792,362.116 824.178,346.283 768.793,333.269 712.787,323.11 656.316,315.833 599.532,311.459 542.593,310 485.653,311.459 428.869,315.833 372.398,323.11 316.392,333.269 261.007,346.283 206.394,362.116 152.702,380.725 100.078,402.058 48.668,426.058 -1.389,452.658 -49.955,481.786 -96.896,513.362 -142.085,547.298 -185.397,583.503 -226.713,621.877 -265.921,662.315 -302.913,704.705 -337.588,748.932 -369.85,794.875 -399.611,842.407 -426.79,891.399 -451.311,941.716 -473.108,993.219 -492.122,1045.769 -508.299,1099.22 -521.596,1153.427 -531.976,1208.241 -539.41,1263.511 -543.879,1319.087 -545.37,1374.815 -543.879,1430.543 -539.41,1486.118 -531.976,1541.389 -521.596,1596.202 -508.299,1650.409 -492.122,1703.861 -473.108,1756.41 -451.311,1807.914 -426.79,1858.231 -399.611,1907.222 -369.85,1954.755 -337.588,2000.697 -302.913,2044.924 -265.921,2087.315 -226.713,2127.753 -185.397,2166.126 -142.085,2202.331 -96.896,2236.268 -49.955,2267.844 -1.389,2296.971 48.668,2323.572 100.078,2347.572 152.702,2368.905 206.394,2387.514 261.007,2403.347 316.392,2416.361 372.398,2426.52 428.869,2433.796 485.653,2438.17 542.593,2439.63 599.532,2438.17 656.316,2433.796 712.787,2426.52 768.793,2416.361 824.178,2403.347 878.792,2387.514 932.484,2368.905 985.107,2347.572 1036.517,2323.572 1086.574,2296.971 1135.14,2267.844 1182.081,2236.268 1227.27,2202.331 1270.582,2166.126 1311.899,2127.753 1351.107,2087.315 1388.099,2044.924 1422.773,2000.697 1455.035,1954.755 1484.796,1907.222 1511.975,1858.231 1536.496,1807.914 1558.294,1756.41 1577.307,1703.861 1593.484,1650.409 1606.781,1596.202 1617.161,1541.389 1624.596,1486.118 1629.065,1430.543 1630.556,1374.815" fill="none" stroke="black" stroke-width="0.4" stroke-linecap="round" stroke-linejoin="round" stroke-dasharray="1 3"/><polyline points="977.778,-115.926 977.181,-138.217 975.394,-160.447 972.42,-182.555 968.268,-204.481 962.949,-226.164 956.478,-247.544 948.873,-268.564 940.154,-289.166 930.345,-309.292 919.474,-328.889 907.57,-347.902 894.665,-366.279 880.795,-383.97 865.998,-400.926 850.315,-417.101 833.788,-432.451 816.464,-446.933 798.388,-460.507 779.611,-473.137 760.185,-484.789 740.163,-495.429 719.598,-505.029 698.549,-513.562 677.072,-521.006 655.227,-527.339 633.073,-532.544 610.671,-536.608 588.082,-539.519 565.368,-541.268 542.593,-541.852 519.817,-541.268 497.103,-539.519 474.515,-536.608 452.113,-532.544 429.958,-527.339 408.113,-521.006 386.636,-513.562 365.587,-505.029 345.023,-495.429 325,-484.789 305.574,-473.137 286.797,-460.507 268.722,-446.933 251.397,-432.451 234.87,-417.101 219.187,-400.926 204.39,-383.97 190.52,-366.279 177.616,-347.902 165.711,-328.889 154.84,-309.292 145.031,-289.166 136.312,-268.564 128.707,-247.544 122.236,-226.164 116.917,-204.481 112.765,-182.555 109.791,-160.447 108.004,-138.217 107.407,-115.926 108.004,-93.635 109.791,-71.405 112.765,-49.296 116.917,-27.371 122.236,-5.688 128.707,15.692 136.312,36.712 145.031,57.314 154.84,77.44 165.711,97.037 177.616,116.05 190.52,134.427 204.39,152.118 219.187,169.074 234.87,185.249 251.397,200.599 268.722,215.081 286.797,228.655 305.574,241.286 325,252.937 345.023,263.577 365.587,273.177 386.636,281.71 408.113,289.154 429.958,295.487 452.113,300.692 474.515,304.756 497.103,307.667 519.817,309.416 542.593,310 565.368,309.416 588.082,307.667 610.671,304.756 633.073,300.692 655.227,295.487 677.072,289.154 698.549,281.71 719.598,273.177 740.163,263.577 760.185,252.937 779.611,241.286 798.388,228.655 816.464,215.081 833.788,200.599 850.315,185.249 865.998,169.074 880.795,152.118 894.665,134.427 907.57,116.05 919.474,97.037 930.345,77.44 940.154,57.314 948.873,36.712 956.478,15.692 962.949,-5.688 968.268,-27.371 972.42,-49.296 975.394,-71.405 977.181,-93.635 977.778,-115.926" fill="none" stroke="black" stroke-width="0.4" stroke-linecap="round" stroke-linejoin="round" stroke-dasharray="1 3"/><polyline points="977.778,735.926 977.181,713.635 975.394,691.405 972.42,669.296 968.268,647.371 962.949,625.688 956.478,604.308 948.873,583.288 940.154,562.686 930.345,542.56 919.474,522.963 907.57,503.95 894.665,485.573 880.795,467.882 865.998,450.926 850.315,434.751 833.788,419.401 816.464,404.919 798.388,391.345 779.611,378.714 760.185,367.063 740.163,356.423 719.598,346.823 698.549,338.29 677.072,330.846 655.227,324.513 633.073,319.308 610.671,315.244 588.082,312.333 565.368,310.584 542.593,310 519.817,310.584 497.103,312.333 474.515,315.244 452.113,319.308 429.958,324.513 408.113,330.846 386.636,338.29 365.587,346.823 345.023,356.423 325,367.063 305.574,378.714 286.797,391.345 268.722,404.919 251.397,419.401 234.87,434.751 219.187,450.926 204.39,467.882 190.52,485.573 177.616,503.95 165.711,522.963 154.84,542.56 145.031,562.686 136.312,583.288 128.707,604.308 122.236,625.688 116.917,647.371 112.765,669.296 109.791,691.405 108.004,713.635 107.407,735.926 108.004,758.217 109.791,780.447 112.765,802.555 116.917,824.481 122.236,846.164 128.707,867.544 136.312,888.564 145.031,909.166 154.84,929.292 165.711,948.889 177.616,967.902 190.52,986.279 204.39,1003.97 219.187,1020.926 234.87,1037.101 251.397,1052.451 268.722,1066.933 286.797,1080.507 305.574,1093.137 325,1104.789 345.023,1115.429 365.587,1125.029 386.636,1133.562 408.113,1141.006 429.958,1147.339 452.113,1152.544 474.515,1156.608 497.103,1159.519 519.817,1161.268 542.593,1161.852 565.368,1161.268 588.082,1159.519 610.671,1156.608 633.073,1152.544 655.227,1147.339 677.072,1141.006 698.549,1133.562 719.598,1125.029 740.163,1115.429 760.185,1104.789 779.611,1093.137 798.388,1080.507 816.464,1066.933 833.788,1052.451 850.315,1037.101 865.998,1020.926 880.795,1003.97 894.665,986.279 907.57,967.902 919.474,948.889 930.345,929.292 940.154,909.166 948.873,888.564 956.478,867.544 962.949,846.164 968.268,824.481 972.42,802.555 975.394,780.447 977.181,758.217 977.778,735.926" fill="none" stroke="black" stroke-width="0.4" stroke-linecap="round" stroke-linejoin="round" stroke-dasharray="1 3"/><polyline points="760.185,97.037 759.887,85.891 758.993,74.776 757.506,63.722 755.43,52.76 752.771,41.918 749.535,31.228 745.733,20.718 741.373,10.417 736.469,0.354 731.033,-9.444 725.081,-18.951 718.629,-28.139 711.694,-36.985 704.295,-45.463 696.454,-53.551 688.19,-61.225 679.528,-68.466 670.49,-75.254 661.102,-81.569 651.389,-87.394 641.378,-92.714 631.095,-97.514 620.571,-101.781 609.832,-105.503 598.91,-108.669 587.833,-111.272 576.632,-113.304 565.337,-114.759 553.981,-115.634 542.593,-115.926 531.205,-115.634 519.848,-114.759 508.554,-113.304 497.353,-111.272 486.275,-108.669 475.353,-105.503 464.614,-101.781 454.09,-97.514 443.808,-92.714 433.796,-87.394 424.083,-81.569 414.695,-75.254 405.657,-68.466 396.995,-61.225 388.731,-53.551 380.89,-45.463 373.491,-36.985 366.556,-28.139 360.104,-18.951 354.152,-9.444 348.716,0.354 343.812,10.417 339.452,20.718 335.65,31.228 332.414,41.918 329.755,52.76 327.679,63.722 326.192,74.776 325.298,85.891 325,97.037 325.298,108.183 326.192,119.298 327.679,130.352 329.755,141.315 332.414,152.156 335.65,162.846 339.452,173.356 343.812,183.657 348.716,193.72 354.152,203.519 360.104,213.025 366.556,222.214 373.491,231.059 380.89,239.537 388.731,247.625 396.995,255.299 405.657,262.54 414.695,269.328 424.083,275.643 433.796,281.468 443.808,286.788 454.09,291.588 464.614,295.855 475.353,299.577 486.275,302.743 497.353,305.346 508.554,307.378 519.848,308.833 531.205,309.708 542.593,310 553.981,309.708 565.337,308.833 576.632,307.378 587.833,305.346 598.91,302.743 609.832,299.577 620.571,295.855 631.095,291.588 641.378,286.788 651.389,281.468 661.102,275.643 670.49,269.328 679.528,262.54 688.19,255.299 696.454,247.625 704.295,239.537 711.694,231.059 718.629,222.214 725.081,213.025 731.033,203.519 736.469,193.72 741.373,183.657 745.733,173.356 749.535,162.846 752.771,152.156 755.43,141.315 757.506,130.352 758.993,119.298 759.887,108.183 760.185,97.037" fill="none" stroke="black" stroke-width="0.4" stroke-linecap="round" stroke-linejoin="round" stroke-dasharray="1 3"/><polyline points="760.185,522.963 759.887,511.817 758.993,500.702 757.506,489.648 755.43,478.685 752.771,467.844 749.535,457.154 745.733,446.644 741.373,436.343 736.469,426.28 731.033,416.481 725.081,406.975 718.629,397.786 711.694,388.941 704.295,380.463 696.454,372.375 688.19,364.701 679.528,357.46 670.49,350.672 661.102,344.357 651.389,338.532 641.378,333.212 631.095,328.412 620.571,324.145 609.832,320.423 598.91,317.257 587.833,314.654 576.632,312.622 565.337,311.167 553.981,310.292 542.593,310 531.205,310.292 519.848,311.167 508.554,312.622 497.353,314.654 486.275,317.257 475.353,320.423 464.614,324.145 454.09,328.412 443.808,333.212 433.796,338.532 424.083,344.357 414.695,350.672 405.657,357.46 396.995,364.701 388.731,372.375 380.89,380.463 373.491,388.941 366.556,397.786 360.104,406.975 354.152,416.481 348.716,426.28 343.812,436.343 339.452,446.644 335.65,457.154 332.414,467.844 329.755,478.685 327.679,489.648 326.192,500.702 325.298,511.817 325,522.963 325.298,534.109 326.192,545.224 327.679,556.278 329.755,567.24 332.414,578.082 335.65,588.772 339.452,599.282 343.812,609.583 348.716,619.646 354.152,629.444 360.104,638.951 366.556,648.139 373.491,656.985 380.89,665.463 388.731,673.551 396.995,681.225 405.657,688.466 414.695,695.254 424.083,701.569 433.796,707.394 443.808,712.714 454.09,717.514 464.614,721.781 475.353,725.503 486.275,728.669 497.353,731.272 508.554,733.304 519.848,734.759 531.205,735.634 542.593,735.926 553.981,735.634 565.337,734.759 576.632,733.304 587.833,731.272 598.91,728.669 609.832,725.503 620.571,721.781 631.095,717.514 641.378,712.714 651.389,707.394 661.102,701.569 670.49,695.254 679.528,688.466 688.19,681.225 696.454,673.551 704.295,665.463 711.694,656.985 718.629,648.139 725.081,638.951 731.033,629.444 736.469,619.646 741.373,609.583 745.733,599.282 749.535,588.772 752.771,578.082 755.43,567.24 757.506,556.278 758.993,545.224 759.887,534.109 760.185,522.963" fill="none" stroke="black" stroke-width="0.4" stroke-linecap="round" stroke-linejoin="round" stroke-dasharray="1 3"/><polyline points="651.389,203.519 651.24,197.946 650.793,192.388 650.049,186.861 649.011,181.38 647.682,175.959 646.064,170.614 644.163,165.359 641.983,160.209 639.531,155.177 636.813,150.278 633.837,145.525 630.611,140.93 627.143,136.508 623.444,132.269 619.523,128.225 615.392,124.387 611.06,120.767 606.541,117.373 601.847,114.216 596.991,111.303 591.985,108.643 586.844,106.243 581.582,104.109 576.212,102.249 570.751,100.665 565.213,99.364 559.612,98.348 553.965,97.62 548.287,97.183 542.593,97.037 536.899,97.183 531.22,97.62 525.573,98.348 519.973,99.364 514.434,100.665 508.973,102.249 503.603,104.109 498.341,106.243 493.2,108.643 488.194,111.303 483.338,114.216 478.644,117.373 474.125,120.767 469.794,124.387 465.662,128.225 461.741,132.269 458.042,136.508 454.575,140.93 451.348,145.525 448.372,150.278 445.654,155.177 443.202,160.209 441.022,165.359 439.121,170.614 437.503,175.959 436.174,181.38 435.136,186.861 434.392,192.388 433.945,197.946 433.796,203.519 433.945,209.091 434.392,214.649 435.136,220.176 436.174,225.657 437.503,231.078 439.121,236.423 441.022,241.678 443.202,246.828 445.654,251.86 448.372,256.759 451.348,261.512 454.575,266.107 458.042,270.529 461.741,274.769 465.662,278.812 469.794,282.65 474.125,286.27 478.644,289.664 483.338,292.821 488.194,295.734 493.2,298.394 498.341,300.794 503.603,302.928 508.973,304.788 514.434,306.372 519.973,307.673 525.573,308.689 531.22,309.417 536.899,309.854 542.593,310 548.287,309.854 553.965,309.417 559.612,308.689 565.213,307.673 570.751,306.372 576.212,304.788 581.582,302.928 586.844,300.794 591.985,298.394 596.991,295.734 601.847,292.821 606.541,289.664 611.06,286.27 615.392,282.65 619.523,278.812 623.444,274.769 627.143,270.529 630.611,266.107 633.837,261.512 636.813,256.759 639.531,251.86 641.983,246.828 644.163,241.678 646.064,236.423 647.682,231.078 649.011,225.657 650.049,220.176 650.793,214.649 651.24,209.091 651.389,203.519" fill="none" stroke="black" stroke-width="0.4" stroke-linecap="round" stroke-linejoin="round" stroke-dasharray="1 3"/><polyline points="651.389,416.481 651.24,410.909 650.793,405.351 650.049,399.824 649.011,394.343 647.682,388.922 646.064,383.577 644.163,378.322 641.983,373.172 639.531,368.14 636.813,363.241 633.837,358.488 630.611,353.893 627.143,349.471 623.444,345.231 619.523,341.188 615.392,337.35 611.06,333.73 606.541,330.336 601.847,327.179 596.991,324.266 591.985,321.606 586.844,319.206 581.582,317.072 576.212,315.212 570.751,313.628 565.213,312.327 559.612,311.311 553.965,310.583 548.287,310.146 542.593,310 536.899,310.146 531.22,310.583 525.573,311.311 519.973,312.327 514.434,313.628 508.973,315.212 503.603,317.072 498.341,319.206 493.2,321.606 488.194,324.266 483.338,327.179 478.644,330.336 474.125,333.73 469.794,337.35 465.662,341.188 461.741,345.231 458.042,349.471 454.575,353.893 451.348,358.488 448.372,363.241 445.654,368.14 443.202,373.172 441.022,378.322 439.121,383.577 437.503,388.922 436.174,394.343 435.136,399.824 434.392,405.351 433.945,410.909 433.796,416.481 433.945,422.054 434.392,427.612 435.136,433.139 436.174,438.62 437.503,444.041 439.121,449.386 441.022,454.641 443.202,459.791 445.654,464.823 448.372,469.722 451.348,474.475 454.575,479.07 458.042,483.492 461.741,487.731 465.662,491.775 469.794,495.613 474.125,499.233 478.644,502.627 483.338,505.784 488.194,508.697 493.2,511.357 498.341,513.757 503.603,515.891 508.973,517.751 514.434,519.335 519.973,520.636 525.573,521.652 531.22,522.38 536.899,522.817 542.593,522.963 548.287,522.817 553.965,522.38 559.612,521.652 565.213,520.636 570.751,519.335 576.212,517.751 581.582,515.891 586.844,513.757 591.985,511.357 596.991,508.697 601.847,505.784 606.541,502.627 611.06,499.233 615.392,495.613 619.523,491.775 623.444,487.731 627.143,483.492 630.611,479.07 633.837,474.475 636.813,469.722 639.531,464.823 641.983,459.791 644.163,454.641 646.064,449.386 647.682,444.041 649.011,438.62 650.049,433.139 650.793,427.612 651.24,422.054 651.389,416.481" fill="none" stroke="black" stroke-width="0.4" stroke-linecap="round" stroke-linejoin="round" stroke-dasharray="1 3"/><polyline points="586.111,267.407 586.051,265.178 585.873,262.955 585.575,260.744 585.16,258.552 584.628,256.384 583.981,254.246 583.221,252.144 582.349,250.083 581.368,248.071 580.281,246.111 579.09,244.21 577.8,242.372 576.413,240.603 574.933,238.907 573.365,237.29 571.712,235.755 569.98,234.307 568.172,232.949 566.294,231.686 564.352,230.521 562.35,229.457 560.293,228.497 558.188,227.644 556.041,226.899 553.856,226.266 551.641,225.746 549.4,225.339 547.142,225.048 544.87,224.873 542.593,224.815 540.315,224.873 538.044,225.048 535.785,225.339 533.545,225.746 531.329,226.266 529.145,226.899 526.997,227.644 524.892,228.497 522.836,229.457 520.833,230.521 518.891,231.686 517.013,232.949 515.206,234.307 513.473,235.755 511.82,237.29 510.252,238.907 508.772,240.603 507.385,242.372 506.095,244.21 504.904,246.111 503.817,248.071 502.836,250.083 501.965,252.144 501.204,254.246 500.557,256.384 500.025,258.552 499.61,260.744 499.312,262.955 499.134,265.178 499.074,267.407 499.134,269.637 499.312,271.86 499.61,274.07 500.025,276.263 500.557,278.431 501.204,280.569 501.965,282.671 502.836,284.731 503.817,286.744 504.904,288.704 506.095,290.605 507.385,292.443 508.772,294.212 510.252,295.907 511.82,297.525 513.473,299.06 515.206,300.508 517.013,301.866 518.891,303.129 520.833,304.294 522.836,305.358 524.892,306.318 526.997,307.171 529.145,307.915 531.329,308.549 533.545,309.069 535.785,309.476 538.044,309.767 540.315,309.942 542.593,310 544.87,309.942 547.142,309.767 549.4,309.476 551.641,309.069 553.856,308.549 556.041,307.915 558.188,307.171 560.293,306.318 562.35,305.358 564.352,304.294 566.294,303.129 568.172,301.866 569.98,300.508 571.712,299.06 573.365,297.525 574.933,295.907 576.413,294.212 577.8,292.443 579.09,290.605 580.281,288.704 581.368,286.744 582.349,284.731 583.221,282.671 583.981,280.569 584.628,278.431 585.16,276.263 585.575,274.07 585.873,271.86 586.051,269.637 586.111,267.407" fill="none" stroke="black" stroke-width="0.4" stroke-linecap="round" stroke-linejoin="round" stroke-dasharray="1 3"/><polyline points="586.111,352.593 586.051,350.363 585.873,348.14 585.575,345.93 585.16,343.737 584.628,341.569 583.981,339.431 583.221,337.329 582.349,335.269 581.368,333.256 580.281,331.296 579.09,329.395 577.8,327.557 576.413,325.788 574.933,324.093 573.365,322.475 571.712,320.94 569.98,319.492 568.172,318.134 566.294,316.871 564.352,315.706 562.35,314.642 560.293,313.682 558.188,312.829 556.041,312.085 553.856,311.451 551.641,310.931 549.4,310.524 547.142,310.233 544.87,310.058 542.593,310 540.315,310.058 538.044,310.233 535.785,310.524 533.545,310.931 531.329,311.451 529.145,312.085 526.997,312.829 524.892,313.682 522.836,314.642 520.833,315.706 518.891,316.871 517.013,318.134 515.206,319.492 513.473,320.94 511.82,322.475 510.252,324.093 508.772,325.788 507.385,327.557 506.095,329.395 504.904,331.296 503.817,333.256 502.836,335.269 501.965,337.329 501.204,339.431 500.557,341.569 500.025,343.737 499.61,345.93 499.312,348.14 499.134,350.363 499.074,352.593 499.134,354.822 499.312,357.045 499.61,359.256 500.025,361.448 500.557,363.616 501.204,365.754 501.965,367.856 502.836,369.917 503.817,371.929 504.904,373.889 506.095,375.79 507.385,377.628 508.772,379.397 510.252,381.093 511.82,382.71 513.473,384.245 515.206,385.693 517.013,387.051 518.891,388.314 520.833,389.479 522.836,390.543 524.892,391.503 526.997,392.356 529.145,393.101 531.329,393.734 533.545,394.254 535.785,394.661 538.044,394.952 540.315,395.127 542.593,395.185 544.87,395.127 547.142,394.952 549.4,394.661 551.641,394.254 553.856,393.734 556.041,393.101 558.188,392.356 560.293,391.503 562.35,390.543 564.352,389.479 566.294,388.314 568.172,387.051 569.98,385.693 571.712,384.245 573.365,382.71 574.933,381.093 576.413,379.397 577.8,377.628 579.09,375.79 580.281,373.889 581.368,371.929 582.349,369.917 583.221,367.856 583.981,365.754 584.628,363.616 585.16,361.448 585.575,359.256 585.873,357.045 586.051,354.822 586.111,352.593" fill="none" stroke="black" stroke-width="0.4" stroke-linecap="round" stroke-linejoin="round" stroke-dasharray="1 3"/><polyline points="252.469,310 259.134,287.233 268.793,267.26 280.236,250.788 292.227,237.985 303.732,228.619 314.013,222.247 322.617,218.38 329.321,216.58 334.064,216.514 336.901,217.97 337.967,220.848 337.472,225.142 335.697,230.91 333.009,238.238 329.857,247.184 326.767,257.722 324.293,269.689 322.951,282.747 323.127,296.389 325,310 328.504,322.949 333.35,334.696 339.099,344.86 345.256,353.247 351.352,359.826 356.999,364.68 361.913,367.954 365.913,369.803 368.908,370.367 370.884,369.753 371.894,368.025 372.045,365.217 371.498,361.339 370.464,356.397 369.194,350.422 367.969,343.486 367.072,335.728 366.756,327.365 367.209,318.68 368.519,310 370.664,301.66 373.521,293.958 376.885,287.125 380.515,281.311 384.165,276.585 387.616,272.955 390.692,270.384 393.27,268.817 395.278,268.193 396.691,268.459 397.53,269.574 397.856,271.508 397.765,274.235 397.385,277.726 396.866,281.937 396.373,286.795 396.07,292.194 396.101,297.985 396.57,303.988 397.531,310" fill="none" stroke="black" stroke-width="1.4" stroke-linecap="round" stroke-linejoin="round"/><circle cx="252.469" cy="310" r="5" fill="black"/><line x1="391.531" y1="304" x2="403.531" y2="316" stroke="black" stroke-width="1"/><line x1="391.531" y1="316" x2="403.531" y2="304" stroke="black" stroke-width="1"/></g><rect x="424" y="472" width="128" height="60" fill="white" stroke="black" stroke-width="0.8"/><line x1="432" y1="486" x2="460" y2="486" stroke="black" stroke-width="1.2"/><text x="468" y="491" font-size="10" font-family="Times, &apos;Liberation Serif&apos;, serif" fill="black">S₁₁</text><circle cx="446" cy="502" r="4" fill="black"/><text x="468" y="507" font-size="10" font-family="Times, &apos;Liberation Serif&apos;, serif" fill="black">start</text><line x1="442" y1="514" x2="450" y2="522" stroke="black" stroke-width="1"/><line x1="442" y1="522" x2="450" y2="514" stroke="black" stroke-width="1"/><text x="468" y="523" font-size="10" font-family="Times, &apos;Liberation Serif&apos;, serif" fill="black">end</text><text x="179.938" y="310" font-size="7" font-family="Times, &apos;Liberation Serif&apos;, serif" fill="black" stroke="white" stroke-width="3" stroke-linejoin="round" paint-order="stroke" text-anchor="middle">0.2</text><text x="252.469" y="310" font-size="7" font-family="Times, &apos;Liberation Serif&apos;, serif" fill="black" stroke="white" stroke-width="3" stroke-linejoin="round" paint-order="stroke" text-anchor="middle">0.5</text><text x="325" y="310" font-size="7" font-family="Times, &apos;Liberation Serif&apos;, serif" fill="black" stroke="white" stroke-width="3" stroke-linejoin="round" paint-order="stroke" text-anchor="middle">1</text><text x="397.531" y="310" font-size="7" font-family="Times, &apos;Liberation Serif&apos;, serif" fill="black" stroke="white" stroke-width="3" stroke-linejoin="round" paint-order="stroke" text-anchor="middle">2</text><text x="470.062" y="310" font-size="7" font-family="Times, &apos;Liberation Serif&apos;, serif" fill="black" stroke="white" stroke-width="3" stroke-linejoin="round" paint-order="stroke" text-anchor="middle">5</text><text x="124.145" y="223.996" font-size="7" font-family="Times, &apos;Liberation Serif&apos;, serif" fill="black" stroke="white" stroke-width="3" stroke-linejoin="round" paint-order="stroke" text-anchor="middle">+0.2</text><text x="124.145" y="396.004" font-size="7" font-family="Times, &apos;Liberation Serif&apos;, serif" fill="black" stroke="white" stroke-width="3" stroke-linejoin="round" paint-order="stroke" text-anchor="middle">−0.2</text><text x="194.444" y="131.111" font-size="7" font-family="Times, &apos;Liberation Serif&apos;, serif" fill="black" stroke="white" stroke-width="3" stroke-linejoin="round" paint-order="stroke" text-anchor="middle">+0.5</text><text x="194.444" y="488.889" font-size="7" font-family="Times, &apos;Liberation Serif&apos;, serif" fill="black" stroke="white" stroke-width="3" stroke-linejoin="round" paint-order="stroke" text-anchor="middle">−0.5</text><text x="325" y="86.389" font-size="7" font-family="Times, &apos;Liberation Serif&apos;, serif" fill="black" stroke="white" stroke-width="3" stroke-linejoin="round" paint-order="stroke" text-anchor="middle">+1</text><text x="325" y="533.611" font-size="7" font-family="Times, &apos;Liberation Serif&apos;, serif" fill="black" stroke="white" stroke-width="3" stroke-linejoin="round" paint-order="stroke" text-anchor="middle">−1</text><text x="455.556" y="131.111" font-size="7" font-family="Times, &apos;Liberation Serif&apos;, serif" fill="black" stroke="white" stroke-width="3" stroke-linejoin="round" paint-order="stroke" text-anchor="middle">+2</text><text x="455.556" y="488.889" font-size="7" font-family="Times, &apos;Liberation Serif&apos;, serif" fill="black" stroke="white" stroke-width="3" stroke-linejoin="round" paint-order="stroke" text-anchor="middle">−2</text><text x="525.855" y="223.996" font-size="7" font-family="Times, &apos;Liberation Serif&apos;, serif" fill="black" stroke="white" stroke-width="3" stroke-linejoin="round" paint-order="stroke" text-anchor="middle">+5</text><text x="525.855" y="396.004" font-size="7" font-family="Times, &apos;Liberation Serif&apos;, serif" fill="black" stroke="white" stroke-width="3" stroke-linejoin="round" paint-order="stroke" text-anchor="middle">−5</text></svg>